<svg xmlns="http://www.w3.org/2000/svg" width="170" height="130" fill="none"><g clip-path="url(#a)"><path fill="#00BAFC" d="M166.337 29.6a34.645 34.645 0 0 0-6.714-9.042l-93.125-.776 76.673-9.103a50.52 50.52 0 0 0-15.556-2.609C120.234 3.031 110.747.008 100.399.008c-9.284 0-17.87 2.439-24.87 6.578-5.947-2.59-12.728-4.06-19.933-4.06-20.691 0-37.932 12.115-41.8 28.182L166.337 29.6ZM169.61 43.075a29.512 29.512 0 0 0-2.902-12.717L5.311 44.68a31.38 31.38 0 0 0-3.782 8.073l49.98 6.299L.39 63.643c1.539 18.19 19.982 32.55 42.512 32.55 11.341 0 21.645-3.638 29.281-9.573 7.66 6.047 18.064 9.765 29.527 9.765 17.007 0 31.688-8.187 38.524-20.023 13.714-3.681 24.368-12.92 28.014-24.48l-63.206-8.288h64.569v-.52ZM75.263 129.999c23.983 0 43.425-.868 43.425-1.938 0-1.07-19.442-1.938-43.425-1.938-23.983 0-43.425.868-43.425 1.938 0 1.07 19.442 1.938 43.425 1.938Z" opacity=".1"/><path fill="#C8CAD7" d="M101.037 124.652v1.171h-34.63v-.95a11.382 11.382 0 0 0 .782-21.021h33.612a11.376 11.376 0 0 0-6.642 10.477 11.384 11.384 0 0 0 6.878 10.323Z"/><path fill="#000" d="M100.802 103.852a11.4 11.4 0 0 0-6.29 7.546H73.481a11.396 11.396 0 0 0-6.29-7.546h33.611Z" opacity=".1"/><path fill="#C8CAD7" d="M26.746 97.886v6.574c0 3.63 2.657 6.573 5.935 6.573h101.894c3.278 0 5.935-2.943 5.935-6.573v-6.574H26.746Z"/><path fill="#000" d="M101.037 124.652v1.172h-34.63v-.951c.949-.354 1.847-.832 2.67-1.423h29.836c.663.475 1.375.878 2.124 1.202Z" opacity=".1"/><path fill="#C8CAD7" d="M111.058 123.815H56.385c-.786 0-1.423.637-1.423 1.423v.624c0 .786.637 1.423 1.423 1.423h54.673c.785 0 1.422-.637 1.422-1.423v-.624c0-.786-.637-1.423-1.422-1.423Z"/><path fill="#474157" d="M140.51 25.85a5.932 5.932 0 0 0-5.935-5.925H32.685a5.933 5.933 0 0 0-5.939 5.925v73.314H140.51V25.85Z"/><path fill="#4C4C78" d="M137.413 28.498v62.996a2.915 2.915 0 0 1-1.804 2.7 2.915 2.915 0 0 1-1.118.222H32.776a2.919 2.919 0 0 1-2.922-2.922V28.498a2.922 2.922 0 0 1 2.922-2.922h101.707a2.924 2.924 0 0 1 2.93 2.922Z"/><path fill="#fff" d="M83.629 24.116a1.37 1.37 0 1 0 0-2.74 1.37 1.37 0 0 0 0 2.74ZM83.63 108.112a3.379 3.379 0 1 0-.001-6.757 3.379 3.379 0 0 0 0 6.757ZM52.582 27.038v67.378H32.776a2.919 2.919 0 0 1-2.922-2.922V28.498l.107-.397.284-1.063h22.337Z"/><path fill="#4C4C78" d="M55.124 28.101v6.065h-25.27v-5.668l.107-.397h25.163Z"/><path fill="#C8CAD7" d="M137.413 28.498H29.854a2.92 2.92 0 0 1 2.922-2.92h101.707a2.922 2.922 0 0 1 2.93 2.92Z"/><path fill="#EDEDF4" d="M32.777 27.768a.73.73 0 1 0 0-1.461.73.73 0 0 0 0 1.462ZM34.967 27.768a.73.73 0 1 0 0-1.461.73.73 0 0 0 0 1.462ZM37.158 27.768a.73.73 0 1 0 0-1.461.73.73 0 0 0 0 1.462Z"/><path fill="#00BAFC" d="M48.806 30.771H33.632v1.397h15.174v-1.397Z"/><path fill="#00BAFC" d="M48.806 37.585H33.632v1.397h15.174v-1.397ZM48.806 42.402H33.632V43.8h15.174v-1.398ZM48.806 47.22H33.632v1.397h15.174V47.22ZM48.806 52.036H33.632v1.397h15.174v-1.397ZM48.806 56.853H33.632v1.398h15.174v-1.398ZM48.806 61.67H33.632v1.398h15.174v-1.397ZM48.806 66.487H33.632v1.397h15.174v-1.397Z" opacity=".5"/><path fill="#DCE0ED" d="M132.246 35.91h-67.24v.224h67.24v-.225ZM132.246 41.125h-67.24v.225h67.24v-.225ZM132.246 46.342h-67.24v.225h67.24v-.225ZM132.246 51.558h-67.24v.225h67.24v-.225ZM132.246 56.774h-67.24V57h67.24v-.225Z" opacity=".5"/><path fill="#00BAFC" d="M132.248 56.997H64.924V46.74l6.174 3.043 6.39.866 5.607-1.69 6.764-5.247 3.403-1.965 2.487-.479 2.38.128 3.914 1.933 5.319 3.389 4.175.537 3.311-1.14 7.016-5.748 3.582-1.278 3.749.58 3.053 1.763v15.566Z" opacity=".5"/><path fill="#00BAFC" d="M76.658 50.65c-6.062 0-11.665-3.707-11.734-3.755l.166-.248c.087.058 8.71 5.763 16.037 2.905 2.675-1.041 4.574-2.663 6.418-4.23 1.922-1.636 3.737-3.183 6.21-3.854 2.844-.768 5.937-.072 8.292 1.863 2.013 1.655 6.023 4.313 10.26 3.518 2.159-.405 3.98-1.983 5.908-3.653 3.69-3.204 7.517-6.513 14.12-1.762l-.175.242c-6.417-4.61-10.148-1.379-13.754 1.746-1.958 1.699-3.809 3.295-6.048 3.722-4.358.816-8.452-1.893-10.505-3.58-2.281-1.876-5.28-2.547-8.024-1.805-2.41.652-4.193 2.177-6.093 3.791-1.859 1.583-3.782 3.222-6.5 4.282a12.56 12.56 0 0 1-4.578.819Z"/><path fill="#00BAFC" d="M97.362 42.904a1.667 1.667 0 1 0 0-3.333 1.667 1.667 0 0 0 0 3.333Z"/><path fill="url(#b)" d="M55.592 77.458c-2.278-1.312-3.145-1.637-3.145-1.638l-.047-.033a1.896 1.896 0 0 1-.575-.727v-.15.016c.038-.695.53-1.326 1-1.877l1.197-1.41c.138-.142.243-.312.309-.5a1.12 1.12 0 0 0 .033-.299v-.123c0-.35-.017-.7-.029-1.048-.012-.307-.09-.692-.397-.749-.158-.032-.368.024-.449-.112a.252.252 0 0 1-.02-.181v.013c-.002-.005-.002-.01 0-.016.058-.236.096-.477.113-.72a1.032 1.032 0 0 0-.05-.364c-.178-.508-.787-.716-1.326-.812-.54-.096-1.144-.178-1.483-.599a4.898 4.898 0 0 0-.3-.406 1.18 1.18 0 0 0-.552-.272 3.102 3.102 0 0 0-2.004.175c-.26.117-.522.272-.808.256-.286-.017-.551-.225-.845-.274-.473-.081-.927.268-1.16.68-.139.244-.213.52-.215.801v.046c-.005.302.105.595.309.818.203.213.508.358.599.636.034.114.027.237.057.35 0 .016.009.03.013.044l-.016.02a3.56 3.56 0 0 0-.749 2.19 3.633 3.633 0 0 0 2.546 3.444v.107a1.549 1.549 0 0 1-.494 1.206l-3.232 1.297s-1.947-.231-2.648 2.613a4.819 4.819 0 0 0-.12 1.442c.026.43-.034 1.184-.533 2.16-.798 1.564-.617 5.15 1.016 5.506 1.54.335 2.144.196 2.207.18v.062c-.025.674-.27 6.479-1.157 7.189-.248.193-.201.325 0 .413v.105c-.028.425-.165 2.04-.76 2.962-.683 1.061-.605 7.201-.605 7.201l-.47 3.623s.29 2.237 0 2.628c-.259.349-.599 8.627-.677 10.421h-.03a.88.88 0 0 0-.698.426c-.386.62-1.719 1.762-1.719 1.762-.289.412-1.361.806-1.927.992a1.166 1.166 0 0 0-.219.094 1.145 1.145 0 0 0-.486.512.548.548 0 0 0-.051.427c.15.355 3.155.599 3.916.248.599-.278 2.97-.647 3.956-.79a.812.812 0 0 0 .704-.704.465.465 0 0 0-.09-.352c-.189-.234-.286-.872-.33-1.288a.874.874 0 0 0 .222-.132 9.445 9.445 0 0 1 .544-3.8c.725-1.917.943-5.469.762-7.779 0 0 2.212-9.519 3.954-10.407.026.033.871 1.117.979 4.474.108 3.41 1.34 5.647 1.34 5.647s-.543 5.79 0 7.957l-.714 3.413a1.35 1.35 0 0 1-.085-.078l.05.247-.015.072.03.007c.081.427.201 1.171.15 1.609-.028.25-.097.59-.15.925-.074.526-.095 1.036.182 1.147.449.183 3.119.433 3.573-.15a.84.84 0 0 0 .132-.877.877.877 0 0 0-.132-.223s-.709-1.158-.508-1.974a.596.596 0 0 0-.085-.467c.104-1.292.311-2.574.621-3.832.45-1.709 1.41-5.456.707-7.921a4.27 4.27 0 0 0-.09-.284 10.635 10.635 0 0 1-.4-4.156 8.448 8.448 0 0 1 0-3.623c.432-1.987.736-3.934.736-3.934s.24-2.628.03-4.239l-.014-.103.114-.026s-.616-2.734-.834-4.474c-.051-.412-.118-.932-.192-1.487.2-.035.399-.085.592-.15 1.958-.676 2.574-6.785 2.574-6.785v-1.938s.653-2.96-1.632-4.28Zm-14.59 47.172-.097-.051.096.051Z"/><path fill="#65617D" d="M54.41 112.711c.85 2.442-.15 6.406-.599 8.176a24.811 24.811 0 0 0-.599 3.894 8.243 8.243 0 0 1-3.115-.072l.749-3.645c-.53-2.159 0-7.929 0-7.929s-1.198-2.232-1.309-5.629c-.105-3.344-.928-4.426-.955-4.46-1.712.889-3.865 10.373-3.865 10.373.176 2.301-.036 5.841-.75 7.753a9.592 9.592 0 0 0-.53 3.787c-.248.208-.592.244-.964.184-1.01-.163-2.222-1.034-2.222-1.034s.39-10.333.672-10.726c.283-.392 0-2.619 0-2.619l.46-3.61s-.07-6.124.6-7.188c.58-.918.713-2.53.74-2.952v-.105l1.025-1.226s9.912-.75 10.655 0c.182.182.3.599.362 1.12.204 1.605-.03 4.224-.03 4.224s-.3 1.947-.722 3.928a8.598 8.598 0 0 0 0 3.611 10.782 10.782 0 0 0 .397 4.145Z"/><path fill="#A27772" d="M53.79 128.233c-.442.584-3.043.337-3.486.15-.271-.113-.25-.62-.177-1.145.046-.333.114-.673.14-.921.073-.637-.21-1.93-.21-1.93s.584.62.724 0a.68.68 0 0 1 .505-.479 1.32 1.32 0 0 1 .92.057c.46.199 1.226.624 1.088 1.198-.194.813.496 1.966.496 1.966a.893.893 0 0 1 .129.223.85.85 0 0 1-.13.881Z"/><path fill="#000" d="M53.79 128.233c-.442.584-3.043.337-3.486.15-.271-.113-.25-.62-.177-1.144.278.13.749.239 1.545.166.186-.018.372-.024.557-.018a12.87 12.87 0 0 0 1.69-.033.85.85 0 0 1-.13.879ZM44.716 113.419c.177 2.301-.036 5.841-.749 7.753a9.592 9.592 0 0 0-.531 3.787c-.248.208-.592.244-.963.185.214-1.498 1.123-7.927 1.707-13.008.663-5.788 3.77-9.77 3.77-9.77l.62.682c-1.7.888-3.854 10.371-3.854 10.371Z" opacity=".1"/><path fill="#FBBEBE" d="m52.728 76.216-.433 2.124-2.116 3.558-2.61-1.116s-3.55-3.716-1.32-4.247c.268-.057.52-.169.742-.329.437-.331.575-.81.578-1.28a3.937 3.937 0 0 0-.363-1.523l4.566-1.434c-.188.6-.299 1.222-.328 1.85-.034 1.243.427 1.857.806 2.149.141.114.303.198.478.248Z"/><path fill="#000" d="M51.773 71.97c-.189.6-.3 1.22-.328 1.849a3.608 3.608 0 0 1-3.876 1.107 3.935 3.935 0 0 0-.362-1.523l4.566-1.434Z" opacity=".1"/><path fill="#FBBEBE" d="M52.295 71.385a3.61 3.61 0 1 1-3.61-3.61 3.601 3.601 0 0 1 3.61 3.61Z"/><path fill="#000" d="m52.728 76.216-.433 2.124-2.116 3.558-2.61-1.116s-3.55-3.716-1.32-4.247c.268-.057.52-.169.742-.33-.403 1.108 1.26 3.41 1.26 3.41.192.284.637.106.637.106 1.07-.162 3.042-3.241 3.362-3.753.141.114.303.198.478.248ZM54.773 96.806c-.63.15-4.107.912-5.424.72-1.451-.212-4.274-.353-4.274-.353s-1.797.096-2.348-.15v-.105l1.024-1.226s9.912-.75 10.655 0c.194.176.3.591.367 1.114Z" opacity=".1"/><path fill="#FF748E" d="M48.25 79.72s-1.867-2.585-1.163-3.593l-3.155 1.294s-1.9-.231-2.584 2.602c-.11.472-.149.956-.118 1.44.026.426-.033 1.178-.52 2.151-.778 1.558-.598 5.134.992 5.487 1.59.354 2.16.177 2.16.177s-.213 6.478-1.133 7.22c-.92.744 2.347.567 2.347.567s2.821.15 4.272.355 5.522-.749 5.522-.749-.6-2.725-.815-4.46c-.216-1.734-.707-5.427-.707-5.427l3.61-4.89s.637-2.957-1.593-4.265c-2.23-1.31-3.07-1.633-3.07-1.633s-2.246 3.65-3.408 3.827c0 .003-.443.182-.636-.102Z"/><path fill="#000" d="M44.108 80.748s-.034 1.168.178 1.628c.213.46.99 3.008.99 3.008h-1.768s.955-1.025.885-1.521c-.07-.496-.285-3.115-.285-3.115Z" opacity=".1"/><path fill="#FBBEBE" d="M49.348 89.56s-3.908-.956-4.272-1.77c-.364-.812-1.369-2.636-1.369-2.636l.412-.556 1.902 1.498s2.265 1.797 3.327 1.982c1.062.186 0 1.481 0 1.481Z"/><path fill="#000" d="M49.348 89.56s-3.908-.956-4.272-1.77c-.364-.812-1.369-2.636-1.369-2.636l.412-.556 1.902 1.498s2.265 1.797 3.327 1.982c1.062.186 0 1.481 0 1.481Z" opacity=".05"/><path fill="#FBBEBE" d="M52.728 84.96v2.12h-.341a9.92 9.92 0 0 0-4.813 1.247l-.638.353-.172.096-1.098-2.47 1.027-.922h.053c.251.024 1.337.114 1.797-.04.46-.154.98-.62 2.267-.29.635.161 1.176.872 1.797.65l.121-.744Z"/><path fill="#000" d="m56.144 81.101.708.797v1.929s-.6 6.089-2.513 6.761c-1.914.673-5.324-.39-5.324-.39s-.882-2.335-.47-2.478c.412-.142 3.645-.994 3.645-.994s-.046-3.572.662-4.633c0 0-.46-3.328 1.132-3.398 1.592-.07 2.16 2.406 2.16 2.406Z" opacity=".1"/><path fill="#FF748E" d="m56.247 81.101.708.797v1.929s-.599 6.089-2.514 6.761c-1.915.673-5.322-.39-5.322-.39s-.882-2.335-.47-2.478c.411-.142 3.643-.994 3.643-.994s-.045-3.572.663-4.633c0 0-.46-3.328 1.133-3.398 1.593-.07 2.16 2.406 2.16 2.406Z"/><path fill="#000" d="M51.305 72.919c.032-.233.004-.47-.08-.689a.528.528 0 0 0-.56-.323c-.3.07-.435.464-.731.558-.25.08-.524-.097-.644-.33a1.693 1.693 0 0 1-.123-.77v-.889c0-.322-.01-.669-.21-.922-.247-.314-.826-.45-1.213-.439a1.03 1.03 0 0 0-.693.279.898.898 0 0 1-.73.26.63.63 0 0 1-.507-.44v-.012a3.61 3.61 0 1 1 5.37 4.792c.06-.356.1-.715.121-1.075Z" opacity=".1"/><path fill="#7C5C5C" d="M46.32 69.548a.635.635 0 0 1-.51-.44c-.028-.114-.02-.237-.055-.35-.082-.278-.379-.423-.578-.634-.398-.422-.373-1.119-.091-1.628.229-.41.67-.756 1.133-.677.286.051.534.255.824.273.29.018.535-.138.79-.255a2.972 2.972 0 0 1 1.955-.174c.201.04.387.134.54.272.102.13.198.264.287.404.33.42.92.503 1.446.599.526.096 1.122.3 1.294.81.116.335 0 .7-.061 1.048a.3.3 0 0 0 .013.217c.083.137.288.08.45.111.299.063.374.45.384.75.014.347.024.696.029 1.047.009.13-.001.261-.03.388a1.375 1.375 0 0 1-.3.487L52.67 73.2c-.517.623-1.067 1.347-.964 2.152-.245.109-.536-.102-.617-.36-.08-.257-.016-.533.04-.797.093-.455.155-.917.184-1.382a1.4 1.4 0 0 0-.081-.69.53.53 0 0 0-.562-.324c-.3.07-.433.465-.73.559-.25.08-.523-.097-.643-.331a1.711 1.711 0 0 1-.123-.77v-.888c0-.322-.01-.67-.21-.922-.245-.315-.826-.45-1.213-.439a1.03 1.03 0 0 0-.693.278.898.898 0 0 1-.738.261Z"/><path fill="#000" d="m47.135 80.66 1.11 4.552s.873-.004-1.11-4.552ZM50.924 79.897s-1.453 2.378-.885 4.836l.27.02s-.483-1.139.615-4.856ZM51.843 93.35s1.782-.59 1.912.778c0 0-.337-.939-1.912-.778ZM46.693 85.49s-.353 2.48.283 3.47a7.778 7.778 0 0 1-3.115.424l-.213-3.893h3.045Z" opacity=".1"/><path fill="#000" d="m46.936 88.68-.172.096-1.098-2.47 1.027-.922h.053c-.017.12-.303 2.248.19 3.296Z" opacity=".1"/><path fill="#FF748E" d="M46.693 85.384s-.353 2.479.283 3.47a7.78 7.78 0 0 1-3.114.424l-1.239-3.894h4.07Z"/><path fill="#A27772" d="M43.63 126.726a.8.8 0 0 1-.687.701c-.96.15-3.277.509-3.86.788-.75.355-3.681.106-3.824-.247a.566.566 0 0 1 .051-.427 1.169 1.169 0 0 1 .688-.599c.554-.186 1.599-.577 1.88-.987 0 0 1.303-1.141 1.675-1.757a.85.85 0 0 1 .681-.423c.31-.015.654.142.797.82 0 0 1.698.969 2.158.12 0 0 .07 1.304.352 1.662a.474.474 0 0 1 .09.349Z"/><path fill="#000" d="M43.63 126.726a.8.8 0 0 1-.687.701c-.96.15-3.277.509-3.86.788-.75.355-3.681.106-3.824-.247a.565.565 0 0 1 .051-.427c.101-.215.267-.393.475-.509.48.317 1.542.629 3.881.264 2.232-.349 3.335-.691 3.875-.923a.467.467 0 0 1 .09.353Z" opacity=".1"/><g fill="#000" opacity=".1"><path d="M53.29 68.844v-.018c.07-.262.106-.531.109-.803a5.08 5.08 0 0 1-.11.644.391.391 0 0 0 0 .177ZM51.225 72.157c.055.127.085.265.086.404a1.216 1.216 0 0 0-.086-.563.532.532 0 0 0-.562-.325c-.3.07-.433.466-.73.56-.25.08-.523-.099-.643-.332a1.672 1.672 0 0 1-.123-.77v-.887c0-.322-.01-.67-.21-.922-.247-.316-.826-.45-1.214-.44a1.023 1.023 0 0 0-.692.28.899.899 0 0 1-.73.259.628.628 0 0 1-.508-.44c-.03-.114-.022-.236-.056-.35-.082-.278-.379-.422-.578-.633a1.166 1.166 0 0 1-.3-.749 1.212 1.212 0 0 0 .3.908c.2.21.496.356.578.635.035.112.026.235.056.349a.633.633 0 0 0 .509.44.898.898 0 0 0 .729-.26c.188-.175.434-.274.69-.278.388-.012.968.126 1.215.44.199.254.208.6.21.923v.887c-.02.263.021.527.122.77.12.234.394.411.644.332.3-.095.427-.488.73-.56a.535.535 0 0 1 .563.322ZM54.134 71.182a1.393 1.393 0 0 1-.3.488l-1.169 1.403c-.49.592-1.012 1.276-.975 2.03.036-.691.519-1.32.975-1.87l1.17-1.404c.132-.14.234-.306.3-.487.028-.128.038-.259.03-.39a.97.97 0 0 1-.03.23ZM51.082 74.867a.832.832 0 0 1-.036-.19.946.946 0 0 0 .036.349c.08.258.372.469.617.36 0-.053-.01-.105-.012-.15-.242.097-.531-.117-.605-.369Z" opacity=".1"/></g><path fill="#000" d="M39.325 124.515s.37.65 1.712.076ZM50.654 124.67s1.158 1.362 2.615.45ZM54.02 108.569s-.817.51-.844.802c-.027.293.422-.212.422-.212l.423-.59ZM54.343 112.483a1.699 1.699 0 0 1-1.007.393c-.61.027-.56.823-.16.584.4-.24 1.167-.977 1.167-.977ZM54.498 112.994s-.392 1.926-.71 1.555Z" opacity=".1"/><g fill="#DCE0ED" opacity=".5"><path d="M80.832 68.684h-9.884v2.096h9.884v-2.096ZM103.527 68.684h-9.883v2.096h9.883v-2.096ZM126.222 68.684h-9.884v2.096h9.884v-2.096Z" opacity=".5"/></g><path fill="#00BAFC" d="M143.063 120.676c2.227 0 4.033-.305 4.033-.681 0-.376-1.806-.681-4.033-.681-2.227 0-4.033.305-4.033.681 0 .376 1.806.681 4.033.681ZM17.644 129.28c2.227 0 4.033-.305 4.033-.682 0-.376-1.806-.681-4.033-.681-2.227 0-4.033.305-4.033.681 0 .377 1.806.682 4.033.682Z" opacity=".1"/><path fill="#00BAFC" d="M134.236 128.315c3.326 0 6.022-.456 6.022-1.018 0-.563-2.696-1.018-6.022-1.018-3.325 0-6.021.455-6.021 1.018 0 .562 2.696 1.018 6.021 1.018Z"/><path fill="#00BAFC" d="M136.726 125.633c.275-.224.475-.526.573-.867.075-.344-.072-.756-.399-.882-.369-.141-.763.114-1.062.373-.3.259-.64.551-1.031.497a1.565 1.565 0 0 0 .486-1.469.614.614 0 0 0-.135-.299c-.205-.219-.575-.126-.821.046-.778.548-.996 1.605-1 2.558-.078-.343-.012-.701-.014-1.049-.001-.347-.098-.748-.395-.933a1.2 1.2 0 0 0-.599-.14c-.35-.014-.741.021-.979.277-.3.319-.22.852.037 1.198.258.346.653.569 1.014.811.29.174.538.41.725.691.021.04.039.081.052.124h2.196a6.17 6.17 0 0 0 1.352-.936ZM17.828 118.49s.824 1.077-.379 2.696c-1.202 1.618-2.194 2.995-1.797 4.008 0 0 1.815-3.017 3.295-3.059 1.48-.042.506-1.83-1.119-3.645Z"/><path fill="#000" d="M17.829 118.49c.072.104.129.218.169.338 1.44 1.693 2.207 3.273.822 3.311-1.29.038-2.836 2.344-3.208 2.927.012.045.027.089.044.133 0 0 1.815-3.018 3.294-3.06 1.48-.041.503-1.834-1.121-3.649Z" opacity=".1"/><path fill="#FFD037" d="M19.358 119.862c0 .379-.042.686-.095.686-.052 0-.094-.3-.094-.686 0-.387.052-.201.105-.201.052 0 .084-.178.084.201Z"/><path fill="#FFD037" d="M19.883 120.314c-.332.181-.623.29-.647.244-.024-.046.223-.231.556-.412.332-.181.202-.049.226 0 .024.05.197-.013-.135.168Z"/><path fill="#00BAFC" d="M13.485 118.49s-.824 1.077.378 2.696c1.203 1.618 2.194 2.995 1.797 4.008 0 0-1.813-3.017-3.294-3.059-1.481-.042-.506-1.83 1.119-3.645Z"/><path fill="#000" d="M13.484 118.49a1.344 1.344 0 0 0-.17.338c-1.44 1.693-2.207 3.273-.822 3.311 1.29.038 2.837 2.344 3.208 2.927-.012.045-.027.09-.045.133 0 0-1.813-3.018-3.294-3.06-1.481-.041-.502-1.834 1.123-3.649Z" opacity=".1"/><path fill="#FFD037" d="M11.953 119.862c0 .379.044.686.096.686.052 0 .094-.3.094-.686 0-.387-.052-.201-.104-.201-.053 0-.086-.178-.086.201Z"/><path fill="#FFD037" d="M11.43 120.314c.332.181.62.29.646.244.026-.046-.223-.231-.555-.412-.333-.181-.203-.049-.228 0-.025.05-.196-.013.136.168Z"/><path fill="#A8A8A8" d="M12.22 125.058s2.3-.072 2.995-.564c.695-.493 3.538-1.085 3.71-.292.173.792 3.457 3.937.86 3.958-2.596.02-6.033-.405-6.725-.826-.692-.42-.84-2.276-.84-2.276Z"/><path fill="#000" d="M19.826 127.884c-2.596.021-6.035-.404-6.727-.825-.525-.322-.736-1.474-.805-2.004h-.078s.15 1.854.838 2.276c.69.423 4.13.846 6.726.826.749 0 1.008-.273.994-.668-.105.242-.39.39-.948.395Z" opacity=".2"/><path fill="#00BAFC" d="M70.25 83.325c0-3.06 2.49-5.412 5.552-5.412h.043v-1.392h-.043c-3.83 0-6.946 2.975-6.946 6.804a6.928 6.928 0 0 0 2.38 5.227l.987-.987a5.54 5.54 0 0 1-1.974-4.24Z"/><path fill="#00BAFC" d="M75.984 76.522v1.393a5.55 5.55 0 1 1-3.622 9.789l-.99.987a6.94 6.94 0 0 0 11.062-2.767 6.943 6.943 0 0 0-6.453-9.402h.003ZM121.51 77.843c3.06 0 5.412 2.49 5.412 5.552v.044h1.392v-.043c0-3.83-2.975-6.946-6.804-6.946a6.926 6.926 0 0 0-5.227 2.38l.987.986a5.542 5.542 0 0 1 4.24-1.973Z" opacity=".5"/><path fill="#00BAFC" d="M128.313 83.578h-1.393a5.55 5.55 0 0 1-9.662 3.693 5.547 5.547 0 0 1-.127-7.315l-.982-.987a6.94 6.94 0 0 0 6.055 11.462 6.943 6.943 0 0 0 6.114-6.853h-.005Z"/><path fill="#00BAFC" d="m101.323 76.93-.277 1.386c2.038.822 3.341 2.82 3.341 5.148a5.556 5.556 0 0 1-2.909 4.884 5.555 5.555 0 0 1-7.63-2.446 5.552 5.552 0 0 1 2.762-7.522l-.617-1.25a6.942 6.942 0 1 0 9.792 6.334c0-3.005-1.779-5.569-4.462-6.535Z" opacity=".5"/><path fill="#00BAFC" d="M99.015 77.832c.665 0 1.323.137 1.934.402l.277-1.386a6.128 6.128 0 0 0-2.21-.409c-.982 0-1.952.21-2.846.613l.623 1.247a5.494 5.494 0 0 1 2.222-.467Z"/></g><defs><linearGradient id="b" x1="46.139" x2="46.139" y1="128.598" y2="65.355" gradientUnits="userSpaceOnUse"><stop stop-color="gray" stop-opacity=".25"/><stop offset=".54" stop-color="gray" stop-opacity=".12"/><stop offset="1" stop-color="gray" stop-opacity=".1"/></linearGradient><clipPath id="a"><path fill="#fff" d="M.39 0h169.22v130H.39z"/></clipPath></defs></svg>