<svg xmlns="http://www.w3.org/2000/svg" width="180" height="130" fill="none"><g clip-path="url(#a)"><path fill="#00BAFC" d="M57.665 4.904C62.496.605 70.077-.276 76.976.066c21.674 1.077 41.238 11.54 58.16 23.377 6.127 4.284 12.158 8.901 16.134 14.802 8.102 12.01 5.695 28.65-5.561 38.544-3.831 3.368-8.474 5.952-13.24 8.236-8.475 4.068-17.62 7.334-27.237 8.266-6.86.662-13.804.124-20.622-.8-19.052-2.588-37.753-8.302-53.426-18.068-6.875-4.288-13.356-9.617-16.19-16.555-2.833-6.937-1.02-15.724 6-19.83 2.904-1.698 6.376-2.465 9.773-3.184 5.003-1.06 10.085-2.105 14.6-4.259 4.663-2.225 10.184-6.53 9.26-11.456-.99-5.294-1.785-9.936 3.038-14.235ZM141.152 118.215c9.995 0 18.097-.52 18.097-1.161s-8.102-1.16-18.097-1.16c-9.995 0-18.097.519-18.097 1.16 0 .641 8.102 1.161 18.097 1.161ZM94.113 110.448c9.995 0 18.097-.52 18.097-1.161s-8.102-1.161-18.097-1.161c-9.995 0-18.097.52-18.097 1.161s8.102 1.161 18.097 1.161ZM27.673 128.859c9.994 0 18.097-.52 18.097-1.161s-8.103-1.16-18.097-1.16c-9.995 0-18.098.519-18.098 1.16 0 .641 8.103 1.161 18.098 1.161ZM62.062 130c4.112 0 7.447-.214 7.447-.478s-3.335-.478-7.447-.478c-4.113 0-7.447.214-7.447.478s3.334.478 7.447.478ZM173.65 117.592c3.205 0 5.803-.167 5.803-.372 0-.206-2.598-.372-5.803-.372s-5.803.166-5.803.372c0 .205 2.598.372 5.803.372ZM120.388 109.783c2.718 0 4.92-.141 4.92-.316 0-.174-2.202-.316-4.92-.316-2.717 0-4.92.142-4.92.316 0 .175 2.203.316 4.92.316Z" opacity=".1"/><path fill="#00BAFC" d="M174.485 108.292s.777 1.017-.357 2.551c-1.135 1.534-2.074 2.829-1.695 3.784 0 0 1.714-2.848 3.108-2.888 1.394-.04.48-1.733-1.056-3.447Z"/><path fill="#000" d="M174.485 108.292c.069.098.125.205.165.319 1.361 1.599 2.085 3.09.777 3.128-1.218.035-2.68 2.214-3.031 2.764.012.042.026.084.042.124 0 0 1.714-2.848 3.108-2.888 1.394-.04.475-1.733-1.061-3.447Z" opacity=".1"/><path fill="#FFD037" d="M175.931 109.586c0 .359-.039.648-.089.648-.049 0-.089-.289-.089-.648 0-.358.05-.188.099-.188.05 0 .079-.169.079.188Z"/><path fill="#FFD037" d="M176.428 110.015c-.314.165-.587.274-.612.231-.025-.043.212-.218.526-.39.314-.172.19-.046.213 0 .023.046.187-.013-.127.159Z"/><path fill="#00BAFC" d="M170.383 108.292s-.777 1.017.359 2.551c1.136 1.534 2.071 2.829 1.693 3.784 0 0-1.713-2.848-3.108-2.888-1.396-.04-.478-1.733 1.056-3.447Z"/><path fill="#000" d="M170.383 108.292c-.07.098-.126.205-.165.319-1.361 1.599-2.087 3.09-.779 3.128 1.218.035 2.682 2.214 3.031 2.764a1.29 1.29 0 0 1-.042.124s-1.713-2.848-3.108-2.888c-1.395-.04-.471-1.733 1.063-3.447Z" opacity=".1"/><path fill="#FFD037" d="M168.938 109.586c0 .359.039.648.089.648.049 0 .091-.289.091-.648 0-.358-.052-.188-.101-.188-.05 0-.079-.169-.079.188Z"/><path fill="#FFD037" d="M168.442 110.015c.315.165.589.274.612.231.023-.043-.211-.218-.526-.39-.314-.172-.19-.046-.213 0-.023.046-.187-.013.127.159Z"/><path fill="#A8A8A8" d="M169.194 114.495s2.173-.066 2.828-.532c.654-.466 3.341-1.024 3.505-.276.163.747 3.263 3.718.811 3.738-2.452.02-5.699-.382-6.353-.779-.655-.397-.791-2.151-.791-2.151Z"/><path fill="#000" d="M176.373 117.165c-2.452.02-5.699-.382-6.353-.78-.496-.303-.696-1.391-.762-1.893h-.072s.137 1.752.79 2.149 3.9.799 6.354.779c.707 0 .952-.257.939-.63-.1.23-.369.37-.896.375Z" opacity=".2"/><path fill="#00BAFC" d="M121.26 101.834s.662.868-.307 2.18c-.969 1.313-1.772 2.421-1.448 3.239 0 0 1.464-2.437 2.658-2.48 1.194-.043.407-1.474-.903-2.939Z"/><path fill="#000" d="M121.26 101.834c.058.084.104.176.136.273 1.157 1.367 1.784 2.645.661 2.675-1.041.029-2.293 1.894-2.592 2.366.01.036.022.071.036.105 0 0 1.465-2.437 2.659-2.48 1.194-.043.41-1.474-.9-2.939Z" opacity=".1"/><path fill="#FFD037" d="M122.496 102.941c0 .306-.035.554-.076.554-.042 0-.078-.248-.078-.554 0-.305.043-.165.086-.165s.068-.14.068.165Z"/><path fill="#FFD037" d="M122.921 103.307c-.269.145-.496.235-.524.197-.028-.038.182-.185.45-.331.268-.145.165-.04.183 0 .018.04.159-.013-.109.134Z"/><path fill="#00BAFC" d="M117.749 101.834s-.662.868.306 2.18c.967 1.313 1.774 2.421 1.449 3.239 0 0-1.466-2.437-2.66-2.48-1.193-.043-.408-1.474.905-2.939Z"/><path fill="#000" d="M117.749 101.834a1.06 1.06 0 0 0-.137.273c-1.157 1.367-1.784 2.645-.661 2.675 1.043.029 2.293 1.894 2.592 2.366-.01.034-.021.071-.035.105 0 0-1.466-2.437-2.66-2.48-1.194-.043-.412-1.474.901-2.939Z" opacity=".1"/><path fill="#FFD037" d="M116.513 102.941c0 .306.034.554.077.554s.076-.248.076-.554c0-.305-.043-.165-.086-.165s-.067-.14-.067.165Z"/><path fill="#FFD037" d="M116.089 103.307c.268.145.496.235.523.197.026-.038-.18-.185-.45-.331-.269-.145-.165-.04-.183 0-.019.04-.159-.013.11.134Z"/><path fill="#A8A8A8" d="M116.724 107.141s1.858-.058 2.418-.456c.561-.399 2.861-.877 3-.237.138.64 2.792 3.183.694 3.199-2.098.017-4.876-.33-5.435-.661-.558-.331-.677-1.845-.677-1.845Z"/><path fill="#000" d="M122.874 109.424c-2.1.018-4.877-.33-5.436-.661-.425-.26-.595-1.191-.652-1.62h-.062s.117 1.498.677 1.838c.561.341 3.337.685 5.435.661.605 0 .815-.219.804-.539-.078.205-.316.318-.766.321Z" opacity=".2"/><g opacity=".8"><path fill="#E74D89" d="M24.979 102.799a12.364 12.364 0 1 1-.01 24.727 12.364 12.364 0 0 1 .01-24.727Z" opacity=".8"/><path fill="#B2215A" d="M24.979 128.406a13.245 13.245 0 1 1 13.26-13.25 13.264 13.264 0 0 1-13.26 13.25Zm11.178-11.436a16.688 16.688 0 0 0-7.055-.496 48.28 48.28 0 0 1 2.204 8.068 11.24 11.24 0 0 0 4.851-7.572Zm-6.754 8.617a47.195 47.195 0 0 0-2.413-8.576.206.206 0 0 1-.073.02c-6.392 2.227-8.682 6.652-8.889 7.065a11.277 11.277 0 0 0 6.944 2.382c1.52.011 3.027-.292 4.425-.891h.006Zm-12.834-2.848c.257-.435 3.366-5.572 9.209-7.469.143-.051.299-.092.444-.133-.28-.644-.59-1.285-.922-1.917-5.655 1.688-11.145 1.616-11.643 1.606 0 .114-.01.228-.01.34a11.31 11.31 0 0 0 2.921 7.573Zm-2.674-9.882a41.884 41.884 0 0 0 10.467-1.378 72.622 72.622 0 0 0-4.196-6.537 11.355 11.355 0 0 0-6.27 7.915Zm8.432-8.68a59.493 59.493 0 0 1 4.228 6.613c4.029-1.511 5.727-3.791 5.935-4.08a11.284 11.284 0 0 0-7.511-2.849c-.893.006-1.783.114-2.652.322v-.006Zm11.416 3.842c-.238.322-2.134 2.756-6.319 4.464.258.539.518 1.088.756 1.637.082.197.165.393.25.58 3.77-.478 7.509.289 7.883.362a11.281 11.281 0 0 0-2.57-7.045v.002Z" opacity=".8"/></g><path fill="url(#b)" d="M55.64 77.426c-.3-.376-.64-2.956-.64-2.956l-1.323-6.577-.684-3.79s-.165-4.786-3.161-7.16l-.233-.184v-.127a4.342 4.342 0 0 0-.3-1.348.955.955 0 0 1-.107-.451.46.46 0 0 1 .06-.175c.14-.193.325-.348.538-.453.544-.331 1.007-.852 1.133-1.468v-.042c0-.026 0-.054.011-.083.012-.028 0-.03 0-.046a.726.726 0 0 0 0-.086V52.32c0-.038-.008-.078-.014-.116v-.008a1.338 1.338 0 0 0-.767-1.038.497.497 0 0 0 .338-.283.653.653 0 0 0 .07-.253v-.02a.796.796 0 0 0 0-.11v-.034a.733.733 0 0 0-.023-.107v-.028l-.01-.023c-.111-.318-.374-.563-.6-.817-1.306-1.463-1.56-3.522-1.915-5.43-.197-1.058-.569-2.263-1.594-2.665a7.94 7.94 0 0 0-.883-.225c-.909-.241-1.653-.876-2.542-1.187a3.84 3.84 0 0 0-1.87-.157c-.478.08-.878.314-1.34.425-.992.243-2.195-.028-2.976.774-.547.557-.59 1.407-.86 2.133-.508 1.347-1.831 2.327-2.173 3.728-.22.903.008 1.818.248 2.726.18.61.302 1.235.363 1.868.01.16.01.32 0 .48-.035.466-.14.924-.312 1.359-1.118.413-2.273.9-2.36 1.175-.165.541-2.863 2.082-2.863 2.082s-1.025.875-1.025 1.207c0 .332-.34 1.374-.556 1.374-.215 0-.64 4.204-.64 4.204v4.372s-1.578 5.161-1.942 9.741c0 0-.638 2.925.403 4.603.136.228.31.43.514.6l.533 1.39c.187-.312.425-.591.704-.826.027.174.056.377.093.603.044.285.097.607.165.953-.33.517-1.13 1.6-2.088 2.005-.886.374.268 1.362 1.065 1.94-.212 1.053-.518 2.346-.766 2.514-.428.291-1.794 3.955-1.794 3.955s-2.69 6.283 1.176 6.994c3.865.711 5.836-.958 5.836-.958h.926s1.126-.635 1.157-1.947c.63-.52 1.597-1.343 1.794-1.675.197-.332-.345-1.414-.69-2.004l.092-.165s3.675-4.704 4.145-4.205c.47.5.768 1.29.555 1.79l.202 2.883v4.495s-.528 2.04 0 2.249c.527.208 0 .992 0 .992s.197.916.233 1.207c.019.374.019.749 0 1.124l-.177 4.497-.342 6.659s-.384.543-.085.916c.3.374.166 1.25.085 1.416-.081.165-.128 1.541-.128 1.541s-1.24 1.289-.256 1.623l.038.012c-.407.377-.412 1.225-.38 1.488.031.263-.261 1.322-.481 1.923a1.49 1.49 0 0 1-.202.428c-.15.106 0 1.271 0 1.271s4.805.395 5.211 0c.166-.154.124-.527.009-.959a9.92 9.92 0 0 0-.734-1.81c-.28-.519-.15-1.186-.15-1.186v-.496c.323.052.533.081.533.081s.599-.496.342-.957c-.256-.461.47-3.037.47-3.037s.812-2.915.812-3.206c0-.291 1.068-4.079 1.068-4.079s1.58-6.702.812-9.867c0 0 .682-.79.596-.992-.086-.201-.284-1.083.009-1.456.292-.374 1.53-5.038 1.873-5.828.157-.366.55-1.374.928-2.358 1.7-.255 3.728-.724 3.728-.724s-.303-1.288-.528-2.604l.185-.904.067-.313c.152.15.288.316.405.496l.34-1.665s.038-.058.103-.165c.398-.623 1.85-2.864 2.546-3.543.812-.806.3-4.387 0-4.76Z"/><path fill="#925978" d="M45.276 49.572h-4.713v5.29h4.712v-5.29Z"/><path fill="#000" d="M45.276 49.572h-4.713v5.29h4.712v-5.29Z" opacity=".1"/><path fill="#FF6484" d="M33.659 95.163s1.199 1.9.91 2.397c-.29.496-2.27 2.108-2.27 2.108l-.586-3.968 1.946-.537Z"/><path fill="#575988" d="m29.939 101.28.874-.124h.896s1.19-.685 1.123-2.108c-.068-1.424 0-2.81 0-2.81l-2.893 5.042Z"/><path fill="#000" d="m29.939 101.28.874-.124h.896s1.19-.685 1.123-2.108c-.068-1.424 0-2.81 0-2.81l-2.893 5.042Z" opacity=".1"/><path fill="#575988" d="m31.71 81.894-4.96 5.456s-.579 3.597-.992 3.886c-.413.29-1.726 3.926-1.726 3.926s-2.6 6.242 1.137 6.945c3.738.702 5.642-.951 5.642-.951l3.174-5.746s3.556-4.67 4.01-4.174c.456.496.745 1.281.538 1.777l.194 2.852v4.464s-.51 2.026 0 2.232c.509.207 0 .992 0 .992s.191.91.226 1.199c.035.289 0 1.116 0 1.116l-.165 4.464-.33 6.613s-.373.538-.084.91c.29.372.166 1.24.083 1.405-.083.165-.124 1.529-.124 1.529s-1.198 1.282-.248 1.612c.95.331 3.72.744 3.72.744s.579-.496.33-.95c-.247-.455.456-3.018.456-3.018s.785-2.893.785-3.182c0-.29 1.033-4.051 1.033-4.051s1.53-6.655.785-9.796c0 0 .662-.785.58-.992-.084-.207-.277-1.075 0-1.447.275-.372 1.487-5.001 1.818-5.787.33-.785 1.736-4.587 1.736-4.587v-7.027l-17.618-.414Z"/><path fill="#FFC5CB" d="m46.517 56.97-2.854 5.392-.752 1.419-.114.216-7.357.29s-.21-.465-.508-1.186c-.514-1.248-1.291-3.268-1.683-4.973a10.238 10.238 0 0 1-.215-1.238c-.11-1.032.056-1.768.718-1.83.167-.016.335.002.495.05.46.136.942.183 1.419.138 1.746-.212 2.257-2.055 2.343-3.788 0-.122.011-.245.013-.365 0-.376 0-.74-.025-1.073a15.03 15.03 0 0 0-.195-1.69 7.178 7.178 0 0 1 1.366-.504c1.395-.358 3.361-.348 3.388 2.53-.003.637.06 1.273.188 1.897.074.356.194.701.355 1.027.485.93 1.158 1.032 1.474 1.02a.823.823 0 0 0 .173-.018l1.77 2.687Z"/><path fill="#000" d="M39.173 60.092c.102.293.154.6.154.911.03.327.023.656-.024.98a1.39 1.39 0 0 1-.46.849M41.255 52.675a4.423 4.423 0 1 0 0-8.845 4.423 4.423 0 0 0 0 8.845Z" opacity=".1"/><path fill="#FFC5CB" d="M45.676 48.087a4.421 4.421 0 1 1-8.704-1.105 4.421 4.421 0 0 1 8.702 1.105h.002Z"/><path fill="#000" d="M34.155 59.12s1.57 4.092 4.878 3.43c0 0 3.338.262 5.249-2.19 1.911-2.452 2.025 14.053 2.025 14.053l-.744 10.954s-5.328 3.182-7.643 2.769c-2.315-.413-3.43-1.653-3.43-1.653s-2.44-2.274-3.1-2.563c-.662-.29.289-14.384.289-14.384l.785-5.29 1.691-5.126Z" opacity=".1"/><path fill="#E8F4FF" d="M34.155 58.79s1.57 4.091 4.878 3.43c0 0 3.338.261 5.249-2.19 1.911-2.453 2.025 14.053 2.025 14.053l-.744 10.953s-5.328 3.183-7.643 2.77c-2.315-.414-3.43-1.654-3.43-1.654s-2.44-2.273-3.1-2.563c-.662-.289.289-14.384.289-14.384l.785-5.29 1.691-5.126Z"/><path fill="#000" d="M33.99 81.894s3.554 3.968 3.348 4.382c-.207.413-3.43-3.183-3.348-4.382ZM33.378 72.028s1.136 1.587 1.847 1.421Z" opacity=".1"/><path fill="#000" d="M35.833 55.11s0 .049-.012.138c-.038.508-.18 2.348-.372 4.398-.107 1.157-.23 2.37-.355 3.455-.205 1.764-.423 3.176-.608 3.376-.538.579-.331 6.035-.331 6.035v6.903s-.453 2.19-.827 2.686c-.373.496-1.286 2.356-2.017 2.604-.257.141-.488.325-.683.544-.661.662-1.597 1.764-2.314 2.634-.592.726-1.03 1.286-1.03 1.286s-2.894-1.818-1.654-2.356c.928-.401 1.695-1.476 2.02-1.984.111-.165.166-.282.166-.282.059-.386.146-.766.263-1.138.105-.35.259-.684.458-.992a1.13 1.13 0 0 1 .684-.517c1.075-.207 1.612-10.416 1.612-10.416l-3.306-7.215-.331-.721s.413-4.175.62-4.175c.207 0 .537-1.033.537-1.364 0-.33.992-1.199.992-1.199s2.622-1.534 2.788-2.071c.087-.283 1.29-.794 2.409-1.214 1.005-.377 1.942-.681 1.942-.681.548.833-.651 2.267-.651 2.267Z" opacity=".1"/><path fill="#FF6484" d="M35.668 55.11s0 .049-.012.138c-.038.508-.18 2.348-.372 4.398-.107 1.157-.23 2.37-.355 3.455-.205 1.764-.423 3.176-.608 3.376-.538.579-.331 6.035-.331 6.035v6.903s-.453 2.19-.827 2.686c-.373.496-1.286 2.356-2.017 2.604-.257.141-.488.325-.683.544-.661.662-1.597 1.764-2.315 2.634-.591.726-1.03 1.286-1.03 1.286s-2.893-1.818-1.653-2.356c.928-.401 1.695-1.476 2.02-1.984.111-.165.166-.282.166-.282.058-.386.146-.766.263-1.138.105-.35.259-.684.458-.992a1.13 1.13 0 0 1 .684-.517c1.075-.207 1.612-10.416 1.612-10.416l-3.306-7.215-.331-.721s.413-4.175.62-4.175c.207 0 .537-1.033.537-1.364 0-.33.992-1.199.992-1.199s2.622-1.534 2.788-2.071c.087-.283 1.29-.794 2.409-1.214 1.005-.377 1.942-.681 1.942-.681.548.833-.651 2.267-.651 2.267Z"/><path fill="#000" d="m52.108 64.607-3.57 4.185s3.1 16.079 2.729 16.823a.643.643 0 0 0-.055.195 4.94 4.94 0 0 0 .022 1.157c.043.405.109.855.183 1.303a50.96 50.96 0 0 0 .511 2.586s-4.175.992-5.456.868c-1.281-.124-.537-2.191-.33-3.142.206-.95-1.406-2.281-1.406-2.281l-2.273-9.333s-.166-2.067-.662-3.059-.041-2.067-.206-3.472c-.118-1.002.603-4.583 1.147-6.665.207-.792.389-1.365.496-1.5a.101.101 0 0 1 .017-.019c.33-.29 0-1.984 0-1.984s.785-4.464.702-4.836c-.046-.212.213-.73.447-1.14.177-.308.339-.555.339-.555s1.598 1.014 4.34 3.23l.248.2c2.893 2.357 3.058 7.11 3.058 7.11l-.28.33Z" opacity=".1"/><path fill="#FF6484" d="m52.274 64.607-3.57 4.185s3.1 16.079 2.729 16.823a.643.643 0 0 0-.055.195 4.94 4.94 0 0 0 .022 1.157c.043.405.109.855.183 1.303a50.96 50.96 0 0 0 .511 2.586s-4.175.992-5.456.868c-1.281-.124-.537-2.191-.33-3.142.206-.95-1.406-2.281-1.406-2.281l-2.273-9.333s-.166-2.067-.662-3.059-.041-2.067-.206-3.472c-.118-1.002.603-4.583 1.147-6.665.207-.792.389-1.365.496-1.5a.105.105 0 0 1 .017-.019c.33-.29 0-1.984 0-1.984s.785-4.464.702-4.836c-.046-.212.214-.73.447-1.14.177-.308.339-.555.339-.555s1.598 1.014 4.34 3.23l.248.2c2.893 2.357 3.058 7.11 3.058 7.11l-.28.33Z"/><path fill="#000" d="M44.737 66.85c-.042.33.991 17.897 2.066 18.93l-2.066-18.93Z" opacity=".1"/><path fill="#FFC5CB" d="M30.8 91.277c-1.157.728-2.04-1.187-2.645-3.394-.283-1.037-.496-2.138-.661-3.06a36.753 36.753 0 0 1-.156-.946c-.114-.737-.165-1.22-.165-1.22l1.217-.245 1.345-.27.166 1.52.078.69s.211.35.496.897c.798 1.6 2.154 4.89.325 6.028ZM52.052 85.954l-.29 1.426-.18.898-.01.045s-3.612 4.897-4.77 2.872c-.884-1.548 1.274-4.086 2.339-5.195.33-.344.555-.55.555-.55l1.681.36.675.144Z"/><path fill="#FF6484" d="M42.132 127.485c-.394.392-5.043 0-5.043 0s-.145-1.157 0-1.261c.088-.131.154-.275.195-.427.213-.603.496-1.653.466-1.908-.04-.35-.02-1.755.93-1.653 0 0 1.24-2.521 2.605.579v.744c-.068.398-.018.807.144 1.177.294.575.532 1.176.711 1.797.112.428.145.797-.008.952Z"/><path fill="#E8F4FF" d="M42.132 127.485c-.394.392-5.043 0-5.043 0s-.145-1.157 0-1.261c.088-.131.154-.275.195-.427.615-.263 1.452-.517 2.037-.296.74.281 2.103.774 2.81 1.032.121.428.154.797 0 .952Z"/><path fill="#000" d="M37.999 51.46c.117.473.28.95.286 1.433.01.662-.276 1.3-.58 1.895-.348.681-.74 1.412-.624 2.168.063.286.145.568.246.843a3.702 3.702 0 0 1-.234 2.665c-.272.547-.827 1.076-1.42.9-.045-.584-.118-1.22-.394-1.718a1.639 1.639 0 0 0-.442-.52c-.43-.33-1.023-.4-1.413-.773a1.19 1.19 0 0 1-.184-.225 1.727 1.727 0 0 1-.231-1.065c0-.056.011-.112.021-.165.08-.403.215-.792.4-1.158.103-.221.21-.443.318-.66a10.44 10.44 0 0 0 .625-1.535c1.005-.377 1.943-.681 1.943-.681.55.826-.649 2.266-.649 2.266s0 .048-.011.138c1.746-.232 2.263-2.075 2.343-3.808ZM40.476 45.24c-.483.154-.944.462-1.158.924-.228.513-.11 1.105-.165 1.664a2.093 2.093 0 0 1-.07.362c-.204.686-.848 1.17-1.1 1.832-.019.05-.035.099-.05.152-.067.26-.079.532-.035.797a4.42 4.42 0 1 1 5.605.922c.187-.557.383-1.112.536-1.681.357-1.338.418-2.884-.424-3.983a2.944 2.944 0 0 0-3.14-.989ZM49.113 58.627c-.145.528-.516 1.106-1.062 1.082-.259-.012-.495-.166-.755-.19-.369-.034-.718.205-.94.495-.2.313-.375.641-.522.982-.406.79-1.203 1.502-2.083 1.378l-.09-.017a1.349 1.349 0 0 1-.264-.08c-.788-.331-1.215-1.347-1.187-2.244.033-1.024.462-1.993.602-3.008.13-.936.012-1.89.113-2.829.034-.31.09-.617.165-.919.484.93 1.157 1.032 1.473 1.02.177-.309.339-.555.339-.555s1.599 1.013 4.34 3.229a4.418 4.418 0 0 1-.129 1.656Z" opacity=".1"/><path fill="#925978" d="M42.88 40.326c.857.31 1.58.94 2.46 1.18.289.056.574.13.854.22.992.4 1.353 1.596 1.543 2.646.342 1.895.588 3.938 1.852 5.392.224.258.486.505.59.826.104.321-.037.764-.372.835.575.243.858.954.737 1.568-.12.613-.569 1.119-1.096 1.456-.246.166-.544.33-.577.622a.968.968 0 0 0 .104.45c.34.883.39 1.853.14 2.767-.145.526-.515 1.106-1.06 1.082-.26-.012-.497-.166-.755-.19-.37-.034-.717.204-.94.495a6.63 6.63 0 0 0-.523.982c-.405.79-1.202 1.502-2.083 1.378-1.014-.144-1.572-1.323-1.541-2.341.032-1.019.463-1.993.603-3.008.13-.936.01-1.89.113-2.829.149-1.375.762-2.653 1.12-3.99.356-1.335.416-2.883-.426-3.982a2.943 2.943 0 0 0-3.141-.992c-.484.154-.944.461-1.157.924-.278.625-.042 1.37-.237 2.026-.22.737-.947 1.243-1.157 1.983-.245.892.33 1.798.347 2.72.01.662-.276 1.3-.579 1.895-.348.681-.74 1.412-.623 2.167.062.287.144.569.245.844a3.71 3.71 0 0 1-.228 2.681c-.272.548-.837 1.077-1.42.9-.065-.819-.18-1.741-.836-2.237-.431-.33-1.025-.4-1.415-.776a1.597 1.597 0 0 1-.418-1.293c.062-.465.205-.916.422-1.332.474-1.025 1.051-2.047 1.117-3.175.1-1.7-.992-3.377-.595-5.037.33-1.389 1.614-2.363 2.1-3.705.26-.721.3-1.566.826-2.12.761-.795 1.923-.526 2.886-.765.446-.113.826-.344 1.296-.422a3.578 3.578 0 0 1 1.823.155Z"/><path fill="#000" d="M31.14 75.609v5.373c0 .222 0 .451-.013.683-.056 1.488-.282 3.037-.282 3.037a4.984 4.984 0 0 0-.946-1.04c-.792-.623-1.467-.544-1.974-.26a2.48 2.48 0 0 0-.589.475c-.114-.737-.165-1.22-.165-1.22l1.217-.245a1.13 1.13 0 0 1 .684-.517c1.075-.207 1.612-10.416 1.612-10.416l-3.306-7.216v-.352l1.117-1.777c1.86-1.612 2.315.703 2.315.703s.33 6.282.33 6.448v6.324Z" opacity=".1"/><path fill="#FF6484" d="M30.81 75.24v5.373c0 .222 0 .452-.013.683-.056 1.488-.282 3.037-.282 3.037-2.315-3.265-3.948-.231-3.948-.231l-.516-1.38a2.324 2.324 0 0 1-.496-.596c-1.007-1.666-.39-4.571-.39-4.571.352-4.547 1.88-9.672 1.88-9.672v-4.34l1.12-1.778c1.86-1.612 2.646.703 2.646.703V75.24Z"/><path fill="#000" d="M30.8 81.13a32.83 32.83 0 0 1-.282 3.038c-2.315-3.266-3.948-.232-3.948-.232l-.516-1.38a2.328 2.328 0 0 1-.496-.595c1.078-.594 3.453-1.688 5.242-.83Z" opacity=".1"/><path fill="#FF6484" d="M30.8 81.296c-.056 1.488-.282 3.037-.282 3.037-2.315-3.265-3.948-.231-3.948-.231l-.516-1.38a2.328 2.328 0 0 1-.496-.596c1.078-.594 3.453-1.688 5.242-.83Z"/><path fill="#fff" d="M30.8 81.296c-.056 1.488-.282 3.037-.282 3.037-2.315-3.265-3.948-.231-3.948-.231l-.516-1.38a2.328 2.328 0 0 1-.496-.596c1.078-.594 3.453-1.688 5.242-.83Z" opacity=".1"/><path fill="#000" d="M27.669 70.115s.744 4.092 1.488 5.29c.744 1.2-1.488-5.29-1.488-5.29ZM25.765 77.059s.454 2.48 1.405 2.769c.95.29-1.405-2.77-1.405-2.77ZM51.377 85.81l.675.144-.29 1.427A3.548 3.548 0 0 0 49.14 86c-.367-.025-.736-.001-1.097.068a9.277 9.277 0 0 0 .31-1.717c.03-.219-.006-.44-.104-.639-.33-.454-.496-4.67-.496-4.67s.29-2.15.455-2.563c.165-.413-.744-2.526-.703-3.164.042-.639.538-6.136.538-6.425 0-.29 1.074-5.952 3.306-3.803l.868 1.199.056.32-3.57 4.185s3.1 16.079 2.729 16.823a.644.644 0 0 0-.055.195Z" opacity=".1"/><path fill="#FF6484" d="M55.114 82.225c-.675.675-2.078 2.9-2.463 3.519l-.1.165-.33 1.653s-1.158-1.984-3.844-1.488a9.277 9.277 0 0 0 .31-1.718 1.11 1.11 0 0 0-.104-.638c-.33-.454-.496-4.67-.496-4.67s.29-2.15.455-2.563c.165-.413-.744-2.526-.703-3.165.042-.638.538-6.135.538-6.424 0-.29 1.074-5.952 3.306-3.803l.868 1.199.662 3.76 1.28 6.532s.332 2.562.62 2.934c.29.372.783 3.922 0 4.707Z"/><path fill="#000" d="m52.647 85.578-.1.166-.33 1.653s-1.157-1.984-3.844-1.488a9.277 9.277 0 0 0 .31-1.718c.922.058 2.777.318 3.964 1.387Z" opacity=".1"/><path fill="#FF6484" d="m52.647 85.744-.1.165-.33 1.653s-1.157-1.984-3.844-1.488a9.278 9.278 0 0 0 .31-1.718c.922.058 2.777.318 3.964 1.388Z"/><path fill="#fff" d="m52.647 85.744-.1.165-.33 1.653s-1.157-1.984-3.844-1.488a9.278 9.278 0 0 0 .31-1.718c.922.058 2.777.318 3.964 1.388Z" opacity=".1"/><path fill="#000" d="M49.944 74.124s2.811-.035 3.224 1.428c.414 1.463-3.224-1.428-3.224-1.428ZM49.407 78.257s4.754-.207 4.547 1.86c-.207 2.067-4.547-1.86-4.547-1.86ZM49.696 81.44s.372-.083.62.785-.62-.785-.62-.785ZM40.068 101.652s1.133-.331 1.654 0c.52.331-1.654 0-1.654 0ZM40.273 102.851s2.686.041 2.934.33c.248.29-2.934-.33-2.934-.33Z" opacity=".1"/><g fill="#000" opacity=".1"><path d="M34.55 51.725c.08-1.353-.587-2.687-.67-4.011-.085 1.336.592 2.681.662 4.044a.25.25 0 0 0 .008-.033ZM37.706 53.96c-.344.671-.728 1.389-.629 2.134.072-.567.363-1.116.629-1.636.302-.596.588-1.227.58-1.895 0-.073-.005-.146-.015-.218-.058.565-.306 1.104-.565 1.615ZM49.804 50.936c.122.052.234.126.33.218a.778.778 0 0 0 .043-.555s0-.015-.008-.023a.508.508 0 0 1-.365.36ZM37.093 59.636c-.271.547-.837 1.076-1.42.9-.065-.82-.18-1.742-.835-2.238-.432-.33-1.026-.4-1.414-.773a1.453 1.453 0 0 1-.41-.877c0 .027-.008.053-.01.08a1.593 1.593 0 0 0 .42 1.292c.389.376.982.45 1.414.776.66.496.77 1.419.834 2.237.584.177 1.15-.352 1.42-.9.283-.58.41-1.225.366-1.87a3.67 3.67 0 0 1-.365 1.373ZM50.541 52.504c-.12.611-.569 1.119-1.094 1.456-.248.165-.546.33-.58.622a.72.72 0 0 0 .057.33 1.45 1.45 0 0 1 .523-.45c.525-.33.973-.844 1.094-1.456.032-.178.032-.36 0-.537v.035ZM49.112 57.799c-.145.526-.514 1.106-1.061 1.081-.26-.011-.496-.165-.754-.19-.37-.033-.717.205-.94.496-.202.312-.376.64-.521.982-.407.79-1.204 1.501-2.084 1.377-.88-.124-1.443-1.071-1.53-1.998 0 .05-.01.102-.01.155-.034 1.023.525 2.197 1.54 2.341.88.124 1.677-.587 2.084-1.377.145-.342.319-.67.52-.982.224-.296.57-.534.941-.496.258.024.496.178.754.19.547.025.916-.556 1.061-1.081a4.36 4.36 0 0 0 .148-1.432c-.016.316-.065.629-.148.934ZM43.62 45.898c.42.578.65 1.27.662 1.984.043-.9-.126-1.785-.662-2.49a2.942 2.942 0 0 0-3.141-.992c-.484.154-.944.462-1.157.925-.28.624-.043 1.37-.238 2.025-.22.737-.948 1.243-1.158 1.984a1.898 1.898 0 0 0-.043.727c.01-.077.023-.154.043-.23.204-.74.931-1.246 1.158-1.983.195-.662-.042-1.4.238-2.026.206-.463.661-.77 1.157-.924a2.943 2.943 0 0 1 3.141 1Z" opacity=".1"/></g><g opacity=".8"><path fill="#1769FF" d="M94.432 109.289c7.323 0 13.259-5.937 13.259-13.26 0-7.323-5.936-13.26-13.26-13.26-7.322 0-13.26 5.937-13.26 13.26 0 7.323 5.938 13.26 13.26 13.26Z" opacity=".8"/><path fill="#fff" d="M90.538 90.02a7.49 7.49 0 0 1 1.566.151 3.36 3.36 0 0 1 1.212.496c.337.232.606.548.782.918.2.444.295.928.28 1.415a2.646 2.646 0 0 1-.414 1.514 3 3 0 0 1-1.22.993 2.895 2.895 0 0 1 1.653 1.119 3.674 3.674 0 0 1 .194 3.502 3.046 3.046 0 0 1-.951 1.084 4.195 4.195 0 0 1-1.364.623 6.225 6.225 0 0 1-1.572.202h-5.82V90.019h5.654Zm-.33 4.863c.41.018.817-.098 1.157-.33.304-.22.456-.586.455-1.095a1.4 1.4 0 0 0-.153-.69 1.125 1.125 0 0 0-.403-.421 1.72 1.72 0 0 0-.58-.21 3.927 3.927 0 0 0-.683-.058h-2.48v2.81l2.686-.006Zm.152 5.1c.249 0 .497-.025.74-.077a1.8 1.8 0 0 0 .622-.251c.182-.12.33-.286.43-.48.117-.241.173-.507.165-.775 0-.615-.173-1.057-.522-1.323a2.222 2.222 0 0 0-1.38-.397h-2.878v3.307l2.823-.005Zm7.92-.254c.358.348.874.523 1.547.523.444.01.881-.118 1.25-.367.294-.175.52-.445.639-.766h2.103c-.337 1.044-.853 1.79-1.549 2.239-.76.468-1.64.703-2.533.676a4.977 4.977 0 0 1-1.85-.331 3.833 3.833 0 0 1-1.397-.934 4.198 4.198 0 0 1-.884-1.447 5.33 5.33 0 0 1-.311-1.851 5.07 5.07 0 0 1 .319-1.819 4.207 4.207 0 0 1 2.315-2.422 4.495 4.495 0 0 1 1.81-.354 4.143 4.143 0 0 1 1.936.43c.535.275.999.671 1.354 1.157.36.497.62 1.058.766 1.654.157.632.213 1.286.165 1.936h-6.283c.033.77.23 1.332.589 1.678l.013-.002Zm2.701-4.576c-.287-.315-.722-.472-1.305-.472a2.074 2.074 0 0 0-.95.194 1.778 1.778 0 0 0-.926 1.085 2.812 2.812 0 0 0-.11.572h3.883c-.111-.606-.31-1.065-.599-1.38h.007Zm-3.707-4.527h4.856v1.347h-4.856v-1.347Z" opacity=".8"/></g><g opacity=".8"><path fill="#B3BBC6" d="M154.352 103.795v.375a13.267 13.267 0 0 1-11.658 12.788 13.283 13.283 0 0 1-8.962-2.14 13.26 13.26 0 1 1 20.626-11.023h-.006Z" opacity=".8"/><path fill="#666C76" d="M154.346 104.17a13.26 13.26 0 0 1-11.658 12.789l-10.826-8.054 1.353-8.762 5.353.33 3.046 2.553 2.166-3.53 3.637 3.022 1.956 1.401v-4.42l4.93 4.564c.012.036.03.071.043.107Z" opacity=".8"/><path fill="#fff" d="M140.144 104.12c0-2.81-1.728-4.715-5.018-4.715h-3.249v9.46h3.317c3.194 0 4.95-1.934 4.95-4.745Zm-2.36.015c0 2.029-1.041 2.907-2.713 2.907h-.851v-5.813h.851c1.604 0 2.713.917 2.713 2.906Zm11.696 4.73v-9.46h-2.181v5.291l-3.482-5.291h-2.276v9.459h2.18v-5.661l3.729 5.661h2.03v.001Z" opacity=".8"/></g><path fill="url(#c)" d="M144.383 89.688c-.166-.33-1.708-2.542-1.708-2.542l-.046-.199-.506-2.257-.035-.165c.331-.084.569-.188.643-.32.364-.636-.307-1.41-.307-1.41l-.141-3.346-.364-8.101s-.755-2.712-.868-3.346c-.112-.635-1.147-1.965-1.147-1.965s.223-.66-.056-1.134c-.28-.473-.896-2.683-.896-2.683l-.531-6.117-.253-6.019c.253-.001.507.022.755.072.037.03.017-.045-.036-.179a.1.1 0 0 1 .036.013c.086.07-.143-.448-.391-.975l-.03-.061c.119-.432.612-2.18.954-2.811.254-.466-.235-3.685-.609-5.884l-.077-.453a497.518 497.518 0 0 1 1.303-2.265s1.762-5.033 2.489-7.219c.728-2.186 0-7.853 0-7.853s0-.278-.039-.711c-.114-1.17-.551-3.46-2.227-4.35-2.295-1.217-3.023-2.71-3.023-2.71s-2.863-2.606-3.225-1.73l-.025-.05a5.73 5.73 0 0 1-.468-1.378c-.01-.05-.018-.099-.026-.147a4.42 4.42 0 0 0 .942-1.022c0 .073-.012.146-.017.219V10.935a.526.526 0 0 0 .521-.29c.09-.19.15-.394.177-.603.097-.445.274-.869.524-1.25.245-.375.572-.752.615-1.18a.848.848 0 0 0 0-.189c-.021-.218-.124-.421-.155-.638a1.307 1.307 0 0 1 0-.33c0-.065.015-.13.025-.192.01-.063.026-.165.038-.258.011-.093.021-.144.03-.217V5.78c.023-.19.023-.383 0-.574a1.124 1.124 0 0 0-.536-.863c-.166-.084-.356-.11-.521-.195-.436-.223-.575-.759-.827-1.172a2.066 2.066 0 0 0-1.636-.94c-.662-.027-1.31.262-1.96.165-.415-.067-.797-.291-1.216-.321-.614-.043-1.166.33-1.664.69-.352.252-.727.538-.843.955-.093.34 0 .732-.192 1.03-.124.193-.349.304-.487.496a.824.824 0 0 0-.166.53v.143c.012.127.035.256.056.382a.263.263 0 0 1 0 .04c.05.348-.062.593-.188.934a1.403 1.403 0 0 0-.089.448v.056a.767.767 0 0 0 0 .096c.014.119.067.23.148.317a.501.501 0 0 1 .166-.165v.16a4.357 4.357 0 0 0 1.322 3.125c0 .048-.013.098-.019.145a22.35 22.35 0 0 1-.28 1.565l-.039.165h-.827s.14-.609-1.232.139c-1.372.747-3.052 1.106-3.307 1.243-.254.137-3.357 2.546-3.357 2.546s-2.689 1.548-2.604 4.203l-.308 2.976-.223 5.558s-.42 4.73 0 5.394c.42.663 1.147 4.591 1.007 5.089-.101.36.912 2.893 1.617 4.37-.189.199-.365.41-.524.634 0 0-.282 1.108-.282 1.219 0 0 0 .011.014.018-.62.628-1.609 1.662-1.609 1.89 0 .33.197.62-.111.6-.307-.02-.317.34-.299.56.018.22-.374-.109-.346.305.029.413-2.855 6.914-2.855 6.914s-1.314 3.18-1.819 3.707c-.504.525-1.203 2.848-1.147 3.705.056.856.084 1.108-.14 1.108-.225 0-.672.773-.672.773l-2.21 6.804s-.645 2.101-.84 2.075c-.195-.027-.635 3.61-.635 3.61s-.475 1.078-.559 1.078c-.016 0 .061.078.205.2l-.096.082a7.037 7.037 0 0 1-.653.495c-.008 0-1.278-.88-2.149-.798-.871.083-2.659.302-3.556-.33-.496-.355-1.543-.662-2.385-.675-.67-.01-1.215.165-1.253.674-.084 1.133 3.05 3.264 3.05 3.264s3.307.94 3.947 1.819c.64.88 3.284 2.212 3.284 2.212s.795-.35 1.094-.703a.348.348 0 0 0 .109-.263c-.056-.415 1.091-1.984 1.091-1.984l.166-.778c.081-.386.183-.855.284-1.267l.04-.165a.964.964 0 0 0 .385-.06c1.119-.441 1.232-1.653 1.232-1.653l1.675-3.504s.727-2.018.95-2.379c.224-.36 1.96-3.98 1.96-3.98s.307-1.55.588-2.02c.281-.47.308-1.488.308-1.488s.587-1.549 1.203-2.157a8.158 8.158 0 0 0 1.148-1.576s2.546-4.01 4.282-5.143c0 0 4.171-5.09 4.422-5.532.252-.444 1.035-1.604 1.984-.554.949 1.05 1.958 2.407 1.958 2.407l1.71 4.646 1.903 5.952s.894 1.437.839 1.74c-.054.305 1.455 3.016 1.455 3.016s.587.993.477 1.489c-.111.496.419.992.419.992l.166 2.018s.617 1.984.448 2.297c-.169.312.588 2.212.588 2.212s0 1.686.28 2.24c.279.554.62 2.764.592 2.93-.028.165 0 1.688 0 1.688s.197 0 .509-.01l.013.165.139 1.665.013.154a.672.672 0 0 0-.256.486c0 .45.066 1.77.122 2.81.014.277.029.531.042.745a.55.55 0 0 0 .195.387.552.552 0 0 0 .416.124 7.38 7.38 0 0 1 2.39.089c.871.2 1.767.266 2.658.195 0 0 .061-.623.071-1.182.008-.357-.005-.686-.069-.814Z"/><path fill="#FFAAB0" d="M142.242 87.223h-3.774l-.037-.444-.137-1.66-.103-1.257h3.307l.202.914.497 2.249.045.198ZM107.548 80.554c-.071.07-.188.487-.307.992-.214.886-.437 2.038-.437 2.038l-.139.033-2.943.711s-1.542-3.526-.826-3.609c.252-.053.491-.159.699-.31.236-.157.462-.328.676-.513.392-.33.691-.638.691-.638s2.78 1.102 2.586 1.296Z"/><path fill="#000" d="M107.548 80.554c-.071.07-.188.487-.307.992-1.017-.06-2.555-1.267-2.976-1.654.391-.33.691-.638.691-.638s2.786 1.106 2.592 1.3ZM141.698 84.775c-.906.244-2.568.319-3.406.342l-.103-1.257h3.307l.202.915Z" opacity=".1"/><path fill="#DCE6F2" d="M117.716 46.11s-2.067 2.038-2.067 2.37c0 .33.193.616-.109.598-.303-.019-.313.338-.294.558.018.22-.368-.11-.341.303.026.413-2.811 6.89-2.811 6.89s-1.294 3.169-1.79 3.691c-.496.523-1.186 2.84-1.13 3.694.057.855.083 1.101-.138 1.101-.222 0-.662.772-.662.772l-2.176 6.779s-.634 2.094-.826 2.066c-.192-.028-.662 3.61-.662 3.61s-.469 1.074-.552 1.074c-.082 0 2.398 2.15 3.5 1.71 1.103-.44 1.212-1.653 1.212-1.653l1.654-3.472s.717-2.013.937-2.371c.22-.36 1.929-3.968 1.929-3.968s.303-1.543.579-2.01c.276-.469.303-1.489.303-1.489s.578-1.544 1.185-2.15a8.096 8.096 0 0 0 1.129-1.57s2.508-3.996 4.216-5.125c0 0 4.106-5.07 4.354-5.512.248-.442 1.02-1.598 1.957-.55.938 1.046 1.928 2.396 1.928 2.396l1.681 4.63 1.874 5.924s.882 1.433.826 1.736c-.056.302 1.434 3.004 1.434 3.004s.578.992.468 1.488c-.111.496.413.992.413.992l.165 2.012s.607 1.984.442 2.286c-.166.303.578 2.204.578 2.204s0 1.682.276 2.232c.277.55.606 2.756.579 2.922-.026.165 0 1.681 0 1.681s4.158-.028 4.517-.661-.303-1.406-.303-1.406l-.138-3.334-.358-8.073s-.744-2.702-.854-3.335c-.111-.633-1.13-1.956-1.13-1.956s.22-.661-.056-1.131-.881-2.672-.881-2.672l-.524-6.09-.27-6.64-20.064-3.555Z"/><path fill="#000" d="M138.548 50.38c-.166-.138-6.944-.193-7.027-.193-.083 0-2.645-1.02-2.645-1.02s-5.704-.936-6.586-.523c-.881.414-3.61-.772-3.61-.772v-.524s-1.46-.496-1.46-.605c0-.109.276-1.213.276-1.213l.165-.058.632-.217 19.372 3.113s.256.526.496 1.04.471 1.042.387.972Z" opacity=".1"/><path fill="#F1FAFF" d="M138.548 50.215c-.166-.139-6.944-.193-7.027-.193-.083 0-2.645-1.02-2.645-1.02s-5.704-.936-6.586-.523c-.881.413-3.61-.772-3.61-.772v-.524s-1.46-.496-1.46-.605c0-.11.276-1.214.276-1.214l.165-.058.632-.216 19.372 3.113s.256.526.496 1.04.471 1.042.387.972Z"/><path fill="#000" d="m106.961 82.64-.165.779s-.055.076-.139.198l-2.935.711s-1.542-3.526-.826-3.609c.252-.053.491-.159.699-.31-.15 1.104.706 2.266.706 2.266 1.209.91 2.66-.035 2.66-.035Z" opacity=".1"/><path fill="#575988" d="m106.961 82.807-.166.779s-1.129 1.57-1.074 1.984a.349.349 0 0 1-.108.263c-.294.35-1.078.7-1.078.7s-2.589-1.323-3.224-2.205c-.635-.88-3.885-1.818-3.885-1.818s-3.085-2.123-3.002-3.252c.036-.496.572-.682 1.233-.672.827.01 1.857.32 2.348.672.883.633 2.645.413 3.5.33.855-.082 2.111.797 2.111.797-.286 1.157.671 2.455.671 2.455 1.222.911 2.674-.033 2.674-.033Z"/><path fill="#F1FAFF" d="M105.622 85.831c-.294.35-1.078.7-1.078.7s-2.589-1.323-3.224-2.204c-.635-.882-3.885-1.82-3.885-1.82s-3.085-2.122-3.003-3.251c.037-.496.572-.681 1.234-.671.496.826 1.228 1.975 1.769 2.296.883.524 2.619 1.516 2.619 1.516s2.754 1.736 2.948 1.93c.158.16 1.754 1.215 2.62 1.504Z"/><path fill="#000" d="M142.245 87.222h-3.78l-.036-.445c.476-.448 1.496-.662 1.496-.662.708-.216 2.012.713 2.27.905l.05.202Z" opacity=".1"/><path fill="#575988" d="M143.993 90.565c-.01.557-.071 1.177-.071 1.177-.878.07-1.76.005-2.618-.194a7.144 7.144 0 0 0-2.351-.089.541.541 0 0 1-.603-.51c-.012-.21-.027-.465-.04-.74-.056-1.03-.121-2.346-.121-2.794 0-.77 1.736-1.13 1.736-1.13.787-.24 2.315.938 2.315.938s1.516 2.204 1.682 2.535c.064.127.077.454.071.807Z"/><path fill="#F1FAFF" d="M143.992 90.565c-.01.557-.071 1.177-.071 1.177-.877.07-1.76.005-2.617-.194a7.146 7.146 0 0 0-2.351-.089.542.542 0 0 1-.604-.51c-.011-.21-.026-.465-.039-.74.634-.096 1.57-.188 2.222-.038.757.175 2.496.323 3.46.394Z"/><path fill="#000" d="M106.349 74.01s-.579.992 0 1.447c.579.454 0-1.447 0-1.447ZM137.432 77.854c.165.33.605.826.529 1.405-.076.579-.529-1.405-.529-1.405Z" opacity=".1"/><path fill="#FFAAB0" d="M136.922 17.396s-2.524-.256-5.141-.603l-.108-.015c-3.039-.405-6.157-.93-5.554-1.311.27-.165.496-.585.683-1.115.117-.338.214-.683.293-1.033l.038-.165c.114-.52.205-1.065.276-1.558.141-1.003.198-1.803.198-1.803s6.477-2.454 5.678.605a3.338 3.338 0 0 0-.023 1.498c.095.475.25.936.461 1.372 1.032 2.202 3.199 4.128 3.199 4.128Z"/><path fill="#000" d="M133.285 10.396a3.338 3.338 0 0 0-.023 1.498 4.38 4.38 0 0 1-5.853-.3c.141-1.003.199-1.803.199-1.803s6.476-2.454 5.677.605Z" opacity=".1"/><path fill="#FFAAB0" d="M134.883 8.326a4.382 4.382 0 0 1-8.763.01v-.01a4.384 4.384 0 0 1 4.381-4.381 4.384 4.384 0 0 1 4.382 4.381Z"/><path fill="#000" d="M131.838 16.613a.872.872 0 0 1-.057.18l-.108-.015c-3.039-.405-6.157-.93-5.554-1.311.27-.165.496-.585.683-1.115a9.75 9.75 0 0 0 .293-1.033l.038-.165h.127c.01.07.331 2.187 3.173 2.55l.096.01c1.109.125 1.392.489 1.309.899Z" opacity=".1"/><path fill="#F1FAFF" d="M131.673 16.778c-.139.686-1.309 1.5-1.309 1.5l-3.252-.607s-2.039-1.819-2.039-1.873c0-.055 1.212-2.48 1.212-2.48h.81c.01.07.331 2.187 3.173 2.55l.096.01c1.109.126 1.392.49 1.309.9Z"/><path fill="#000" d="M136.923 17.396s-2.594-.262-5.25-.618c-.139.686-1.309 1.5-1.309 1.5l-3.252-.607s-2.039-1.819-2.039-1.873c0-.055 1.212-2.48 1.212-2.48h.041c.107.366.268.715.477 1.035.511.78 1.488 1.635 3.306 1.527l.152-.011c2.73-.227 3.343-2.117 3.456-2.603 1.038 2.204 3.206 4.13 3.206 4.13ZM138.161 49.243l-.054.2c-.662-.496-5.483-.827-5.483-.827s-1.268-.148-2.48-.342c-.879-.14-1.729-.306-2.042-.456a2.005 2.005 0 0 0-.223-.084c-1.098-.344-4.464-.743-4.464-.743s-1.653.744-2.534.413c-.882-.33-3.39-1.874-3.39-1.874s.055-.083.166-.224l.631-.216 19.372 3.113s.263.526.501 1.04Z" opacity=".1"/><path fill="#575988" d="M138.472 40.53c.369 2.192.85 5.398.6 5.863-.387.715-.966 2.893-.966 2.893-.661-.496-5.482-.827-5.482-.827s-1.268-.149-2.48-.342c-.88-.14-1.729-.306-2.042-.456a2.082 2.082 0 0 0-.223-.085c-1.098-.343-4.464-.742-4.464-.742s-1.653.744-2.535.413c-.881-.33-3.389-1.874-3.389-1.874a8.115 8.115 0 0 1 1.24-1.35c.853-.772 2.424-7.413 2.384-7.496-.04-.083-.428-2.204-.317-3.444.11-1.24-.331-7.302-.331-7.302s-4.433-1.717-4.51-4.362c-.078-2.645 2.562-4.188 2.562-4.188s3.059-2.397 3.307-2.536c.248-.139 1.901-.496 3.252-1.24 1.351-.744 1.212-.137 1.212-.137s.552 2.921 3.831 2.728c3.278-.194 3.637-2.728 3.637-2.728.352-.882 3.176 1.736 3.176 1.736s.716 1.488 2.976 2.7c1.654.886 2.08 3.167 2.193 4.333.041.431.039.71.039.71l-6.641 4.767 2.61 10.884s.166.888.361 2.082Z"/><path fill="#FFAAB0" d="M122.043 46.192s2.177 3.747 4.436 2.7a2.648 2.648 0 0 0 1.207-1.104c.891-1.541 0-3.507-1.726-3.968-.637-.166-1.323-.27-1.878-.166-1.571.278-2.039 2.538-2.039 2.538Z"/><path fill="#000" d="M122.043 46.192s2.177 3.747 4.436 2.7a2.648 2.648 0 0 0 1.207-1.104c.891-1.541 0-3.507-1.726-3.968-.637-.166-1.323-.27-1.878-.166-1.571.278-2.039 2.538-2.039 2.538ZM118.847 18.83s1.718 1.157 1.754 2.976l-1.754-2.976ZM121.546 19.71c0 .112-.496 7.772.386 10.389.881 2.617-.386-10.388-.386-10.388ZM134.882 8.326c.002.85-.244 1.68-.709 2.39v-.164c-.028-.46-.271-.875-.507-1.272a2.537 2.537 0 0 0-.662-.817 1.262 1.262 0 0 1-.223-.165c-.152-.165-.136-.428-.165-.661a1.478 1.478 0 0 0-1.189-1.24.494.494 0 0 0-.37.053c-.113.079-.166.226-.26.317-.149.134-.377.117-.574.08-.433-.087-.884-.244-1.304-.105-.721.24-.992 1.237-1.731 1.422a4.24 4.24 0 0 1-.662.046.914.914 0 0 0-.403.124v-.01a4.384 4.384 0 0 1 4.381-4.38 4.38 4.38 0 0 1 4.382 4.38l-.004.002Z" opacity=".1"/><path fill="#794F6A" d="M126.163 5.418c.137-.183.357-.294.481-.488.189-.296.096-.686.189-1.025.112-.415.483-.7.826-.952.496-.357 1.034-.73 1.637-.688.414.03.789.255 1.199.32.64.105 1.281-.183 1.929-.164a2.028 2.028 0 0 1 1.611.939c.256.41.392.944.826 1.157.166.084.351.11.513.195a1.11 1.11 0 0 1 .527.861c.023.35-.001.7-.072 1.044-.033.172-.041.349-.024.524.03.216.133.418.154.636.05.496-.33.931-.607 1.356a3.765 3.765 0 0 0-.514 1.247 2.04 2.04 0 0 1-.175.601.52.52 0 0 1-.513.29c-.031-.3.043-.602.024-.903-.029-.46-.272-.875-.508-1.27a2.522 2.522 0 0 0-.661-.818 1.176 1.176 0 0 1-.222-.165c-.154-.166-.137-.427-.165-.662a1.482 1.482 0 0 0-1.189-1.238.495.495 0 0 0-.37.051c-.113.08-.166.227-.26.318-.149.134-.377.119-.574.079-.433-.084-.884-.243-1.304-.104-.721.24-.992 1.237-1.731 1.422-.219.033-.44.049-.661.046a.699.699 0 0 0-.569.296c-.222-.232-.177-.608-.068-.91.127-.352.243-.601.18-.972-.063-.37-.145-.707.091-1.023Z"/><path fill="#000" d="M110.069 65.537s-1.57.826-.744.992c.827.165.744-.992.744-.992ZM135.944 67.52s.868-1.157 1.819-.454c.951.702-1.819.454-1.819.454ZM137.961 68.264s1.083-.371 1.744 0h-1.744ZM116.559 49.5s2.314 2.231 3.058 2.314c.744.083-3.058-2.315-3.058-2.315ZM116.89 20.152l-.602 1.267-.304 2.976-.22 5.539s-.414 4.712 0 5.373c.413.661 1.129 4.575.992 5.07-.137.497 1.818 5.126 2.177 5.402.359.276 1.625.33 2.341.192l1.31 1.245 3.707-3.42-2.289-1.737s.524-.883-.935-1.847c0 0-.662-1.102-.69-1.681a12.277 12.277 0 0 0-.607-3.472c-.522-1.543-.826-10.112-.826-10.112s-1.244-6.256-4.054-4.794Z" opacity=".1"/><path fill="#575988" d="m116.559 20.152-.602 1.267-.304 2.976-.22 5.539s-.414 4.712 0 5.373c.413.661 1.129 4.575.992 5.07-.138.497 1.818 5.126 2.177 5.402.359.276 1.625.33 2.341.192l1.31 1.245 3.706-3.42-2.288-1.737s.524-.883-.936-1.847c0 0-.661-1.102-.689-1.681a12.277 12.277 0 0 0-.607-3.472c-.522-1.543-.826-10.112-.826-10.112s-1.244-6.256-4.054-4.794Z"/><path fill="#000" d="M122.319 40.874c-.165.082-3.5 3.17-2.26 3.252 1.24.083 2.26-3.252 2.26-3.252Z" opacity=".1"/><path fill="#FFAAB0" d="M126.561 44.594s-4.766.496-4.518 2.425c.248 1.93 3.637 3.788 4.712 3.203 1.074-.586 1.984-1.144 1.984-1.144l-2.178-4.484Z"/><path fill="#000" d="m141.111 21.475.689 1.323s.716 5.648 0 7.825c-.716 2.177-2.452 7.192-2.452 7.192s-2.094 3.665-2.149 3.83c-.054.166-4.024 5.896-4.74 6.2-.716.305-2.067.145-2.149-.19-.083-.333-1.902 1.422-1.902 1.422s-3.505-4.235-2.948-4.677c.558-.441 2.246-.55 2.246-.55s.124.413.261-.442.772-1.294 1.24-1.24c.468.055.276-.44.359-.964.082-.524 1.377-1.46 1.377-1.46s.635-1.02.635-1.627c0-.606 1.322-1.129 1.432-1.129.109 0 .082-.248.082-1.129s.662-2.453.662-2.453l.408-4.96.717-5.043s1.961-6.144 6.232-1.928Z" opacity=".1"/><path fill="#000" d="M138.111 38.448s.166.888.366 2.074a31.617 31.617 0 0 0-.614 1.122c-.054.166-4.022 5.898-4.738 6.2-.716.303-2.067.144-2.149-.188-.037-.149-.415.114-.827.453-.513.423-1.076.967-1.076.967s-.556-.671-1.189-1.508c-.959-1.263-2.095-2.901-1.761-3.168.557-.441 2.247-.55 2.247-.55s.124.413.261-.442c.137-.854.772-1.294 1.24-1.24.468.055.276-.441.359-.964.083-.522 1.377-1.461 1.377-1.461s.633-1.019.633-1.625c0-.607 1.323-1.13 1.434-1.13.111 0 .083-.248.083-1.13 0-.883.661-2.452.661-2.452l.408-4.96.716-5.043s1.958-6.145 6.228-1.93l.319.614c.042.431.04.71.04.71l-6.641 4.767 2.623 10.884Z" opacity=".1"/><path fill="#575988" d="m141.441 21.475.689 1.323s.716 5.648 0 7.825c-.715 2.177-2.451 7.192-2.451 7.192s-2.095 3.665-2.15 3.83c-.054.166-4.024 5.896-4.74 6.2-.716.305-2.067.145-2.149-.19-.083-.333-1.902 1.422-1.902 1.422s-3.505-4.235-2.948-4.677c.558-.441 2.246-.55 2.246-.55s.124.413.261-.442.772-1.294 1.24-1.24c.468.055.276-.44.359-.964.082-.524 1.377-1.46 1.377-1.46s.635-1.02.635-1.627c0-.606 1.323-1.129 1.432-1.129.109 0 .082-.248.082-1.129s.662-2.453.662-2.453l.408-4.96.718-5.043s1.96-6.144 6.231-1.928Z"/><path fill="#000" d="M129.152 43.618s.166.372.91.508c.744.135-.91-.508-.91-.508ZM138.052 21.502c-.026.082-2.48 2.855-1.984 3.578.496.722 1.984-3.578 1.984-3.578ZM135.27 34.232s1.405 1.38 1.129 2.04c-.276.662-1.129-2.04-1.129-2.04ZM135.489 31.615c.083.137 3.115.496 3.28 1.653.166 1.158-3.28-1.653-3.28-1.653Z" opacity=".1"/><g fill="#000" opacity=".1"><path d="M135.797 6.832c0-.063.015-.128.025-.192a4.33 4.33 0 0 0 .079-.957c-.013.21-.049.42-.079.626a1.868 1.868 0 0 0-.025.523ZM126.074 6.508a1.14 1.14 0 0 0 0-.369c-.02-.117-.041-.235-.053-.352-.017.229 0 .46.053.683v.038ZM135.944 7.733c-.071.393-.367.745-.594 1.094-.246.38-.42.802-.514 1.245a2.108 2.108 0 0 1-.175.602.515.515 0 0 1-.513.29 2.236 2.236 0 0 0 0 .33.517.517 0 0 0 .513-.29c.088-.19.147-.393.175-.601.094-.443.268-.865.514-1.245.275-.425.662-.853.606-1.358.006-.023-.009-.044-.012-.067ZM134.172 10.062c-.028-.46-.271-.876-.508-1.271a2.54 2.54 0 0 0-.661-.827 1.256 1.256 0 0 1-.223-.165c-.152-.165-.136-.428-.165-.661a1.482 1.482 0 0 0-1.189-1.239.497.497 0 0 0-.371.052c-.112.079-.165.226-.259.319a.675.675 0 0 1-.574.079c-.433-.086-.884-.245-1.304-.104-.721.238-.992 1.235-1.733 1.42-.219.033-.44.05-.661.048a.687.687 0 0 0-.567.294.551.551 0 0 1-.144-.289.708.708 0 0 0 .144.62.68.68 0 0 1 .567-.294c.221.001.442-.015.661-.048.737-.185 1.012-1.182 1.733-1.42.42-.141.871.018 1.304.104a.673.673 0 0 0 .574-.08c.102-.092.147-.24.259-.319a.497.497 0 0 1 .371-.051 1.482 1.482 0 0 1 1.189 1.238c.028.228.011.485.165.662.068.063.143.118.223.165.276.226.501.508.661.827.23.385.463.788.496 1.233.011-.097.015-.195.012-.293Z" opacity=".1"/></g><path fill="#61BEEC" d="M79.831 24.276v17.35a.272.272 0 0 0 .278.276c4.778-.149 8.763-4.099 8.763-8.951S84.89 24.147 80.108 24a.272.272 0 0 0-.278.276Z"/><path fill="#4064AC" d="M67.9 47.97V33.61a10.507 10.507 0 0 1 2.094-6.373c1.302-1.71 3.327-3.257 6.389-3.237a.314.314 0 0 1 .316.312v14.781s.496 8.078-8.624 9.034a.166.166 0 0 1-.175-.157Z"/><path fill="#00BAFC" d="M30.305 22.38a5.208 5.208 0 1 0 0-10.416 5.208 5.208 0 0 0 0 10.416ZM19.392 7.996a3.224 3.224 0 1 0 0-6.448 3.224 3.224 0 0 0 0 6.448ZM2.53 13.947a1.984 1.984 0 1 0 0-3.968 1.984 1.984 0 0 0 0 3.969Z" opacity=".1"/><path fill="#00BAFC" d="M68.311 111.092a2.854 2.854 0 0 0-.377.71c-.023.061-.046.132-.07.2a.607.607 0 0 0-.13-.045 1.833 1.833 0 0 0-.59-.051c0-.076.01-.166.011-.242.025-.871-.077-2.086-.909-1.572-.797.496-.228 1.323.286 1.853l.132.129c-.47.331-.558 1.113-.636 1.925-.078.812-.767 1.701-1.225 2.205a4.942 4.942 0 0 1-.13.141 1.671 1.671 0 0 0-1.33-.342 6.646 6.646 0 0 0-.061-.225c-.369-1.344-1.138-3.659-2.12-4.155l.13-.165c.416-.546.885-1.356.192-1.563-.692-.206-.755.703-.717 1.384 0 .085.013.166.02.242a1.006 1.006 0 0 0-.724.353l-.108-.125c-.562-.662-1.592-1.715-1.904-.92-.29.741.616 1.702 1.255 2.259l.04.035c-.43 1.739 1.44 3.156 2.448 3.776l.13.079c-1.389 1.637-2.246 4.704-2.246 4.704l3.89.694s2.577-2.225 2.247-4.313h.026c2.578-.516 3.163-3.264 2.763-4.896.015 0 .03-.011.044-.02.47-.191.881-.502 1.194-.901.721-1.006-.79-2.137-1.53-1.154Z"/><path fill="#000" d="M68.311 111.092a2.854 2.854 0 0 0-.377.71c-.023.061-.046.132-.07.2a.607.607 0 0 0-.13-.045 1.833 1.833 0 0 0-.59-.051c0-.076.01-.166.011-.242.025-.871-.077-2.086-.909-1.572-.797.496-.228 1.323.286 1.853l.132.129c-.47.331-.558 1.113-.636 1.925-.078.812-.767 1.701-1.225 2.205a4.942 4.942 0 0 1-.13.141 1.671 1.671 0 0 0-1.33-.342 6.646 6.646 0 0 0-.061-.225c-.369-1.344-1.138-3.659-2.12-4.155l.13-.165c.416-.546.885-1.356.192-1.563-.692-.206-.755.703-.717 1.384 0 .085.013.166.02.242a1.006 1.006 0 0 0-.724.353l-.108-.125c-.562-.662-1.592-1.715-1.904-.92-.29.741.616 1.702 1.255 2.259l.04.035c-.43 1.739 1.44 3.156 2.448 3.776l.13.079c-1.389 1.637-2.246 4.704-2.246 4.704l3.89.694s2.577-2.225 2.247-4.313h.026c2.578-.516 3.163-3.264 2.763-4.896.015 0 .03-.011.044-.02.47-.191.881-.502 1.194-.901.721-1.006-.79-2.137-1.53-1.154Z" opacity=".1"/><path fill="#00BAFC" d="m60.57 112.214-.454 1.322s-.253-.178-.572-.459c-.638-.558-1.544-1.518-1.255-2.259.312-.795 1.342.255 1.904.919.227.272.378.477.378.477ZM61.53 111.458a6.574 6.574 0 0 1-.444.521 6.992 6.992 0 0 1-.08-.7c-.039-.681.034-1.585.717-1.384.683.202.223 1.014-.194 1.563ZM67.393 111.665a9.47 9.47 0 0 1-.056.786 5.54 5.54 0 0 1-.567-.497c-.514-.534-1.083-1.358-.286-1.854.832-.522.934.697.91 1.565ZM70.08 112.238a2.925 2.925 0 0 1-1.193.901c-.13.058-.264.106-.4.146l-.536-.752c.057-.249.13-.493.222-.731.091-.253.218-.492.377-.71.74-.983 2.252.148 1.53 1.146Z"/><path fill="#000" d="M60.194 111.746c.226.262.377.468.377.468l-.455 1.322s-.253-.178-.572-.459a2.6 2.6 0 0 1 .513-1.169c.044-.053.092-.111.137-.162ZM61.529 111.458a6.574 6.574 0 0 1-.443.521 6.962 6.962 0 0 1-.081-.7c.189.003.372.066.524.179Z" opacity=".1"/><path fill="#00BAFC" d="m63.766 116.737-1.132.496s-.247-.119-.602-.339c-1.189-.732-3.578-2.573-1.976-4.742 1.602-2.169 2.938 1.721 3.464 3.624.16.571.246.961.246.961Z"/><path fill="#000" d="M66.77 111.954a.921.921 0 0 1 .624-.281 9.52 9.52 0 0 1-.056.787c-.2-.156-.39-.325-.567-.506ZM68.887 113.139c-.13.058-.264.106-.4.146l-.536-.752c.057-.249.13-.493.222-.731.345.203.6.704.714 1.337Z" opacity=".1"/><path fill="#00BAFC" d="m66.08 118.055-.19.033c-3.792.577-1.25-1.47-1.25-1.47s.165-.165.401-.413c.458-.505 1.146-1.389 1.225-2.206.12-1.228.256-2.381 1.706-2.042 1.424.328 1.692 5.379-1.893 6.098Z"/><path fill="#D4DFEC" d="M66.01 127.494h-7.243v1.904h7.243v-1.904Z"/><path fill="#D4DFEC" d="M67.08 121.303h-9.464v6.647h9.464v-6.647Z"/><path fill="#000" d="M66.01 127.494h-7.243v1.904h7.243v-1.904Z" opacity=".1"/><path fill="#000" d="M67.08 121.303h-9.464v6.647h9.464v-6.647Z" opacity=".1"/><path fill="#D4DFEC" d="M66.485 127.494h-7.243v1.904h7.243v-1.904Z"/><path fill="#000" d="M63.52 115.778c.165.569.246.959.246.959l-1.133.496s-.246-.119-.602-.339c.443-.56.943-.985 1.488-1.116ZM66.08 118.055l-.19.033c-3.792.577-1.25-1.47-1.25-1.47s.165-.165.401-.413c.708.567 1 1.205 1.038 1.85Z" opacity=".1"/><path fill="#00BAFC" d="M59.91 121.679s2.122-7.606 5.1-5.258c2.977 2.348-1.21 5.952-1.21 5.952l-3.89-.694Z"/><path fill="#000" d="M60.988 113.584a.238.238 0 1 0 0-.477.238.238 0 0 0 0 .477ZM60.968 114.695a.238.238 0 1 0 .001-.475.238.238 0 0 0 0 .475ZM67.873 113.802a.238.238 0 1 0 0-.475.238.238 0 0 0 0 .475ZM62.318 119.498a.238.238 0 1 0 0-.475.238.238 0 0 0 0 .475ZM67.377 115.647a.238.238 0 1 0 0-.475.238.238 0 0 0 0 .475ZM64.917 118.109a.238.238 0 1 0 0-.475.238.238 0 0 0 0 .475ZM61.802 114.06a.238.238 0 1 0 0-.475.238.238 0 0 0 0 .475ZM67.219 114.516a.238.238 0 1 0 0-.475.238.238 0 0 0 0 .475ZM66.405 116.362a.238.238 0 1 0 0-.477.238.238 0 0 0 0 .477ZM63.905 119.319a.238.238 0 1 0 0-.475.238.238 0 0 0 0 .475ZM63.39 118.149a.238.238 0 1 0-.001-.477.238.238 0 0 0 0 .477ZM62.159 115.509a.238.238 0 1 0 0-.477.238.238 0 0 0 0 .477ZM66.485 127.494h-7.243v.696h7.243v-.696Z" opacity=".1"/><path fill="#D4DFEC" d="M67.555 121.303h-9.463v6.647h9.463v-6.647Z"/><path fill="#000" d="M64.222 120.391a.238.238 0 1 0 0-.477.238.238 0 0 0 0 .477ZM62.794 120.688a.238.238 0 1 0 0-.475.238.238 0 0 0 0 .475Z" opacity=".1"/></g><defs><linearGradient id="b" x1="39.341" x2="39.341" y1="127.93" y2="39.764" gradientUnits="userSpaceOnUse"><stop stop-color="gray" stop-opacity=".25"/><stop offset=".54" stop-color="gray" stop-opacity=".12"/><stop offset="1" stop-color="gray" stop-opacity=".1"/></linearGradient><linearGradient id="c" x1="39224.3" x2="39224.3" y1="54940.5" y2="6127.73" gradientUnits="userSpaceOnUse"><stop stop-color="gray" stop-opacity=".25"/><stop offset=".54" stop-color="gray" stop-opacity=".12"/><stop offset="1" stop-color="gray" stop-opacity=".1"/></linearGradient><clipPath id="a"><path fill="#fff" d="M.546 0h178.909v130H.545z"/></clipPath></defs></svg>