<svg xmlns="http://www.w3.org/2000/svg" width="300" height="172" fill="none"><g clip-path="url(#a)"><path fill="#00BAFC" d="M180.346 123.829c5.795-.331 12.986-4.262 18.577-6a875.299 875.299 0 0 1 19.93-5.924 866.489 866.489 0 0 1 70.403-16.888c2.213-.436 4.43-.86 6.65-1.275a47.072 47.072 0 0 0-15.54-18.663c.172-1.636.26-3.28.262-4.925 0-25.998-20.777-47.074-46.416-47.074a45.673 45.673 0 0 0-22.526 5.913c-18.147-11.937-41.832-19.162-67.747-19.162-36.823 0-69.15 14.589-87.466 36.556l86.087 14.544 52.799 8.916c-60.192 1.797-120.57 3.582-180.588-.634a47.575 47.575 0 0 0-6.85 60.052c0 .941.04 1.875.111 2.801 1.529.438 3.005.862 4.33 1.14a950.47 950.47 0 0 0 64.19 11.277c-15.868 9.784-35.192 11.168-53.496 15.312 8.863 7.316 20.9 11.8 34.164 11.8h197.496c21.386 0 38.72-14.887 38.72-33.254a47.276 47.276 0 0 0 6.294-17.279c-39.572 3.821-79.637.504-119.384 2.767Z" opacity=".1"/><path fill="#00BAFC" d="M300.001 113.24a47.203 47.203 0 0 0-19.931-38.66 48.46 48.46 0 0 0 .263-4.922c0-25.998-20.788-47.066-46.416-47.066a45.702 45.702 0 0 0-22.529 5.91C193.241 16.56 169.553 9.334 143.639 9.334c-42.153 0-78.436 19.13-94.527 46.563a46.047 46.047 0 0 0-2.7-.081C20.78 55.815-.006 76.89-.006 102.889a47.342 47.342 0 0 0 7.637 25.875c0 23.392 22.077 42.354 49.3 42.354h197.502c21.383 0 38.717-14.89 38.717-33.257a47.342 47.342 0 0 0 6.85-24.621Z" opacity=".1"/><path fill="url(#b)" d="M245.003 84.399a2.923 2.923 0 0 0-1.279-.561c-.491-.113-.992-.184-1.49-.263l-6.456-.93a7.612 7.612 0 0 0-1.978-.105 2.507 2.507 0 0 0-1.72.891 1.342 1.342 0 0 0-.299.84c.036.307.136.603.294.87.062.124.116.253.16.385.062.297.139.59.231.879.028.062.065.12.11.173a.332.332 0 0 1 0 .044c-.071.362.157.74.055 1.089-.089.299-.38.48-.564.729a1.1 1.1 0 0 0-.026 1.209c.197.304.553.511.655.86.134.459-.228.902-.55 1.256a19.432 19.432 0 0 0-1.642 2.069c-.14.179-.231.391-.262.616-.029.457.409.858.333 1.311-.06.357-.409.575-.711.787-1.114.734-2.008 1.915-2.098 3.25a11.382 11.382 0 0 0-2.538-5.77c-.375-.451-.787-.905-.942-1.476-.057-.229-.068-.472-.146-.693-.263-.694-1.097-.993-1.461-1.633-.262-.451-.262-1.031-.587-1.427-.326-.396-.837-.485-1.118-.868-.14-.26-.259-.53-.356-.808a1.768 1.768 0 0 0-.606-.668.411.411 0 0 0 .139-.31c0-.307-.304-.508-.569-.66a16.25 16.25 0 0 1-.999-.622 2.34 2.34 0 0 0 .894-.732c.291-.47.411-1.025.341-1.573a1.988 1.988 0 0 0-.469-1.204c-.166-.176-.373-.301-.546-.467-.448-.438-.6-1.085-.787-1.683-.246-.787-.632-1.613-1.35-2.03-.346-.202-.75-.296-1.088-.509-.339-.212-.622-.613-.504-.999.079-.262.323-.443.488-.666a1.325 1.325 0 0 0-.333-1.835c-.194-.124-.433-.231-.472-.457a.83.83 0 0 1-.609-.645 2.484 2.484 0 0 1 0-.934c.069-.487.136-.973.202-1.458a.953.953 0 0 0 .729 0c.227.369.491.713.787 1.028.799.943 1.42 2.023 1.836 3.187.149.42.301.889.689 1.112.134.075.286.115.417.196.162.113.301.255.409.42.315.417.63.831.942 1.248l.016.063a.336.336 0 0 0 .042.105.347.347 0 0 0 .225.115c.965.223 2.048.428 2.885-.1.755-.472 1.085-1.405 1.725-2.03.454-.442 1.096-.786 1.225-1.41a4.604 4.604 0 0 1-.451-.165c.131-.131.262-.283.44-.456.259-.254.493-.533.698-.832.221-.369.397-.763.524-1.175l1.521-4.324c.242-.682.483-1.369.787-2.032.315-.719.687-1.408 1.031-2.114a28.121 28.121 0 0 0 2.04-5.743c.083-.27.111-.555.081-.836-.073-.454-.417-.81-.745-1.133a5.445 5.445 0 0 0-1.117-.926 1.83 1.83 0 0 0-1.4-.225c-.671.196-1.094.883-1.248 1.573-.155.69-.097 1.4-.163 2.098-.094 1.01-.44 1.985-.524 2.997-.045.585 0 1.178-.071 1.762a6.432 6.432 0 0 1-.787 2.172 14.049 14.049 0 0 1-3.391 4.18c-.16.134-.325.262-.482.406 0-.112.018-.228.034-.34a2.05 2.05 0 0 0-.333.117c.013-.132 0-.266-.039-.393-.21-.627-1.144-.787-1.312-1.424a2.938 2.938 0 0 1-.044-.477c-.055-.559-.435-1.03-.567-1.574-.12-.5-.028-1.049-.262-1.513a4.244 4.244 0 0 0-.697-.787 3.074 3.074 0 0 1-.664-1.25c-.034-.129-.065-.263-.102-.391.04-.291.007-.587-.095-.863-.238-.593-.854-.973-1.077-1.573-.173-.467-.097-1.05-.425-1.411a1.53 1.53 0 0 0-.622-.375 13.819 13.819 0 0 0-3.742-.884c-.718-.065-1.51-.102-2.024-.608-.601-.588-.63-1.644-1.332-2.098-.619-.401-1.495-.105-1.975.459a2.43 2.43 0 0 0-.199.262 2.782 2.782 0 0 1-.055-1.075c0-.09.018-.181.026-.262a5.244 5.244 0 0 0 2.842-2.245v.016l.032.08c.076.192.197.376.375.397a.526.526 0 0 0 .325-.118 2.694 2.694 0 0 0 .624-.606 3.136 3.136 0 0 0 .572-1.403c.047-.304.052-.616.105-.92.049-.236.113-.468.191-.695.026-.076.053-.152.076-.228l.084-.263c.164-.539.253-1.099.262-1.662v-.283a2.762 2.762 0 0 0-.881-1.954c-.451-.37-1.049-.525-1.379-1.026-.215-.335-.262-.768-.388-1.161a2.618 2.618 0 0 0-2.061-1.854 2.297 2.297 0 0 0-1.632.448l-.036.03c-.26.198-.481.443-.651.723a2.169 2.169 0 0 1-.923-.525c-.262-.243-.464-.55-.729-.786a1.872 1.872 0 0 0-1.867-.394 2.234 2.234 0 0 0-1.335 1.53c-.144.54-.118 1.16-.419 1.612-.234.351-.616.524-.884.844-.166.203-.28.443-.33.7-.032.144-.047.291-.045.438 0 .066 0 .132.016.194v.032a1.838 1.838 0 0 0 .435.931 1.722 1.722 0 0 0 .936.553l.312.071.111.026a5.232 5.232 0 0 0-.147 4.618c0 .074-.019.147-.027.22a18.155 18.155 0 0 0 .137 3.092c.037.407.057.855-.192 1.178-.113.127-.241.24-.38.338.142-.184.286-.364.433-.545-.37-.373-.955-.42-1.479-.383a6.853 6.853 0 0 0-2.885.88c-.587.34-1.19.788-1.862.709-.396-.045-.786-.262-1.172-.157a2.36 2.36 0 0 0-.6.356.815.815 0 0 1-.493.152c-.412-.506-1.049-.85-1.542-1.261-.562-.5-1.075-1.05-1.535-1.644a291.096 291.096 0 0 1-2.53-3.09c-.703-.87-1.424-1.812-1.547-2.926a2.853 2.853 0 0 1-.019-.333c.017-.53.084-1.056.2-1.574a.79.79 0 0 0 0-.38c-.079-.262-.381-.359-.64-.417.034-.202.057-.409.071-.605.146-2.256-.014-4.548.464-6.756.181-.85.477-1.71 1.088-2.326.957-.967 2.559-1.2 3.294-2.347.613-.954.369-2.305-.401-3.147-.771-.841-1.959-1.185-3.09-1.143-.317-.01-.63.073-.899.241-.252.224-.44.51-.546.829l-1.125 2.735a16.546 16.546 0 0 0-.823 2.198c-.315 1.148-.385 2.36-.635 3.519 0 .891-.574 2.003-.889 2.824-.351.923-.731 1.836-1.049 2.777-.078.236-.354.936-.524 1.574a.973.973 0 0 0-.178.133 4.75 4.75 0 0 0-.373.554c-.238.314-.626.482-.889.786-.262.305-.317.863.047 1.015.074.025.151.042.229.05a.88.88 0 0 1 .141.024c.394.11.548.605.491 1.015-.058.409-.263.786-.297 1.195-.071.724.354 1.398.763 2.007.424.659.892 1.289 1.401 1.885.37.414.786.787 1.159 1.185 1.419 1.458 2.546 3.163 3.821 4.747.458.598.979 1.145 1.555 1.63.375.295.769.565 1.177.811l2.192 1.39c.249.182.53.315.829.39.098.014.196.014.294 0 .013.066.023.13.039.195.171.687.546 1.311.588 2.011.042.7-.021 1.416.028 2.124.048.653.192 1.312.229 1.954.073 1.238-.231 2.46-.525 3.671-.443 1.773-.711 3.583-1.573 5.19-.242.443-.525.894-.525 1.4 0 .06 0 .124.016.184l-.393.223a6.412 6.412 0 0 0-.336.2c-.498.324-1.031.684-1.235 1.245-.165.454-.089.973-.289 1.413a.64.64 0 0 1-.031.058c-.21.41-.627.713-.721 1.162-.071.343.065.708 0 1.049v.013c-.06.171-.107.346-.142.524a.63.63 0 0 0 .016.173c.05.199.16.377.315.512.094.09.197.172.306.244.112.073.228.141.346.204l.069.037c.099.052.199.102.301.15l.068.028c.118.053.239.1.36.142l.084.026c.094.031.191.06.288.084l.066.02.06.014.262.055.097.018c.116.02.234.035.354.048h.105c.089 0 .176.013.262.015h.48c.124 0 .247-.018.37-.034h.039c.11-.015.221-.034.331-.057l.084-.019c.102-.023.204-.047.307-.079l.055-.015a4.72 4.72 0 0 0 .367-.123 9.63 9.63 0 0 0 1.211-.601c.262-.144.525-.291.787-.425.194-.098.394-.185.598-.262a3.374 3.374 0 0 1 1.573-.262c.266.036.529.09.787.16v.086c.213 1.259.424 2.518.632 3.776a7.634 7.634 0 0 1 1.086-.653 2.301 2.301 0 0 0-.139 1.06c.023.249.076.524-.074.721-.092.12-.262.189-.312.325a1.12 1.12 0 0 0-.026.428.686.686 0 0 1-.624.634.996.996 0 0 1-.396 1.17 1.37 1.37 0 0 0-.304.2.907.907 0 0 0-.176.395 7.01 7.01 0 0 1-2.053 3.375 6.567 6.567 0 0 0-1.015.991 4.464 4.464 0 0 0-.459.905c-.699 1.71-1.409 3.421-2.13 5.132-.398.957-.786 1.93-.912 2.961-.315 2.827-2.832 5.224-2.36 8.03.095.7.378 1.363.818 1.916.524.632 1.311.994 2.098 1.288 2.022.787 4.154 1.217 6.278 1.65l3.335.684a14.53 14.53 0 0 0 1.988.315c.805.055 1.631-.021 2.415.183.486.126.95.359 1.451.386.43.023.959-.068 1.214.283.254.351.057.815.299 1.128.388.495 1.335 0 1.757.466.115.18.203.375.262.58.064.127.153.239.262.33.026.148.036.299.032.449a7.75 7.75 0 0 1-.378 1.788c-.315 1.065-.628 2.13-.941 3.197a6.99 6.99 0 0 0-.263 1.154c-.019.19-.019.381 0 .571.055.58.389 1.178.942 1.367.429.113.886.057 1.274-.158a5.63 5.63 0 0 0 1.049-.708 7.14 7.14 0 0 0 1.513-1.557c1.312-1.962.887-4.616 1.807-6.785.611-1.447 1.802-2.622 2.198-4.148.092-.291.103-.601.031-.897-.165-.524-.724-.823-1.245-1.012h-.024a10.703 10.703 0 0 0-1.311-.375c-.11-.024-.223-.042-.336-.061a2.053 2.053 0 0 1-.579-.755 1.74 1.74 0 0 0-.124-.453.461.461 0 0 0-.377-.21c-.263-.026-.614.068-.9.047-.585-.042-.973-.616-1.497-.881-.525-.265-1.094-.199-1.652-.16-.2.027-.403.015-.598-.037a2.232 2.232 0 0 1-.63-.433 2.638 2.638 0 0 0-2.31-.464 2.503 2.503 0 0 1-.787.179c-.511-.029-.873-.485-1.25-.832-1.034-.946-2.505-1.195-3.758-1.817a.855.855 0 0 1-.451-.388c-.145-.357.181-.713.474-.957l2.156-1.791c2.36-1.962 5.31-3.438 6.406-6.315a3.67 3.67 0 0 1 .525-1.078c.085-.1.183-.188.291-.262a2.204 2.204 0 0 1 1.613-.315c.68.152 1.324.434 1.898.829.939.568 1.853 1.18 2.741 1.836a24.145 24.145 0 0 1 2.504 2.056c1.377 1.311 2.523 2.866 3.805 4.279 1.282 1.414 2.748 2.733 4.529 3.409 1.781.677 3.934.648 5.462-.487 1.765-1.312 2.332-3.656 2.777-5.806.984-.95 1.28-2.395 1.76-3.672.302-.81.687-1.573 1.012-2.381.388-.95.693-1.93.997-2.908.345-.982.579-2 .697-3.034.126-1.634-.312-3.372.147-4.907.606-.133 1.157-.474 1.752-.674.886-.29 1.836-.243 2.774-.238h.061c.323.034.649-.043.923-.218.315-.262.364-.71.38-1.117.037-1.004-.026-2.132-.779-2.782Zm-37.995-44.733c-.217.054-.442.07-.664.047l.664-.047Z"/><path fill="#BE6F72" d="M208.041 56.255c-.317.27-.689.468-1.091.58l-1.859.666c-1.009.362-2.064.726-3.128.595-.596-.073-3.147-.448-3.533-.912-.587-.719 1.471-1.776 2.174-2.381.16-.115.307-.245.441-.389.262-.32.228-.768.191-1.172a18.093 18.093 0 0 1-.136-3.086c.02-.246.055-.49.105-.732.262-1.206 1.384-.766 2.271-.446 1.067.347 2.098.794 3.081 1.335.299.154.559.375.761.645.388.587.233 1.358.17 2.098-.055.574-.052 1.125.307 1.542.181.16.346.335.495.524a.98.98 0 0 1-.249 1.133ZM182.357 37.356c.262-1.162.32-2.36.635-3.512.222-.748.497-1.48.823-2.19l1.157-2.698a1.91 1.91 0 0 1 .545-.826c.27-.167.583-.25.9-.24 1.13-.043 2.318.308 3.089 1.14.771.831 1.015 2.176.401 3.128-.734 1.146-2.336 1.377-3.294 2.342-.611.616-.907 1.474-1.088 2.32-.477 2.204-.317 4.488-.464 6.738-.047.7-.184 1.5-.787 1.862-.364.178-.77.257-1.175.228l-1.72.029c-.288 0-1.335.18-1.526-.037-.336-.38.43-2.274.569-2.696.309-.936.69-1.849 1.049-2.77.312-.82.886-1.93.886-2.818Z"/><path fill="#3F3D56" d="M217.877 119.741c-.396 1.515-1.586 2.695-2.197 4.14-.921 2.164-.506 4.81-1.807 6.766a7.153 7.153 0 0 1-1.513 1.56 5.62 5.62 0 0 1-1.049.706 1.726 1.726 0 0 1-1.275.157c-.553-.189-.886-.787-.941-1.364a2.706 2.706 0 0 1 0-.569c.055-.39.143-.775.262-1.151.315-1.061.629-2.124.942-3.189a7.759 7.759 0 0 0 .377-1.783c.034-.661-.385-1.521-.207-2.137.081-.278.385-.525.524-.758.198-.336.349-.697.451-1.073.216-.731.362-1.513.813-2.129a5.021 5.021 0 0 1 1.023-.957 2.71 2.71 0 0 1 .976-.548 2.369 2.369 0 0 1 1.049.05c.444.095.882.219 1.311.372h.023c.525.189 1.081.48 1.246 1.01.08.294.078.604-.008.897ZM245.779 87.501c-.015.406-.065.86-.38 1.115a1.43 1.43 0 0 1-.923.217h-.071c-.936 0-1.888-.052-2.774.239-.674.223-1.293.632-1.996.713-.967.11-1.877-.42-2.735-.881a27.174 27.174 0 0 0-2.483-1.18c-.556-.228-1.692-.375-1.959-.983a8.83 8.83 0 0 1-.231-.876 2.836 2.836 0 0 0-.16-.386 2.232 2.232 0 0 1-.294-.868c.001-.305.107-.602.299-.839a2.514 2.514 0 0 1 1.718-.884 7.598 7.598 0 0 1 1.977.105l6.457.928c.498.071.999.142 1.489.263.466.08.905.273 1.28.56.763.64.826 1.766.786 2.757Z"/><path fill="#65617D" d="M240.105 89.18c-.787 1.66-.22 3.623-.362 5.46a13.963 13.963 0 0 1-.697 3.025c-.304.976-.609 1.954-.997 2.901-.325.786-.71 1.573-1.012 2.376-.48 1.279-.787 2.719-1.76 3.671-.445 2.145-1.012 4.489-2.777 5.79-1.534 1.133-3.671 1.172-5.462.488-1.791-.685-3.247-1.996-4.529-3.409-1.282-1.414-2.428-2.953-3.805-4.269a23.86 23.86 0 0 0-2.51-2.054 39.068 39.068 0 0 0-2.74-1.82 5.506 5.506 0 0 0-1.899-.826 2.2 2.2 0 0 0-1.612.315 1.457 1.457 0 0 0-.292.262c-.233.327-.41.69-.524 1.075-1.101 2.869-4.057 4.343-6.417 6.299l-2.156 1.786c-.293.244-.618.601-.474.955a.859.859 0 0 0 .451.388c1.253.619 2.724.868 3.758 1.812.377.346.739.802 1.251.828.27-.015.535-.075.786-.175a2.647 2.647 0 0 1 2.311.461c.183.179.396.326.629.433.195.052.398.064.598.037.558-.04 1.151-.089 1.652.16.501.249.913.836 1.497.878.286.021.627-.073.9-.047a.474.474 0 0 1 .377.21c.062.144.103.296.124.451.107.37.469.595.705.899.362.467.414 1.102.378 1.692a7.216 7.216 0 0 1-2.297 4.83 2.845 2.845 0 0 1-1.414.787 1.316 1.316 0 0 1-1.4-.622 2.194 2.194 0 0 0-.262-.577c-.423-.464-1.369.029-1.757-.466-.242-.31-.069-.805-.299-1.125-.231-.32-.787-.263-1.215-.281-.5-.026-.965-.262-1.45-.385-.786-.205-1.61-.129-2.415-.184a14.53 14.53 0 0 1-1.988-.315l-3.335-.681c-2.125-.433-4.257-.871-6.278-1.645-.774-.293-1.553-.655-2.098-1.285a3.921 3.921 0 0 1-.818-1.914c-.475-2.798 2.042-5.19 2.36-8.009.112-1.028.524-1.998.912-2.953.712-1.706 1.422-3.413 2.13-5.121.114-.318.264-.622.445-.907a6.586 6.586 0 0 1 1.015-.989 6.985 6.985 0 0 0 2.054-3.367.906.906 0 0 1 .175-.396c.093-.078.195-.144.305-.197a.992.992 0 0 0 .395-1.167.68.68 0 0 0 .625-.634 1.068 1.068 0 0 1 .026-.425c.063-.137.22-.205.312-.325.149-.197.097-.472.073-.719a2.455 2.455 0 0 1 0-.47 2.414 2.414 0 0 1 .703-1.465c.627-.616 1.518-.457 2.384-.603a13.645 13.645 0 0 0 2.517-.805 24.739 24.739 0 0 1 7.11-1.645c2.45-.192 4.911.2 7.18 1.144.33.133.641.31.925.524.202.156.368.353.486.58.096.277.216.546.356.805.281.383.81.506 1.117.868.307.362.333.973.588 1.421.364.64 1.209.936 1.46 1.631.079.22.09.462.147.69.142.572.567 1.023.942 1.474a11.332 11.332 0 0 1 2.538 5.769c.084-1.33.978-2.507 2.098-3.241.302-.197.65-.415.711-.771.076-.451-.362-.853-.333-1.312.032-.224.122-.435.262-.613.5-.725 1.048-1.414 1.642-2.064.322-.354.684-.787.55-1.254-.102-.348-.459-.553-.655-.857a1.087 1.087 0 0 1 .026-1.206c.183-.25.474-.43.564-.727.102-.349-.126-.726-.055-1.085.095-.288.286-.535.54-.7a4.487 4.487 0 0 1 1.172-.772c.692-.262 1.463-.165 2.198-.062 1.227.17 2.604.432 3.296 1.46.443.643.669 1.618.338 2.305Z"/><path fill="#000" d="M245.78 87.501c-.016.406-.066.86-.381 1.114a1.431 1.431 0 0 1-.923.218h-.071c.108-.545.771-.857.887-1.41a1.255 1.255 0 0 0-.289-.953c-.561-.757-1.463-1.177-2.36-1.484a15.634 15.634 0 0 0-7.883-.59 7.934 7.934 0 0 0-2.071.637 6.756 6.756 0 0 0-.63.446 2.214 2.214 0 0 1-.293-.868c.001-.305.106-.602.299-.839a2.51 2.51 0 0 1 1.717-.884 7.608 7.608 0 0 1 1.978.105l6.456.928c.498.071.999.142 1.489.263.466.08.905.273 1.28.56.771.64.834 1.766.795 2.757ZM217.877 119.74c-.396 1.516-1.586 2.696-2.197 4.141-.921 2.164-.507 4.81-1.807 6.766a7.153 7.153 0 0 1-1.513 1.56 5.62 5.62 0 0 1-1.049.706c-.389.214-.845.27-1.275.157-.553-.189-.886-.787-.941-1.364a2.706 2.706 0 0 1 0-.569l.016.042c.228.551.6 1.128 1.188 1.225.22.016.441-.014.65-.087.208-.074.399-.19.561-.341.865-.694 1.369-1.73 1.849-2.729.375-.721.673-1.48.886-2.264.105-.445.155-.902.262-1.347.499-2.167 2.195-3.934 2.57-6.129.031-.151.038-.306.021-.459a2.31 2.31 0 0 0-.225-.572 2.868 2.868 0 0 1-.2-.634c.525.189 1.081.48 1.246 1.009.068.295.053.603-.042.889ZM213.918 115.98a3.794 3.794 0 0 1-1.183 1.615 5.768 5.768 0 0 1-2.546 1.102c-.431.11-.883.104-1.311-.016-.583-.202-1.002-.747-1.597-.905-.425-.115-.882-.013-1.312-.076-.773-.107-1.374-.697-1.998-1.169-1.912-1.437-4.421-1.901-6.333-3.339a.584.584 0 0 1-.204-.212.624.624 0 0 1-.04-.296 6.016 6.016 0 0 1 .575-2.52 8.771 8.771 0 0 1 1.08-1.54c1.712-2.098 3.433-4.211 5.483-5.981.86-.743 1.799-1.435 2.885-1.77.603-.187 1.794-.362 2.528-.048a1.453 1.453 0 0 0-.291.263c-.234.326-.411.69-.525 1.075-1.104 2.871-4.059 4.345-6.419 6.301l-2.156 1.786c-.294.244-.619.601-.474.955a.859.859 0 0 0 .451.388c1.253.619 2.724.868 3.757 1.812.378.346.74.802 1.251.829.27-.016.536-.076.787-.176a2.643 2.643 0 0 1 2.31.461c.184.179.397.326.63.433.195.052.398.064.598.037.558-.04 1.151-.089 1.652.16.501.249.912.836 1.497.878.291.021.632-.078.905-.047Z" opacity=".1"/><path fill="#3F3D56" d="M189.8 80.39c-.499.32-1.028.681-1.233 1.237-.168.454-.089.973-.291 1.413-.202.44-.656.748-.755 1.22-.071.343.068.705 0 1.049-.06.178-.108.36-.145.545-.026.39.31.708.638.926a5.322 5.322 0 0 0 4.765.524c.7-.262 1.332-.69 2.003-1.025a3.964 3.964 0 0 1 2.158-.525c.433.048.847.205 1.28.263a1.341 1.341 0 0 0 1.198-.357c.134-.184.224-.397.263-.621.364-1.44.199-2.966-.147-4.414-.346-1.447-.871-2.84-1.241-4.28-.262-1.067-.464-2.16-.902-3.17-.438-1.01-1.175-1.948-2.205-2.334a.411.411 0 0 0-.262-.034.45.45 0 0 0-.171.126 8.074 8.074 0 0 0-1.799 3.026c-.411 1.256-.524 2.588-.902 3.85-.162.524-.372 1.227-.787 1.628-.414.401-.996.65-1.465.952Z"/><path fill="#000" d="M199.689 85.03a1.532 1.532 0 0 1-.275.622 1.332 1.332 0 0 1-1.199.354c-.43-.052-.844-.212-1.277-.262a3.955 3.955 0 0 0-2.158.525c-.671.335-1.311.752-2.006 1.022a5.295 5.295 0 0 1-3.181.181 5.118 5.118 0 0 1-1.573-.692c-.331-.215-.664-.525-.638-.926.037-.184.085-.365.145-.543.068-.343-.069-.705 0-1.049.099-.472.555-.786.755-1.222.199-.435.123-.957.288-1.41.205-.56.737-.918 1.235-1.24.499-.323 1.091-.57 1.49-.96.051-.062.098-.126.139-.195.287-.443.498-.931.624-1.445.385-1.264.49-2.593.899-3.852a8.099 8.099 0 0 1 1.802-3.024.4.4 0 0 1 .168-.125.42.42 0 0 1 .262.031c1.028.388 1.765 1.327 2.206 2.337.44 1.01.626 2.097.902 3.167.367 1.44.894 2.838 1.24 4.283.346 1.445.517 2.981.152 4.424ZM207.488 53.048a5.245 5.245 0 0 1-6.388-2.884c.02-.246.055-.49.105-.732.262-1.206 1.384-.766 2.27-.446 1.067.347 2.099.794 3.082 1.335.299.154.559.375.76.645.388.58.234 1.35.171 2.082Z" opacity=".1"/><path fill="#BE6F72" d="M205.904 53.032a5.245 5.245 0 1 0 0-10.49 5.245 5.245 0 0 0 0 10.49Z"/><path fill="#000" d="M220.136 86.982c0 .435-.59.574-1.028.55-1.574-.091-3.113-.524-4.671-.393-1.969.178-3.779 1.267-5.753 1.366-.761.04-1.534-.073-2.284.066-.971.18-1.836.77-2.825.855-.857.073-1.704-.25-2.562-.215a4.116 4.116 0 0 0-1.712.488 2.408 2.408 0 0 1 .703-1.466c.626-.617 1.518-.457 2.383-.604a13.63 13.63 0 0 0 2.518-.805 24.731 24.731 0 0 1 7.109-1.644 15.518 15.518 0 0 1 7.177 1.136c.331.133.642.31.926.524a.4.4 0 0 1 .019.142Z" opacity=".1"/><path fill="#E3E8F4" d="m203.478 57.365-2.124-.787-.897-.33a4.33 4.33 0 0 0-1.143-.305c-1.028-.078-1.996.606-2.544 1.48-.548.873-.755 1.914-.931 2.928a79.618 79.618 0 0 0-.613 4.18 27.33 27.33 0 0 0-.276 3.813c.061 3.247.748 6.449 1.503 9.609.37 1.4.649 2.824.836 4.261.063.593.092 1.188.155 1.784.068.668.178 1.329.289 1.992l.632 3.769c.786-.559 1.68-1.05 2.648-1.078.858-.031 1.707.288 2.562.215.984-.081 1.854-.671 2.825-.852.75-.14 1.523-.03 2.286-.066 1.972-.1 3.784-1.19 5.751-1.366 1.56-.142 3.11.299 4.673.39.435.027 1.026-.112 1.026-.55 0-.304-.305-.506-.57-.658a28.111 28.111 0 0 1-3.553-2.536c-1.033-.818-2.082-1.657-2.793-2.764-1.712-2.662-1.125-6.262-2.585-9.07-1.188-2.282 0-5.272 0-7.844 0-1.283 0-2.58-.302-3.826a16.07 16.07 0 0 0-.703-2.046l-1.02-2.583a.425.425 0 0 0-.12-.197.405.405 0 0 0-.234-.07 2.46 2.46 0 0 0-1.694.542c-.48.391-.787.952-1.259 1.359-.516.448-1.182.842-1.825.606Z"/><path fill="#3F3D56" d="M206.905 55.875c.168-.718.349-1.466.829-2.027.48-.561 1.356-.858 1.975-.456.703.456.731 1.51 1.332 2.098.524.503 1.311.542 2.024.608 1.283.117 2.543.413 3.743.881.234.073.447.2.621.373.328.372.262.944.425 1.408.223.598.839.978 1.078 1.573.262.661 0 1.4-.221 2.08-.396 1.22-.645 2.486-1.03 3.71-.386 1.225-.934 2.431-1.836 3.354-.398.41-.991.787-1.516.543l-.201 1.456a2.47 2.47 0 0 0 0 .93.827.827 0 0 0 .608.646c.039.225.278.333.472.456a1.308 1.308 0 0 1 .333 1.836c-.165.223-.409.398-.488.663-.118.383.163.787.504.997.341.21.742.306 1.088.508.719.415 1.104 1.23 1.351 2.022.183.598.335 1.246.786 1.681.173.165.38.291.546.464.286.338.451.762.469 1.204a2.39 2.39 0 0 1-.341 1.573c-.524.75-1.502.973-2.36 1.312-1.392.571-2.538 1.594-3.766 2.465-.5.402-1.088.68-1.717.807-.85.113-1.687-.262-2.541-.296a6.31 6.31 0 0 0-1.516.2l-1.574.34c.084-1.22-.587-2.441-.962-3.603-.708-2.187-.839-4.526-.671-6.818.168-2.292.634-4.553 1.096-6.803.322-1.573.291-3.217.787-4.746.464-1.471 1.127-2.885 1.371-4.416.399-2.478-1.259-4.579-.698-7.023Z"/><path fill="#3F3D56" d="M218.834 60.724c.145.266.247.554.302.852.121.462.348.89.663 1.248.264.233.498.497.698.787.241.456.149 1.012.262 1.51.131.544.511 1.016.567 1.574.001.16.016.32.044.477.171.635 1.104.787 1.311 1.422.139.411-.099.86-.055 1.293.033.133.041.272.024.409a.834.834 0 0 1-.299.382 6.033 6.033 0 0 0-1.726 3.071 17.564 17.564 0 0 0-.396 3.548l-1.025-1.355a1.558 1.558 0 0 0-.409-.42c-.131-.079-.283-.118-.417-.197-.388-.22-.54-.687-.69-1.106a10.232 10.232 0 0 0-1.835-3.179c-.417-.49-.902-.983-.994-1.62a2.96 2.96 0 0 1 .047-.876c.262-1.718.543-3.477 1.379-5.001.391-.713.897-1.358 1.272-2.082.252-.48.606-1.728 1.277-.737ZM192.965 62.373c.005.221-.051.439-.162.63a.828.828 0 0 1-.829.262 2.395 2.395 0 0 1-.828-.388l-2.193-1.387a12.097 12.097 0 0 1-1.177-.808 10.487 10.487 0 0 1-1.555-1.629c-1.275-1.573-2.402-3.28-3.821-4.72-.386-.393-.787-.77-1.159-1.182a17.325 17.325 0 0 1-1.401-1.883c-.409-.606-.833-1.278-.763-2.001.042-.41.239-.787.297-1.194.057-.406-.097-.902-.491-1.012a.88.88 0 0 0-.141-.023 1.06 1.06 0 0 1-.228-.05c-.365-.152-.31-.716-.048-1.012.263-.297.651-.462.889-.787a4.75 4.75 0 0 1 .373-.553c.175-.151.385-.256.611-.307a9.452 9.452 0 0 1 4.654-.176c.263.058.562.163.64.417a.755.755 0 0 1 0 .378 8.504 8.504 0 0 0-.199 1.573c0 .11.006.22.018.33.124 1.112.845 2.054 1.548 2.922a277.521 277.521 0 0 0 2.53 3.081c.46.593.973 1.142 1.534 1.64.525.434 1.204.786 1.613 1.344.333.451.226 1.068.262 1.61a35.66 35.66 0 0 1 .026 4.925Z"/><path fill="#BE6F72" d="M226.27 73.314c.259-.252.492-.529.697-.826.22-.369.397-.762.525-1.172l1.521-4.314c.241-.682.482-1.366.786-2.03.315-.716.687-1.405 1.031-2.098a27.965 27.965 0 0 0 2.037-5.703c.083-.271.111-.556.082-.837-.074-.454-.417-.808-.745-1.13a5.456 5.456 0 0 0-1.117-.923 1.835 1.835 0 0 0-1.401-.226c-.671.197-1.093.884-1.248 1.574-.154.69-.097 1.395-.162 2.098-.095 1.007-.441 1.98-.525 2.989-.044.585 0 1.175-.071 1.757a6.416 6.416 0 0 1-.786 2.169 14.086 14.086 0 0 1-3.391 4.17c-.38.28-.722.609-1.018.978a3.205 3.205 0 0 0-.49 1.221 2.815 2.815 0 0 0 .212 1.986c.428.729 1.249 1.049 2.033 1.211 1.059.22 1.303-.141 2.03-.894Z"/><path fill="#3F3D56" d="M205.936 40.188a2.444 2.444 0 0 1 2.375-1.288 2.625 2.625 0 0 1 2.062 1.852c.123.39.173.823.388 1.159.325.506.928.653 1.379 1.02a2.762 2.762 0 0 1 .881 1.951c.025.75-.093 1.5-.349 2.206-.108.3-.196.61-.262.923-.052.304-.057.613-.105.917a2.982 2.982 0 0 1-1.203 1.986.526.526 0 0 1-.325.118c-.205-.024-.331-.263-.407-.478-.417-1.203-.317-2.675-1.086-3.634a3.966 3.966 0 0 0-1.243-.926 1.6 1.6 0 0 0-.634-.239 1.67 1.67 0 0 0-.918.336 5.723 5.723 0 0 1-1.815.803 2.23 2.23 0 0 1-1.875-.404c-.362-.3-.627-.748-1.028-.981-.401-.234-.821-.22-1.217-.38a1.807 1.807 0 0 1-1.062-2.008 1.81 1.81 0 0 1 .333-.74c.263-.315.651-.494.884-.842.302-.452.276-1.07.42-1.61a2.212 2.212 0 0 1 1.335-1.524 1.874 1.874 0 0 1 1.867.39c.262.237.472.54.729.787a2.094 2.094 0 0 0 1.94.525"/><path fill="#000" d="M210.246 78.787a1.01 1.01 0 0 0-.31.513c-.05.198-.039.407.032.599.058.123 2.764-.399 3.05-.438.713-.102 1.964-.053 2.444-.706.855-1.156-1.794-.9-2.279-.857-.923.079-2.234.204-2.937.889Z" opacity=".1"/><path fill="#3F3D56" d="M185.627 44.958a8.504 8.504 0 0 0-.199 1.574c-.787.16-1.605-.103-2.36-.365l-2.169-.74a.616.616 0 0 0-.829.155c-.348.362-.828 1.05-1.311 1.456a1.074 1.074 0 0 1-.228-.05c-.364-.152-.309-.716-.047-1.012.262-.297.65-.462.889-.787.111-.193.235-.378.372-.553.176-.151.386-.256.611-.307a9.457 9.457 0 0 1 4.655-.176c.262.058.561.163.64.417a.775.775 0 0 1-.024.388Z"/><path fill="#000" d="M185.627 44.958a8.504 8.504 0 0 0-.199 1.574c-.787.16-1.605-.103-2.36-.365l-2.169-.74a.616.616 0 0 0-.829.155c-.348.362-.828 1.05-1.311 1.456a1.074 1.074 0 0 1-.228-.05c-.364-.152-.309-.716-.047-1.012.262-.297.65-.462.889-.787.111-.193.235-.378.372-.553.176-.151.386-.256.611-.307a9.457 9.457 0 0 1 4.655-.176c.262.058.561.163.64.417a.775.775 0 0 1-.024.388ZM205.466 94.744c.377.126.787.31.915.687l-3.037-.771-1.573-.401c-.278-.071-1.275-.152-1.458-.37-.262-.32.669-.1.836-.076a49.42 49.42 0 0 1 1.524.246c.955.171 1.872.452 2.793.685ZM206.643 97.432c-.262-.176-1.015-.155-1.337-.23-.472-.114-.937-.263-1.401-.407-.941-.307-1.875-.656-2.842-.881-.179-.04-.787-.05-.758-.276.029-.225.608-.304.752-.315.858-.062 1.928.339 2.725.625 1.016.364 1.978.863 2.861 1.484ZM204.719 92.347c-.962-.262-1.836-.86-2.827-.975a1.15 1.15 0 0 1-.721-.22.839.839 0 0 1-.233-.42c.663-.034 1.434.246 2.037.511.332.142.651.313.955.509.22.134.55.52.789.595Z" opacity=".1"/><path fill="#3F3D56" d="M223.065 68.866a4.587 4.587 0 0 0 3.215 5.07c-.129.621-.771.964-1.225 1.408-.64.621-.97 1.552-1.725 2.024-.842.525-1.925.32-2.885.1a.35.35 0 0 1-.225-.118.317.317 0 0 1-.042-.102c-.318-1.162-.525-2.403-.2-3.567.263-.991.892-1.836 1.395-2.712.504-.875.551-1.814 1.692-2.103ZM199.618 53.83a6.819 6.819 0 0 0-2.885.878c-.587.336-1.19.787-1.862.706-.396-.045-.786-.263-1.172-.158a2.3 2.3 0 0 0-.6.357.68.68 0 0 1-.661.105l-.262 3.63c-.1 1.379-.197 2.787.133 4.132.171.687.546 1.311.588 2.009.042.697-.021 1.413.029 2.119.047.653.191 1.295.228 1.948.073 1.233-.231 2.455-.525 3.653-.443 1.767-.71 3.574-1.573 5.174-.241.443-.525.894-.525 1.398 0 .063 0 .123.016.183-.262.145-.506.28-.729.422-.498.323-1.031.682-1.235 1.24-.165.454-.089.974-.289 1.412-.199.438-.655.75-.755 1.222-.071.343.066.705 0 1.049a4.61 4.61 0 0 0-.144.543c-.026.393.307.71.637.925a5.134 5.134 0 0 0 1.574.692l1.565-6.215a50.035 50.035 0 0 0 3.548-8.252c.267-.932.61-1.84 1.026-2.717.296-.495.559-1.01.786-1.542.239-.66.263-1.377.378-2.074.137-.814.343-1.615.616-2.394.283-.842.611-1.681.669-2.565.086-1.264-.372-2.599.115-3.769a5.02 5.02 0 0 1 .8-1.203c.677-.829 1.293-1.697 1.97-2.526-.352-.375-.937-.414-1.461-.382Z"/><g fill="#000" opacity=".1"><path d="m207.007 39.325-.328.024-.036.026c.122-.005.244-.022.364-.05ZM213.008 44.77a7.103 7.103 0 0 1-.336 1.53c-.109.302-.196.61-.262.924-.053.304-.058.614-.105.918a2.983 2.983 0 0 1-1.204 1.985.523.523 0 0 1-.325.118c-.205-.024-.331-.262-.407-.477-.417-1.204-.317-2.675-1.085-3.635a3.98 3.98 0 0 0-1.243-.926 1.603 1.603 0 0 0-.635-.238 1.673 1.673 0 0 0-.918.335 5.706 5.706 0 0 1-1.814.803 2.232 2.232 0 0 1-1.875-.404c-.362-.299-.627-.747-1.028-.98-.402-.234-.821-.221-1.217-.381a1.794 1.794 0 0 1-1.023-1.17.843.843 0 0 1-.021-.1 1.796 1.796 0 0 0 1.044 2.056c.396.16.842.163 1.217.38.375.218.666.683 1.028.982a2.223 2.223 0 0 0 1.875.404 5.706 5.706 0 0 0 1.814-.803c.266-.2.586-.318.918-.336.226.034.443.115.635.239.465.228.881.545 1.224.934.769.96.669 2.43 1.086 3.634.076.218.202.454.407.477a.526.526 0 0 0 .343-.125 2.989 2.989 0 0 0 1.206-1.993c.048-.305.053-.614.105-.918a7.03 7.03 0 0 1 .262-.923 5.895 5.895 0 0 0 .349-2.206 5.078 5.078 0 0 1-.015-.105Z" opacity=".1"/></g><path fill="#00BAFC" d="m196.416 65.811-.178 2.395c-.026.325-.648 8.066-5.232 17.113-3.933 7.76-11.588 17.866-26.04 23.547a55.69 55.69 0 0 1-3.511 1.248l-1.353-4.248a49.721 49.721 0 0 0 9.76-4.27c7.366-4.253 13.094-10.324 17.087-18.136a48.714 48.714 0 0 0 4.485-13.19h-16.443V65.81h21.425Z"/><path fill="#fff" d="M163.196 108.868c14.449-5.68 22.106-15.784 26.037-23.544 4.584-9.047 5.208-16.783 5.232-17.113l.178-2.394h1.836l-.179 2.394c-.023.325-.647 8.066-5.231 17.113-3.934 7.76-11.589 17.864-26.038 23.544a55.116 55.116 0 0 1-3.514 1.251l-.178-.559a65.178 65.178 0 0 0 1.857-.692Z" opacity=".1"/><path fill="#00BAFC" d="m134.266 105.866-1.353 4.248a55.116 55.116 0 0 1-3.514-1.251c-14.45-5.68-22.107-15.784-26.038-23.544-4.584-9.047-5.208-16.783-5.232-17.113l-.178-2.395h21.415v4.458h-16.445a48.728 48.728 0 0 0 4.497 13.19c3.994 7.813 9.719 13.884 17.085 18.135a49.584 49.584 0 0 0 9.763 4.272Z"/><path fill="#fff" d="M131.166 108.868c-14.449-5.68-22.107-15.784-26.038-23.544-4.583-9.047-5.208-16.783-5.231-17.113l-.178-2.394h-1.836l.178 2.394c.024.325.648 8.066 5.232 17.113 3.933 7.76 11.588 17.864 26.037 23.544 1.128.446 2.299.863 3.514 1.251l.179-.559a70.05 70.05 0 0 1-1.857-.692Z" opacity=".1"/><path fill="#00BAFC" d="M171.921 146.932v24.039h-49.477v-24.039l1.574-2.098c16.033-5.691 19.282-20.531 19.93-26.402.096-.812.151-1.627.165-2.444h6.118c.014.817.069 1.632.165 2.444.658 5.871 3.908 20.717 19.93 26.402l1.595 2.098Z"/><path fill="#000" d="M171.921 146.932h-49.477v3.016h49.477v-3.016Z" opacity=".1"/><path fill="#fff" d="M126.64 144.834c16.033-5.691 19.283-20.531 19.93-26.402.097-.812.152-1.627.165-2.444h-2.622a24.362 24.362 0 0 1-.165 2.444c-.658 5.871-3.907 20.717-19.93 26.402l-1.574 2.098v24.039h2.623v-24.039l1.573-2.098Z" opacity=".1"/><path fill="#000" d="M114.929 65.811h4.437v4.458h-4.044c-.159-1.468-.29-2.954-.393-4.458ZM134.266 105.865l-1.353 4.249a55.337 55.337 0 0 1-3.514-1.251 46.985 46.985 0 0 1-4.896-7.269 49.547 49.547 0 0 0 9.763 4.271ZM160.099 105.865a49.658 49.658 0 0 0 9.76-4.269 47.203 47.203 0 0 1-4.896 7.272 54.242 54.242 0 0 1-3.511 1.248l-1.353-4.251ZM179.433 65.811c-.103 1.504-.234 2.99-.393 4.458h-4.041v-4.458h4.434ZM150.406 118.432a16.974 16.974 0 0 1-6.448 0 24.07 24.07 0 0 0 .165-2.444h6.118c.014.817.069 1.632.165 2.444Z" opacity=".1"/><path fill="#00BAFC" d="M115.453 58.427c.113 33.057 14.274 59.79 31.731 59.79s31.615-26.733 31.731-59.79h-63.462Z"/><path fill="#fff" d="M121.091 58.427h-5.638c.113 33.057 14.274 59.79 31.731 59.79a17.182 17.182 0 0 0 2.819-.239c-16.138-2.696-28.804-28.293-28.912-59.551Z" opacity=".1"/><path fill="#3F3D56" d="M164.008 156.134h-33.653v8.654h33.653v-8.654Z"/><path fill="#fff" d="M131.929 157.314h32.079v-1.18h-33.653v8.654h1.574v-7.474Z" opacity=".1"/><path fill="url(#c)" d="M97.505 90.344c-.606-.202-4.172-3.024-4.442-4.301-.27-1.277 1.885-13.175 1.885-13.175s-.199 0-.524-.04v-.19l.443-15.63s1.817-10.49-1.615-9.879c-3.433.611-1.28 9.879-1.28 9.879s-.39 4.704-.666 6.115c-.262 1.361-1.463 6.905-.645 8.628.03.061.063.12.1.178 0 0 .136 5.914-1.346 6.721-1.413.769-2 4.637-2.05 4.983l-.077-.031a4.11 4.11 0 0 1-1.093-1c-.032-.039-.055-.08-.084-.123a5.77 5.77 0 0 0-1.778-9.018 3.722 3.722 0 0 0-.349-1.448c-.682-1.458-4.458-3.364-7.14-3.409-1.238-.037-2.253.315-2.623 1.282-.189.49-.131 1.05-.21 1.558-.157 1.05-.831 1.87-1.697 2.523a10.63 10.63 0 0 0-1.13-1.088c-.876-.672-2.622-2.885-2.622-2.885s-5.452-5.646-5.856-7.193c-.404-1.547-5.85-10.839-7.062-9.22-1.212 1.617 4.172 8.67 4.172 8.67s1.023 2.561 1.81 3.426c.786.866 6.818 9.625 6.818 9.625l.288.598c-1.274.67-2.438 1.526-2.85 2.858-.603 1.962.716 3.934 1.628 5.77 1.778 3.581 2.033 8.15-.262 11.422-2.056 2.89-5.622 4.264-8.96 5.465a8.823 8.823 0 0 0 5.664 1.881c-.771 2.234-3.504 2.973-5.832 3.388 1.222 1.174 2.97 1.602 4.65 1.862a14.02 14.02 0 0 0 2.488.196h.204l.205-.016c.284-.018.567-.054.847-.107 1.211-.247 2.389-.907 3.008-1.977.524-.916.708-2.164 1.66-2.623.248-.112.515-.175.786-.186h-.029.54l3.968.039h.507c1.12-.026 2.315-.22 2.884-1.146.234-.449.357-.948.36-1.455.083-1.256 0-2.549.034-3.816.338 2.306.692 5.898-.15 7.225a12.316 12.316 0 0 1-2.46 2.667c-.238.2-.456.423-.65.666-.129.092-.205.142-.205.142l-.081.244a4.612 4.612 0 0 0-.64 1.484 1.028 1.028 0 0 0-.05.422c.092.186-.655.955-.438 1.277-1.867 2.19-2.22 5.507-2.22 5.507l-3.41 5.177c-1.752 4.602-4.374 5.074-4.374 5.074s-6.16-4.133-6.328-4.335c-.168-.202-2.523-1.211-2.523-1.211a2.672 2.672 0 0 0-1.211-1.107c-.808-.336-.876-1.573-.876-1.573-.1-2.924-1.817-3.147-1.817-3.147-1.385-.118-2.442.128-3.255.579l-.246.019c-1.19.097-2.622.204-4.196.309-4.377.289-5.418 3.123-5.418 3.123s-.537.606.168 1.262c.706.655 5.221 0 5.413-.016a2.941 2.941 0 0 1-1.028-.071 74.29 74.29 0 0 1 2.523-.052h.201a10.92 10.92 0 0 0-.076 1.332c0 .839 2.321 1.377 2.321 1.377l7.067 6.293s4.443 1.986 7.27 4.841c2.827 2.856 5.326.391 5.326.391 2.992-.739 11.601-11.148 11.609-11.158 0 .304.181 10.426.525 12.459.013.103.039.204.076.301.403.874-.137 3.26-.37 4.267a11.853 11.853 0 0 0-.17 2.554s-3.229 12.325-2.961 13.408c.267 1.083-1.75 6.116-1.75 6.116v4.196l.352-.019a2.331 2.331 0 0 0-.126.21l-.023.045s2.152.469 3.6.335c1.448-.133 3.934 1.115 3.934 1.115s.841.398 3.432.566c2.591.168 2.591-1.143 2.591-1.143-.296-1.786-4.39-2.384-4.516-2.402a12.03 12.03 0 0 1-.894-.627l-.052-.042c.017-.039.032-.08.044-.121.438-1.783-1.985-2.556-1.985-2.556v-.436c1.574-.807 1.886-6.351 1.886-6.351s2.36-6.855 2.69-7.998c.33-1.144 0-2.856 0-2.856l.236-1.479s.506-1.007.506-1.209c.066-.512.263-.998.572-1.411.37-.438-.404-1.479-.404-1.479l.674-1.746v-1.917l1.574-6.955s1.649-8.1 1.077-10.752c-.571-2.651.674-3.999.674-3.999a3.373 3.373 0 0 1-.346.158c.158-.364.293-.738.407-1.118l3.54.438v.053h1.277s-.404-4.983-.404-6.991c0-2.009 1.361-9.218 1.361-9.218s.606-7.046 0-7.248ZM81.79 84.527c0 .197-.018.401-.031.611l-.071.108-.131-.11-.16.249-.047.023c-.347-.178-.525-1.198-.774-.978l-.034.029c-.055-.063-.11-.081-.168-.029l-.052.045v-.234c.48.124.973.186 1.468.186.003.035 0 .069 0 .1Zm11.775 23.203h.076l-.126.33c.016-.11.031-.217.05-.33Zm-12.926 59.468-.483-.121.263-.045.244.16.028.021-.052-.015Zm4.93-.706a7.213 7.213 0 0 1-.48-.28c.053.028.26.136.48.28Z"/><path fill="#F86D70" d="m95.305 102.776-3.176 8.277h.771l-2.987 2.381 5.392.671v-11.329Z"/><path fill="#000" d="m95.305 102.776-3.176 8.277-.8-.216-1.416 2.597 5.392.671v-11.329Z" opacity=".1"/><path fill="#F86D70" d="M90.325 108.071h4.98l1.828-15.04h-6.808v15.04Z"/><path fill="#000" d="M90.325 108.071h4.98l1.828-15.04h-6.808v15.04Z" opacity=".1"/><path fill="#FBBEBE" d="m80.599 96.593 1.075-.181 2.47-.42s7.419-1.673 8.95-1.81a9.565 9.565 0 0 0 2.686-.765c.401-.173.655-.304.655-.304l-2.672-4.88-4.146-3.074s-2.622-.558-3.732-2.085a2.457 2.457 0 0 1-.343-2.328c.677-2.098-4.041 2.006-4.041 2.006s.044.983 0 2.237c0 .246-.024.503-.042.765 0 .173-.024.347-.042.525-.115 1.246-.351 2.528-.818 3.294-1.14 1.872 0 7.02 0 7.02Z"/><path fill="#000" d="M81.501 85.094h.105c.189 0 .34-.402.524-.42 1.477-.142 2.825-.451 3.76-1.497a2.46 2.46 0 0 1-.343-2.326c.677-2.098-4.04 2.003-4.04 2.003s.049.986-.006 2.24Z" opacity=".1"/><path fill="#FBBEBE" d="M75.758 79.146a5.745 5.745 0 0 0 5.748 5.748c.189 0 .375 0 .561-.026a5.749 5.749 0 1 0-6.31-5.722Z"/><path fill="#3F3D56" d="M73.993 70.421c-.189.488-.13 1.034-.207 1.55-.28 1.865-2.177 2.982-3.892 3.763-1.715.782-3.65 1.708-4.195 3.51-.598 1.948.708 3.901 1.615 5.729 1.768 3.561 2.02 8.103-.262 11.36-2.027 2.885-5.56 4.254-8.885 5.455a8.756 8.756 0 0 0 5.625 1.872c-.763 2.221-3.477 2.958-5.79 3.367 1.214 1.17 2.953 1.595 4.618 1.852 1.214.188 2.46.312 3.671.068 1.212-.244 2.36-.902 2.985-1.967.524-.91.702-2.15 1.649-2.609a2.985 2.985 0 0 1 1.345-.197l3.934.042c1.225 0 2.675-.094 3.307-1.141.233-.447.355-.943.356-1.447.17-2.58-.325-5.308.737-7.663.32-.71-1.733-1.836-1.518-2.588.74-2.588.926-4.626.918-7.32 0-2.084 1.355-3.88 2.475-5.64 1.12-1.76 2.056-3.98 1.172-5.869-.996-2.106-8.48-5.166-9.658-2.127Z"/><path fill="#FBBEBE" d="m79.23 166.442 1.001.664.155.102.029.018 1.188.787 2.774.467 2.439-.168s.703-1.468-.401-1.434a2.3 2.3 0 0 1-1.007-.291l-.152-.076a7.129 7.129 0 0 1-.478-.278 12.12 12.12 0 0 1-.886-.625c-.367-.283-.61-.498-.61-.498l-4.052 1.332Z"/><path fill="#000" d="m80.245 167.106.155.102.029.019 1.188.786 2.774.467 2.439-.168s.703-1.468-.401-1.434a2.3 2.3 0 0 1-1.007-.291c.194.152.356.317.372.456.045.375-1.804 1.049-1.804 1.049l-2.607-.69s-.443-.126-1.049-.283l-.057-.016-.032.003Z" opacity=".1"/><path fill="#3F3D56" d="M75.787 167.746s2.137.467 3.574.333c1.438-.134 3.913 1.104 3.913 1.104s.837.393 3.41.561c2.572.168 2.572-1.138 2.572-1.138-.294-1.775-4.359-2.36-4.485-2.386.05.026.263.133.478.278.288.188.6.435.624.634.044.372-1.804 1.049-1.804 1.049l-2.607-.687s-.443-.128-1.049-.286h-.058a22.504 22.504 0 0 0-2.732-.564c-1.123-.12-1.697.834-1.815 1.049a.325.325 0 0 0-.02.053Z"/><path fill="#FBBEBE" d="m42.1 120.588 1.135.87s.33-.016.824-.031h.157a70.7 70.7 0 0 1 2.504-.053 7.978 7.978 0 0 1 1.597.089c.567.2 1.574-3.241 1.574-3.241l-1.138-.262-.378-.089-.262-.063-.926-.218-2.806.32-1.972 1.269-.31 1.409Z"/><path fill="#000" d="m42.1 120.588 1.135.87s.33-.016.824-.031a1 1 0 0 1-.525-.47c-.734-2.037 2.908-2.908 2.908-2.908l1.697-.073.33-.016h.263l-.378-.089-.262-.063-.926-.218-2.806.32-1.972 1.269-.288 1.409Z" opacity=".1"/><path fill="#3F3D56" d="M39.86 121.508c.688.635 5.188 0 5.376-.016a2.805 2.805 0 0 1-1.02-.071 1.122 1.122 0 0 1-.787-.563c-.734-2.041 2.909-2.909 2.909-2.909l1.696-.073.328-.016 4.125-.178.2-1.136s-1.34.126-3.444.294a260.92 260.92 0 0 1-4.177.307c-4.345.288-5.379 3.107-5.379 3.107s-.527.604.174 1.254Z"/><path fill="#FBBEBE" d="M90.328 72.286c.028.062.061.122.1.178l1.002 1.469 2.606.262.029-1.033.438-15.546s1.804-10.426-1.605-9.826c-3.41.6-1.27 9.826-1.27 9.826s-.387 4.679-.66 6.084c-.265 1.359-1.453 6.881-.64 8.586ZM84.478 110.898l.742 1.269 1.66 2.84s3.01 1.104 3.781.262c.422-.459.879-2.061 1.198-3.409.263-1.091.439-2.011.439-2.011l-7.82 1.049Z"/><path fill="#000" d="m84.478 110.898.742 1.269a.868.868 0 0 0 .126-.134c.839-1.07 4.534-.228 6.513-.16.263-1.091.439-2.011.439-2.011l-7.82 1.036ZM46.72 121.369a7.977 7.977 0 0 1 1.598.089c.566.199 1.573-3.241 1.573-3.241l-1.516-.357 4.125-.178.2-1.136s-1.34.126-3.444.294c-.434.25-.822.574-1.145.957l-.063.079c-.879 1.078-1.204 2.468-1.327 3.493ZM79.23 166.442l1.156.766c1.726-.312 3.302-.802 3.488-1.573v-.037c-.367-.283-.611-.498-.611-.498l-4.034 1.342ZM75.81 167.701a40.1 40.1 0 0 0 4.548-.488 22.55 22.55 0 0 0-2.735-.569c-1.12-.12-1.694.834-1.813 1.057Z" opacity=".1"/><path fill="#3F3D56" d="M46.846 122.693c0 .837 2.305 1.372 2.305 1.372l7.02 6.249s4.41 1.972 7.217 4.812c2.806 2.84 5.281.401 5.281.401 2.974-.734 11.539-11.095 11.539-11.095s.199 11.832.6 12.7c.401.868-.134 3.241-.367 4.246a11.796 11.796 0 0 0-.168 2.538s-3.207 12.265-2.94 13.335c.268 1.07-1.738 6.084-1.738 6.084v4.177s7.854-.301 8.287-2.071c.432-1.77-1.97-2.541-1.97-2.541v-.436c1.574-.802 1.87-6.314 1.87-6.314s2.342-6.819 2.675-7.954c.333-1.136 0-2.843 0-2.843l.233-1.468s.501-1.005.501-1.204c.065-.509.261-.992.569-1.403.367-.435-.401-1.471-.401-1.471l.669-1.739v-1.904l1.573-6.917s1.639-8.056 1.07-10.697c-.57-2.641.669-3.976.669-3.976-2.683 1.406-4.036-1.723-4.48-3.068-.112-.346-.167-.577-.167-.577s-3.685-1.358-7.115-1.033a8.205 8.205 0 0 0-2.043.433c-3.81 1.371-4.41 7.051-4.41 7.051l-3.375 5.148c-1.74 4.579-4.346 5.046-4.346 5.046s-6.115-4.11-6.293-4.312c-.179-.202-2.507-1.203-2.507-1.203a2.652 2.652 0 0 0-1.204-1.102c-.803-.335-.868-1.573-.868-1.573-.1-2.908-1.804-3.147-1.804-3.147-5.916-.493-5.882 5.622-5.882 6.456Z"/><path fill="#F86D70" d="M80.87 106.353h3.608V95.158h-3.609v11.195Z"/><path fill="#000" d="M80.87 106.353h3.608V95.158h-3.609v11.195ZM90.326 72.262v.024c.028.062.06.122.1.178l1.001 1.469 2.607.262.028-1.033c-.812-.063-2.664-.286-3.736-.9Z" opacity=".1"/><path fill="#F86D70" d="M90.427 72.464s.134 5.88-1.337 6.682c-1.471.803-2.043 4.983-2.043 4.983s4.458 2.931 5.452 4.222c.994 1.29 3.275 4.363 2.806 5.098-.47.734 1.138 4.077 1.138 4.077s-2.942 6.016-2.274 8.29c.669 2.273.734 8.286.734 8.286h1.272s-.4-4.945-.4-6.951c0-2.007 1.334-9.158 1.334-9.158s.603-7.017 0-7.217c-.603-.199-4.143-3.007-4.41-4.28-.268-1.271 1.871-13.111 1.871-13.111s-2.74-.118-4.143-.92Z"/><path fill="#000" d="M80.8 94.12c.123.818.42 1.6.874 2.292l2.47-.42s7.419-1.673 8.95-1.81a9.566 9.566 0 0 0 2.686-.765 11.843 11.843 0 0 0-3.317-5.441l-.942-.874a15.775 15.775 0 0 0-4.746-3.034c.11.092 7.893 6.737 6.188 8.04-1.704 1.304-6.293-1.87-6.293-1.87l-5.219-4.484-.189-.162-.301.47c.153.062.303.134.448.214a7.679 7.679 0 0 1 3.671 4.563c1.073 3.606-4.28 3.28-4.28 3.28Z" opacity=".1"/><path fill="#444053" d="M79.195 110.83s4.946 2.74 6.147 1.203c.262-.338.816-.485 1.505-.524-.112-.346-.167-.577-.167-.577s-3.685-1.359-7.115-1.033l-.37.931Z"/><path fill="#E8E8F0" d="m81.472 85.597 5.407 4.652s4.57 3.184 6.294 1.87c1.722-1.314-6.192-8.043-6.192-8.043a15.996 15.996 0 0 1 4.744 3.026l.942.874c2.475 2.294 3.034 2.294 3.117 5.667.021.83-.262 2.024-.48 2.24-.802.786-1.363 6.5-1.24 7.169.124.668-1.495 6.44-.97 8.045.524 1.605-6.556-.802-7.754.737-1.199 1.539-6.145-1.204-6.145-1.204s2.74-7.02 3.41-7.487c.668-.466 1.47-4.077 0-5.748-1.472-1.67-1.603-3.275-1.603-3.275s5.35.33 4.277-3.276a7.567 7.567 0 0 0-4.112-4.777l.305-.47Z"/><path fill="#000" d="M88.69 97.43s-2.075 3.909-4.758 4.924a3.99 3.99 0 0 1-.262.087c-2.8.852 5.229-3.8 5.02-5.012Z" opacity=".1"/><path fill="#FBBEBE" d="M59.68 62.837s1.002 2.542 1.804 3.41c.802.868 6.75 9.558 6.75 9.558l.504 1.05.432.893 3.81-.4.263-1.538-.147-.178c-.383-.459-1.427-1.691-2.127-2.229-.868-.666-2.606-2.871-2.606-2.871s-5.413-5.618-5.814-7.154c-.402-1.537-5.817-10.752-7.018-9.158-1.2 1.595 4.149 8.617 4.149 8.617Z"/><g fill="#000" opacity=".1"><path d="M70.736 104.174a2.984 2.984 0 0 0-1.345.194c-.944.459-1.123 1.699-1.647 2.609-.614 1.065-1.783 1.723-2.987 1.967-.24.047-.48.08-.724.1a8.23 8.23 0 0 0 2.297-.1c1.204-.244 2.374-.902 2.987-1.967.525-.91.703-2.15 1.647-2.609.248-.111.515-.174.787-.183l-1.015-.011ZM80.051 84.058c0-2.085 1.356-3.881 2.473-5.641 1.117-1.76 2.056-3.98 1.172-5.869-.755-1.613-5.308-3.776-7.935-3.349 2.572.333 5.743 2.028 6.362 3.35.883 1.887-.055 4.108-1.172 5.868-1.118 1.76-2.479 3.556-2.473 5.64 0 2.691-.181 4.721-.92 7.32-.213.747 1.835 1.877 1.52 2.586-1.065 2.36-.566 5.082-.737 7.662-.003.504-.126 1-.36 1.448-.524.862-1.599 1.085-2.645 1.132h.915c1.222 0 2.672-.094 3.304-1.14a3.19 3.19 0 0 0 .36-1.448c.17-2.58-.328-5.305.736-7.662.32-.708-1.733-1.836-1.52-2.586.739-2.58.925-4.62.92-7.311Z" opacity=".1"/></g><path fill="#000" d="m68.737 76.849.433.894 3.81-.401.263-1.537-.147-.178c-.407.2-3.451 1.665-4.359 1.222Z" opacity=".1"/><path fill="#000" d="M82.806 86.9s-.936-1.468-1.47-1.07c-.536.4-.743-1.203-1.05-.936-.306.268-1.2 1.013-1.573-.029-.291-.828-3.459-6.07-4.744-8.179-.33-.545-.537-.88-.537-.88s-3.609 1.803-4.477 1.203v1.27l.734.067 3.934 7.343s1.238 1.97 1.154 2.656c-.084.687 1.586 3.695 1.854 3.895.267.199 3.147 3.542 3.147 3.542s1.47 7.22.199 9.226c-1.272 2.006-3.475 3.475-3.475 3.475s-.663 1.938-.566 2.139c.097.202-.771 1.07-.37 1.338.401.267.936 2.137.936 2.137s1.873-3.008 2.885-3.475c1.012-.466 2.308-6.618 2.308-6.618s.37-3.625.398-5.964c.029-2.339-.089-11.14.713-11.14Z" opacity=".1"/><path fill="#F86D70" d="M82.605 86.9s-.933-1.468-1.468-1.07c-.535.4-.745-1.203-1.05-.936-.303.268-1.198 1.013-1.573-.029-.293-.828-3.461-6.07-4.743-8.179l-.538-.88s-3.609 1.803-4.48 1.203v1.27l.738.067 3.933 7.343s1.24 1.97 1.154 2.656c-.086.687 1.574 3.695 1.854 3.895.28.199 3.147 3.542 3.147 3.542s1.471 7.22.202 9.226a12.278 12.278 0 0 1-2.42 2.68 4.676 4.676 0 0 0-1.574 2.523.996.996 0 0 0-.047.419c.097.2-.771 1.07-.37 1.338.401.267.942 2.145.942 2.145s1.872-3.008 2.884-3.475c1.013-.467 2.31-6.619 2.31-6.619s.368-3.624.4-5.963c.03-2.34-.087-11.156.7-11.156Z"/><path fill="#000" d="M73.447 117.315s2.809.524 3.934 1.335c1.125.81-4.278-1.27-4.278-1.27l.344-.065ZM80.2 124.432s2.93 2.441 2.405 4.647c-.525 2.205-1.878 7.754-1.878 7.754l-.527-12.401ZM54.583 119.738s-4.128.451-3.86.986c.267.535 3.86-.493 3.86-.493v-.493ZM86.276 140.04s.262.333-1.269 0c-1.532-.333-.401-1.361-.401-1.361l1.67 1.361ZM85.752 144.653s-2.098.333-3.223 0 3.223 0 3.223 0ZM81.435 162.7s-.367-.401-2.205.333c-1.838.735-2.573.769-3.108.525-.534-.244 5.313-.858 5.313-.858ZM83.476 119.169l-2.607 3.627s1.403-3.176 2.607-3.627ZM78.409 85.83s-.113 1.204-1.794 1.674c-1.68.469-2 .85-2 .85M74.04 77.106s-2.219 1.573-4.534 1.24ZM75.73 110.796s.647.406 2.202-1.372ZM91.88 91.943c.063-.325-.163-.626-.375-.88l-.435-.525a2.015 2.015 0 0 0-.286-.294c-.263-.202-.598-.262-.87-.443" opacity=".1"/><path fill="#00BAFC" d="M232.681.525S210.603-.808 213.2 14.665c0 0-.525 2.735 1.961 3.975 0 0 .039-1.146 2.266-.755.792.131 1.598.17 2.399.115a4.998 4.998 0 0 0 2.932-1.211s6.207-2.565 8.62-12.708c0 0 1.786-2.214 1.715-2.783l-3.726 1.592s1.274 2.688.262 4.922c0 0-.121-4.825-.837-4.72-.144.024-1.935.93-1.935.93s2.19 4.682.538 8.086c0 0 .626-5.77-1.223-7.747l-2.622 1.532s2.56 4.835.824 8.782c0 0 .445-6.053-1.377-8.41l-2.376 1.854s2.405 4.768.939 8.04c0 0-.192-7.046-1.453-7.578 0 0-2.08 1.835-2.397 2.585 0 0 1.647 3.462.624 5.287 0 0-.627-4.694-1.141-4.72 0 0-2.071 3.11-2.286 5.244 0 0 .089-3.17 1.786-5.538 0 0-2.004.344-3.174 1.642 0 0 .323-2.198 3.685-2.39 0 0 1.712-2.36 2.169-2.504 0 0-3.341-.278-5.368.62 0 0 1.783-2.075 5.981-1.131l2.347-1.917s-4.4-.6-6.267.063c0 0 2.148-1.836 6.899-.498l2.555-1.527s-3.753-.807-5.987-.524c0 0 2.36-1.272 6.737.107l1.835-.82s-2.748-.54-3.553-.627c-.805-.087-.847-.307-.847-.307a9.53 9.53 0 0 1 5.163.574s3.881-1.432 3.813-1.675ZM205.45 4.46s-9.965-.602-8.798 6.389c0 0-.234 1.238.883 1.799 0 0 .019-.525 1.026-.344.357.06.721.078 1.083.053a2.248 2.248 0 0 0 1.324-.548s2.806-1.157 3.897-5.74c0 0 .805-1.002.774-1.26l-1.684.72s.577 1.216.123 2.225c0 0-.055-2.181-.377-2.129-.066 0-.876.42-.876.42s.991 2.116.244 3.655c0 0 .283-2.606-.554-3.5l-1.185.692s1.159 2.184.372 3.967c0 0 .202-2.735-.621-3.8l-1.073.848s1.086 2.155.425 3.632c0 0-.086-3.184-.658-3.423 0 0-.939.829-1.083 1.17 0 0 .745 1.573.283 2.386 0 0-.283-2.121-.524-2.13 0 0-.934 1.406-1.034 2.361.047-.89.326-1.754.808-2.504-.54.102-1.039.36-1.434.742 0 0 .147-.991 1.665-1.08 0 0 .787-1.065.981-1.13 0 0-1.511-.127-2.426.28 0 0 .805-.94 2.704-.525l1.049-.865s-1.988-.262-2.833.029c0 0 .971-.829 3.118-.226l1.154-.69s-1.694-.367-2.706-.233c0 0 1.067-.577 3.045.047l.826-.37s-1.243-.246-1.608-.283c-.364-.036-.383-.139-.383-.139a4.298 4.298 0 0 1 2.334.263s1.77-.648 1.739-.758Z" opacity=".1"/><path fill="#00BAFC" d="M240.259 171.15c5.824 0 10.545-.799 10.545-1.784 0-.984-4.721-1.783-10.545-1.783-5.823 0-10.544.799-10.544 1.783 0 .985 4.721 1.784 10.544 1.784Z"/><path fill="#00BAFC" d="M244.62 166.45a3.053 3.053 0 0 0 1.005-1.518c.131-.601-.126-1.311-.703-1.545-.645-.246-1.335.202-1.857.653-.521.451-1.122.968-1.804.871a2.747 2.747 0 0 0 .85-2.573 1.084 1.084 0 0 0-.236-.524c-.359-.383-1.007-.22-1.437.081-1.364.96-1.744 2.814-1.752 4.479-.136-.6-.021-1.227-.024-1.835-.002-.609-.173-1.312-.694-1.634a2.084 2.084 0 0 0-1.049-.247c-.611-.023-1.296.04-1.713.488-.524.556-.385 1.49.066 2.098.451.608 1.14.999 1.775 1.421.508.303.941.716 1.267 1.209.039.069.071.142.094.218h3.844c.86-.438 1.657-.99 2.368-1.642Z"/></g><defs><linearGradient id="b" x1="212.022" x2="212.022" y1="132.907" y2="27.409" gradientUnits="userSpaceOnUse"><stop stop-color="gray" stop-opacity=".25"/><stop offset=".54" stop-color="gray" stop-opacity=".12"/><stop offset="1" stop-color="gray" stop-opacity=".1"/></linearGradient><linearGradient id="c" x1="10450.5" x2="23402.9" y1="65713.3" y2="65713.3" gradientUnits="userSpaceOnUse"><stop stop-color="gray" stop-opacity=".25"/><stop offset=".54" stop-color="gray" stop-opacity=".12"/><stop offset="1" stop-color="gray" stop-opacity=".1"/></linearGradient><clipPath id="a"><path fill="#fff" d="M0 .496h300V171.61H0z"/></clipPath></defs></svg>