<svg xmlns="http://www.w3.org/2000/svg" width="178" height="130" fill="none"><g clip-path="url(#a)"><path fill="#00BAFC" d="M104.095 17.968c-10.439-.363-20.381-3.732-29.875-7.42C64.726 6.862 55.323 2.777 45.127.824 38.58-.434 31.085-.611 25.804 2.9c-5.081 3.387-6.723 9.218-7.605 14.633-.665 4.076-1.055 8.363.764 12.178 1.265 2.648 3.507 4.874 5.058 7.42 5.399 8.825 1.583 19.71-4.266 28.328-2.742 4.042-5.927 7.903-8.045 12.203-2.118 4.3-3.097 9.235-1.244 13.624 1.836 4.355 6.212 7.62 10.952 9.919 9.628 4.668 20.969 6.005 32.035 6.762 24.49 1.676 49.108.95 73.663.224 9.087-.269 18.213-.542 27.152-1.947 4.965-.78 10.089-2.019 13.693-5 4.576-3.795 5.709-10.223 2.643-14.981-5.142-7.983-19.355-9.967-22.954-18.533-1.977-4.715.053-9.968 2.929-14.341 6.168-9.383 16.506-17.612 17.049-28.337.375-7.364-4.595-14.74-12.279-18.226-8.054-3.653-19.223-3.194-25.162 2.853-6.122 6.213-16.874 8.609-26.092 8.29Z" opacity=".1"/><g opacity=".9"><path fill="#3A3768" d="M115.883 40.127h-.69a.37.37 0 0 0-.37.37v11.039c0 .204.166.37.37.37h.69a.37.37 0 0 0 .369-.37v-11.04a.37.37 0 0 0-.369-.369ZM67.763 30.901H67.7a.37.37 0 0 0-.369.37v3.138c0 .204.165.37.37.37h.062a.37.37 0 0 0 .37-.37V31.27a.37.37 0 0 0-.37-.369ZM67.836 38h-.165a.37.37 0 0 0-.37.37v6.009c0 .204.166.37.37.37h.165a.37.37 0 0 0 .369-.37v-6.01a.37.37 0 0 0-.37-.37ZM67.807 47.11h-.121a.37.37 0 0 0-.37.369v6.068c0 .204.166.37.37.37h.12a.37.37 0 0 0 .37-.37v-6.068a.37.37 0 0 0-.37-.37Z" opacity=".9"/><path fill="#3A3768" d="M109.305 18.088h-35.23a6.289 6.289 0 0 0-6.289 6.289v84.585a6.29 6.29 0 0 0 6.29 6.289h35.229a6.289 6.289 0 0 0 6.289-6.289V24.377a6.289 6.289 0 0 0-6.289-6.29Z" opacity=".9"/><path fill="#E6E8EC" d="M93.129 20.988h-5.428a.624.624 0 0 0-.624.624v.107c0 .344.28.624.624.624h5.428c.345 0 .624-.28.624-.625v-.106a.624.624 0 0 0-.624-.624ZM95.532 22.436a.77.77 0 1 0 0-1.539.77.77 0 0 0 0 1.54Z" opacity=".9"/></g><path fill="#00BAFC" d="M38.967 120.774c17.814 0 32.255-1.472 32.255-3.287 0-1.816-14.441-3.288-32.255-3.288-17.813 0-32.254 1.472-32.254 3.288 0 1.815 14.44 3.287 32.254 3.287ZM110.686 130c8.346 0 15.111-.69 15.111-1.54 0-.851-6.765-1.541-15.111-1.541-8.345 0-15.11.69-15.11 1.541 0 .85 6.765 1.54 15.11 1.54ZM162.317 122.238c8.345 0 15.111-.689 15.111-1.54 0-.851-6.766-1.54-15.111-1.54s-15.11.689-15.11 1.54c0 .851 6.765 1.54 15.11 1.54Z" opacity=".1"/><path fill="#00BAFC" d="M108.839 20.617h-5.468v.66a3.126 3.126 0 0 1-3.126 3.126H82.796a3.126 3.126 0 0 1-3.126-3.126v-.66h-5.135a3.796 3.796 0 0 0-3.796 3.797v84.508a3.798 3.798 0 0 0 3.796 3.797h34.304a3.797 3.797 0 0 0 3.797-3.797V24.414a3.797 3.797 0 0 0-3.797-3.797ZM132.145 13.825s-13.581-.82-11.98 8.697c0 0-.322 1.682 1.207 2.445 0 0 .024-.705 1.392-.466.487.082.983.106 1.476.071a3.068 3.068 0 0 0 1.805-.744s3.816-1.577 5.302-7.816c0 0 1.098-1.361 1.054-1.711l-2.292.979s.783 1.653.162 3.027c0 0-.075-2.968-.515-2.903-.09.013-1.192.572-1.192.572s1.349 2.88.323 4.973c0 0 .385-3.548-.752-4.764l-1.613.942s1.574 2.974.508 5.401c0 0 .273-3.722-.847-5.172l-1.461 1.14s1.479 2.93.578 4.944c0 0-.12-4.333-.896-4.66 0 0-1.279 1.129-1.474 1.59 0 0 1.013 2.13.386 3.252 0 0-.386-2.887-.702-2.903 0 0-1.274 1.913-1.407 3.226 0 0 .055-1.95 1.097-3.407 0 0-1.23.211-1.95 1.01 0 0 .199-1.352 2.258-1.471 0 0 1.054-1.452 1.336-1.54 0 0-2.057-.172-3.303.382 0 0 1.096-1.276 3.68-.696l1.442-1.179s-2.706-.37-3.855.039c0 0 1.323-1.13 4.246-.306l1.571-.94s-2.308-.498-3.684-.322c0 0 1.451-.782 4.143.066l1.129-.505s-1.692-.332-2.187-.385c-.495-.053-.521-.189-.521-.189a5.864 5.864 0 0 1 3.199.365s2.377-.892 2.337-1.042ZM118.215 9.592s-6.129-.369-5.413 3.931c0 0-.143.76.546 1.105 0 0 .011-.322.629-.211.22.037.443.048.666.032.301-.02.587-.138.816-.335 0 0 1.724-.713 2.395-3.533 0 0 .497-.614.484-.772l-1.035.442s.353.746.074 1.367c0 0-.033-1.34-.233-1.31-.04 0-.537.26-.537.26s.608 1.3.149 2.247c0 0 .174-1.603-.339-2.153l-.729.426s.711 1.343.229 2.44c0 0 .124-1.682-.382-2.337l-.662.516s.67 1.324.262 2.234c0 0-.054-1.958-.404-2.107 0 0-.579.51-.666.72 0 0 .457.968.173 1.47 0 0-.174-1.306-.323-1.312 0 0-.576.864-.635 1.452a3.135 3.135 0 0 1 .495-1.54 1.73 1.73 0 0 0-.881.457s.089-.611 1.023-.664c0 0 .476-.657.603-.697 0 0-.929-.078-1.492.172 0 0 .495-.575 1.663-.322l.645-.532s-1.222-.162-1.742.017c0 0 .599-.51 1.918-.138l.71-.425s-1.042-.224-1.663-.143c0 0 .655-.353 1.871.029l.508-.228s-.763-.15-.987-.174c-.224-.024-.236-.085-.236-.085.484-.08.981-.025 1.434.161 0 0 1.084-.392 1.066-.46ZM7.058 110.548c3.582 0 6.486-.491 6.486-1.097s-2.904-1.097-6.486-1.097-6.486.491-6.486 1.097 2.904 1.097 6.486 1.097Z"/><path fill="#00BAFC" d="M9.739 107.656c.296-.241.512-.566.62-.933.078-.371-.08-.806-.433-.95-.397-.153-.821.123-1.142.4-.321.278-.69.595-1.111.536a1.694 1.694 0 0 0 .517-1.583.647.647 0 0 0-.145-.322c-.22-.236-.62-.134-.884.051-.838.591-1.072 1.73-1.076 2.755-.085-.371-.014-.756-.016-1.129-.001-.372-.106-.806-.425-1.003a1.295 1.295 0 0 0-.646-.153c-.377-.013-.796.024-1.055.3-.322.342-.237.918.042 1.29.28.373.702.613 1.09.874.314.186.58.44.781.744a.707.707 0 0 1 .059.132h2.362a6.58 6.58 0 0 0 1.462-1.009ZM134.541 94.12s1.395 1.825-.646 4.58c-2.04 2.755-3.721 5.081-3.04 6.799 0 0 3.077-5.116 5.582-5.189 2.505-.072.858-3.113-1.896-6.19Z"/><path fill="#000" d="M134.54 94.12c.121.176.218.369.286.572 2.443 2.871 3.745 5.552 1.395 5.618-2.187.063-4.813 3.976-5.441 4.963.02.077.045.152.074.226 0 0 3.078-5.116 5.583-5.189 2.505-.072.858-3.113-1.897-6.19Z" opacity=".1"/><path fill="#FFD037" d="M137.134 96.452c0 .645-.072 1.163-.161 1.163-.089 0-.161-.521-.161-1.163s.09-.339.179-.339c.088 0 .143-.306.143.339Z"/><path fill="#FFD037" d="M138.024 97.213c-.564.307-1.055.494-1.098.415-.044-.08.381-.39.945-.699.565-.308.34-.082.384 0 .044.083.334-.024-.231.284Z"/><path fill="#00BAFC" d="M127.169 94.12s-1.395 1.825.645 4.58 3.721 5.081 3.042 6.799c0 0-3.077-5.116-5.582-5.189-2.505-.072-.86-3.113 1.895-6.19Z"/><path fill="#000" d="M127.169 94.12c-.122.176-.218.369-.285.572-2.444 2.871-3.746 5.552-1.397 5.618 2.189.063 4.813 3.976 5.442 4.963a2.21 2.21 0 0 1-.074.226s-3.078-5.116-5.583-5.189c-2.505-.072-.858-3.113 1.897-6.19Z" opacity=".1"/><path fill="#FFD037" d="M124.573 96.452c0 .645.073 1.163.162 1.163.088 0 .161-.521.161-1.163s-.09-.339-.179-.339-.144-.306-.144.339Z"/><path fill="#FFD037" d="M123.679 97.213c.563.307 1.055.494 1.096.415.042-.08-.379-.39-.943-.699-.565-.308-.342-.082-.384 0-.042.083-.327-.024.231.284Z"/><path fill="#A8A8A8" d="M125.019 105.26s3.901-.121 5.077-.958c1.176-.837 6.002-1.837 6.291-.493.288 1.343 5.863 6.679 1.451 6.714-4.411.036-10.235-.687-11.408-1.401-1.173-.715-1.411-3.862-1.411-3.862Z"/><path fill="#000" d="M137.927 110.056c-4.405.035-10.236-.687-11.408-1.402-.896-.543-1.25-2.497-1.37-3.398h-.13s.246 3.146 1.421 3.861c1.174.715 7.003 1.437 11.408 1.402 1.271-.012 1.711-.463 1.687-1.129-.177.404-.661.658-1.608.666Z" opacity=".2"/><path fill="#3A3768" d="M107.44 78.692H94.855v12.586h12.585V78.692ZM88.892 62.078H76.306v12.586h12.586V62.078ZM90.102 95.021H77.516v12.586h12.586V95.021Z" opacity=".3"/><path fill="#fff" d="M87.293 31.175H74.707v12.586h12.586V31.175ZM104.917 74.154 95.584 82.6l8.444 9.332 9.333-8.444-8.444-9.333ZM107.232 46.342H94.647v12.586h12.585V46.342ZM91.322 60.375H78.736V72.96h12.586V60.375Z"/><path fill="#00BAFC" d="M157.327 118.164c.732.095 1.492.161 2.193-.074.108-.034.233-.108.218-.22a.253.253 0 0 0-.05-.106 6.862 6.862 0 0 1-.666-1.263.104.104 0 0 0-.04-.056.097.097 0 0 0-.071 0c-.323.083-.604.293-.926.382a1.335 1.335 0 0 1-.503.039c-.145-.017-.345-.138-.476-.123.081.479.264.932.321 1.421ZM171.187 116.937c.484-.323.984-.681 1.269-1.192a.189.189 0 0 0 .034-.102.204.204 0 0 0-.04-.1 4.126 4.126 0 0 0-1.031-1.113c-.214.152-.407.33-.576.531-.12.127-.456.337-.459.527 0 .115.127.239.187.323.081.119.161.242.231.364.037.075.421.742.385.762Z"/><path fill="#514E7F" d="M160.198 119.645a.485.485 0 0 1-.087.322.427.427 0 0 1-.186.108c-1.026.367-2.206-.091-3.226.271-.211.075-.409.181-.621.252-.25.076-.508.122-.769.137-.363.036-.726.057-1.089.066a2.595 2.595 0 0 1-.819-.071.988.988 0 0 1-.629-.498.485.485 0 0 1-.031-.355.405.405 0 0 1 .066-.114.992.992 0 0 1 .242-.196l.378-.243a2.5 2.5 0 0 1 .571-.303c.148-.049.308-.07.458-.113.53-.162.933-.576 1.309-.979l.513-.547a.503.503 0 0 1 .178-.142.493.493 0 0 1 .219-.023c.498.037.979.199 1.398.471.108.079.224.147.346.204a1.24 1.24 0 0 0 .967-.121c.133-.07.104-.113.162-.238.058-.124.19-.204.306-.09.035.04.06.088.073.139.113.366.069.758.069 1.14-.003.06.005.12.023.178.028.056.062.11.1.161a.274.274 0 0 1 .021.042c.063.173.083.359.058.542Z"/><path fill="#464353" d="M160.198 119.645a.485.485 0 0 1-.087.322.429.429 0 0 1-.186.109c-1.026.366-2.206-.092-3.226.27-.211.075-.409.181-.621.252-.25.076-.508.122-.769.137-.363.036-.726.057-1.089.066a2.595 2.595 0 0 1-.819-.071.988.988 0 0 1-.629-.498.485.485 0 0 1-.031-.355.419.419 0 0 1 .066-.114c.061.125.105.29.142.35a.724.724 0 0 0 .484.346 1.22 1.22 0 0 0 .437-.056c.929-.231 1.916-.234 2.807-.582a6.68 6.68 0 0 1 .919-.354c.329-.049.661-.076.994-.08.524-.042 1.03-.2 1.548-.283.064.173.085.359.06.541Z"/><path fill="#514E7F" d="M173.529 116.874c-.049.388-.296.724-.567 1.008a6.486 6.486 0 0 0-.79.866c-.268.406-.385.908-.731 1.252a1.98 1.98 0 0 1-.438.322 2.995 2.995 0 0 1-.57.261c-.514.162-1.069.128-1.613.089a1.432 1.432 0 0 1-.509-.1 1.473 1.473 0 0 1-.216-.13 1.04 1.04 0 0 1-.323-.334.337.337 0 0 1-.031-.241.548.548 0 0 1 .162-.235c.121-.126.25-.243.388-.35.19-.123.361-.273.507-.445a1.48 1.48 0 0 0 .195-.446 3.98 3.98 0 0 0 .142-.846c-.001-.191.02-.38.06-.567.082-.29.298-.553.272-.854a.226.226 0 0 1 .011-.129.203.203 0 0 1 .102-.063c.169-.067.348-.107.529-.121a.61.61 0 0 1 .484.192c.076.09.124.216.235.256a.402.402 0 0 0 .162 0c.271-.027.559-.061.768-.237a.959.959 0 0 0 .234-.319.955.955 0 0 0 .088-.386c0-.1-.045-.205.108-.226.118-.016.21.107.27.187.235.276.412.597.517.944a.26.26 0 0 1 .099-.019.424.424 0 0 1 .351.18c.094.145.131.32.104.491Z"/><path fill="#464353" d="M173.529 116.874c-.048.388-.295.724-.566 1.008a6.419 6.419 0 0 0-.79.866c-.268.406-.386.908-.731 1.252a1.986 1.986 0 0 1-.439.322c-.18.107-.371.194-.569.262-.515.161-1.07.127-1.613.088a1.438 1.438 0 0 1-.51-.1 1.528 1.528 0 0 1-.216-.13 1.04 1.04 0 0 1-.323-.334.772.772 0 0 1 .333-.079c.24.013.414.238.645.308.323.098.645-.132.982-.211.216-.05.445-.036.657-.105.177-.069.341-.168.484-.294.196-.14.37-.309.517-.5.123-.191.225-.394.305-.606.175-.407.38-.801.615-1.176a.759.759 0 0 1 .126-.162c.05-.046.112-.08.161-.122.221-.161.313-.447.39-.711.021-.082.05-.162.087-.238a.42.42 0 0 1 .352.181.695.695 0 0 1 .103.481Z"/><path fill="#A1616A" d="M150.357 82.42c.272.205.497.467.658.769.161.303 1.047 2.658.995 2.995.29-.294 1.442-.342 1.731-.634.122-.123.785-.736.884-.877.098-.142.837-.447.917-.592.302-.54-2.138-2.581-1.827-3.123a.133.133 0 0 0 .026-.084.13.13 0 0 0-.041-.064 3.908 3.908 0 0 0-.706-.484 1.13 1.13 0 0 1-.539-.646 2.32 2.32 0 0 0-.624.423c-.446.382-.886.773-1.32 1.174-.17.162-.496.366-.575.59-.079.225.258.42.421.552Z"/><path fill="#514E7F" d="M154.307 81.55a7.045 7.045 0 0 0-1.045.855c-.303.298-.591.645-.666 1.066-.031.161-.026.332-.052.498-.108.723-.735 1.254-1.011 1.936-.081.208-.14.424-.178.645a7.703 7.703 0 0 0-.126 1.268c0 .413.397.697.546 1.082.123.382.211.775.263 1.173.161.742.382 1.47.659 2.177.545 1.505 2.312 5.666 2.857 7.173 1.669-.42 6.115-1.382 7.592-2.258.494-.294-3.419-3.61-2.892-3.839a.266.266 0 0 0 .147-.111.261.261 0 0 0 0-.162c-.526-2.304-2.176-4.193-2.923-6.451-.26-.78-.726-1.444-1.081-2.186-.322-.67-.492-1.411-.874-2.048a1.355 1.355 0 0 0-.279-.35 1.68 1.68 0 0 0-.31-.186c-.211-.113-.414-.176-.627-.282Z"/><path fill="#A1616A" d="M150.446 82.156a2.613 2.613 0 1 0 0-5.226 2.613 2.613 0 0 0 0 5.226Z"/><path fill="#464353" d="M153.104 80.77a.875.875 0 0 1 .982-.14.483.483 0 0 1 .292.472l1.29.019c.206-.005.413.014.615.056a.897.897 0 0 1 .513.323c.016.02.033.045.059.05a.103.103 0 0 0 .06-.021c.199-.101.423-.142.645-.116.7.045 1.349.397 1.897.834a.618.618 0 0 1 .226.275c.045.147 0 .336.106.436 0 1.218.418 2.352.697 3.537.048.212.252.397.392.563.174.184.316.395.419.626.236.615-.09 1.335.141 1.953.116.253.266.489.445.702.207.261.339.575.379.906.01.149-.01.297 0 .447.014.2.049.396.106.587a45 45 0 0 0 .297 1.068c.161.574.387 1.195.902 1.502-1.244.211-2.554.416-3.739-.015a1.935 1.935 0 0 1-.466-.234c-.428-.304-.634-.827-.818-1.319-.206-.553-.416-1.115-.458-1.703a1.976 1.976 0 0 0-.077-.557c-.121-.322-.441-.514-.734-.692a3.533 3.533 0 0 1-.883-.687 1.38 1.38 0 0 1-.358-1.032c.023-.183.094-.358.102-.542a.436.436 0 0 0-.252-.447c-.905-.274-1.337-1.345-1.539-2.27a7.282 7.282 0 0 1-.116-1.451l-.011-.934a1.232 1.232 0 0 1-.406-.894 1.043 1.043 0 0 0 0-.295.834.834 0 0 0-.207-.322 2.709 2.709 0 0 1-.501-.684ZM150.319 83.76c-.029.292.038.59-.029.877-.025.11-.069.215-.101.323-.098.411-.055.844.121 1.229.175.381.385.746.627 1.089.083.116.151.242.202.375.042.14.068.285.077.431.064.584.167 1.162.308 1.732.123.497.283.999.61 1.392.06.087.15.148.252.171a.455.455 0 0 0 .214-.045l.668-.253a.456.456 0 0 0 .161-.084.409.409 0 0 0 .094-.261c.047-.539-.115-1.073-.294-1.583-.542-1.538-1.261-3.02-1.613-4.613-.098-.445-.15-1.129-.474-1.476-.134-.145-.089-.083-.248 0a1.996 1.996 0 0 0-.234.125.777.777 0 0 0-.341.571Z"/><path fill="#00BAFC" d="M152.332 86.679c.178.939.359 1.878.544 2.818l2.593-.68c.021-.272-.124-.523-.224-.777-.237-.593-.242-1.253-.434-1.863-.145-.464-.396-.892-.532-1.36-.079-.27-.118-.554-.195-.827a6.355 6.355 0 0 0-.305-.789 4.997 4.997 0 0 0-.566-1.05c-.332.125-.686.268-.874.567-.099.17-.154.361-.162.558-.045.584.162 1.169.096 1.746-.07.552-.05 1.112.059 1.657Z"/><path fill="#464353" d="M155.514 99.194c.145.555-.066 1.129-.237 1.681-.26.824-.437 1.671-.529 2.53-.01.221-.054.439-.131.646a5.925 5.925 0 0 1-.315.516c-.261.461-.254 1.026-.198 1.553.037.348.094.695.161 1.039.086.418.191.856.068 1.264.205-.045.345.22.337.431-.008.211-.082.437.018.623.255.092.258.442.25.711.004.47.063.938.176 1.394a218.15 218.15 0 0 0 1.226 5.53c.933.291 2.024.592 2.914.191a.583.583 0 0 0 .37-.371.678.678 0 0 0-.036-.286l-.423-1.535a2.832 2.832 0 0 1-.151-1.129c.042-.286.161-.592.026-.842-.049-.086-.123-.162-.178-.236-.222-.322-.106-.756-.087-1.15a.894.894 0 0 0-.019-.263 1.439 1.439 0 0 0-.124-.288 4.41 4.41 0 0 1-.484-2.194.541.541 0 0 0-.039-.287.655.655 0 0 1-.071-.116.317.317 0 0 1 .023-.212 1.827 1.827 0 0 1-.341-.322.484.484 0 0 0 .081-.745.25.25 0 0 0 .119-.428c-.055-.039-.126-.055-.161-.11-.06-.08-.011-.195.037-.282l.258-.466c.192-.345.236-.773.442-1.11a8.354 8.354 0 0 0 .681-1.553l.735-2.048.5.433c.167.128.307.287.412.47.071.179.115.369.132.561.184 1.113.885 2.078 1.145 3.176.036.249.116.489.236.71.05.064.095.132.135.203.037.109.056.222.056.337a1.566 1.566 0 0 0 .663 1.129c.246.161.557.286.686.553.028.083.066.162.113.236.119.143.377.161.429.34.027.102-.026.221.032.31.031.04.073.072.121.09l.721.362c.807.401 1.213 1.322 1.808 1.998.206.219.387.459.541.716.256.458.375 1.034.806 1.329.116.061.221.139.313.233.137.179.087.43.098.656.012.226.186.494.4.426a1.554 1.554 0 0 0 0 .834 4.2 4.2 0 0 0 2.549-1.033c.21-.183.413-.417.414-.695a.263.263 0 0 0-.03-.138.378.378 0 0 0-.162-.123c-.672-.365-.875-1.21-1.213-1.897-.298-.605-.737-1.129-1.109-1.69-.807-1.21-1.345-2.673-2.557-3.473-.266-.176-.576-.332-.708-.623a5.043 5.043 0 0 1-.142-.516.437.437 0 0 0-.138-.221.437.437 0 0 0-.241-.101c.077-.262.106-.535.087-.807a.995.995 0 0 0-.04-.347 1.66 1.66 0 0 0-.178-.342 3.314 3.314 0 0 1-.456-1.774c.01-.322.066-.645-.031-.953-.048-.161-.132-.295-.192-.445a2.762 2.762 0 0 1-.138-.831l-.066-1.063a5.025 5.025 0 0 0-.138-1.05c-.224-.824-.438-4.278-1.198-4.666-.76-.389-2.056 2.268-2.903 2.32a3.87 3.87 0 0 0-1.11.214c-.566.213-1.042.61-1.505.998l-1.568 1.316a5.68 5.68 0 0 1-.972.702ZM147.992 76.642a1.968 1.968 0 0 1 1.521-.742c.586 0 1.164.145 1.681.422.152.087.315.154.483.202.278.056.584-.02.834.113.333.176.396.624.367.998-.029.374-.099.784.1 1.105.069.092.133.188.191.287a.958.958 0 0 1-.017.615 4.972 4.972 0 0 1-.323-.405c-.116-.128-.314-.215-.456-.12-.142.096-.142.271-.149.428-.006.156-.048.345-.197.397a.323.323 0 0 1-.322-.13c-.253-.309-.152-.806-.402-1.115-.143-.178-.38-.263-.513-.449-.103-.145-.129-.334-.219-.484-.09-.15-.302-.272-.444-.161a.6.6 0 0 0-.117.161.68.68 0 0 1-.807.242 1.405 1.405 0 0 0-.35-.15.432.432 0 0 0-.398.216.853.853 0 0 0-.105.462c0 .217.039.456-.087.633a.66.66 0 0 1-.187.162c-.186.118-.439.197-.613.063a.458.458 0 0 1-.137-.43c.033-.153.077-.305.13-.453.097-.341-.029-.727.078-1.05.113-.293.267-.568.458-.817Z"/><path fill="#00BAFC" d="M149.392 84.437a.404.404 0 0 0 .024.24.388.388 0 0 0 .131.126c.372.23.795.367 1.232.398a.373.373 0 0 1 .162.044.304.304 0 0 1 .072.344.915.915 0 0 0-.077.364c.032.23.305.336.537.365.323.066.659 0 .934-.18.174-.16.306-.358.385-.58.634-1.452.857-3.065 1.499-4.516a.916.916 0 0 0 .096-.302.297.297 0 0 0-.119-.279c-.119-.074-.305-.032-.385-.147-.041-.06-.036-.138-.071-.2-.075-.132-.268-.116-.402-.187-.103-.056-.176-.161-.29-.192a.368.368 0 0 0-.304.13c-.375.352-.574.85-.783 1.322a15.69 15.69 0 0 1-1.13 2.082c.05-.077-.238-.666-.351-.689-.197-.04-.452.307-.558.438-.331.406-.54.898-.602 1.419Z"/><path fill="#fff" d="M163.298 86.502h-12.586v12.586h12.586V86.502Z"/><path fill="#A1616A" d="M163.196 93.434a5.05 5.05 0 0 0-.596.626 1.244 1.244 0 0 0-.275.806.423.423 0 0 0 .078.236.201.201 0 0 0 .224.07.326.326 0 0 0 .11-.1c.116-.14.24-.275.371-.403.048-.046.109-.096.174-.078.029.01.055.027.076.05a.514.514 0 0 1 .161.243.58.58 0 0 1-.171.47c-.126.12-.224.265-.289.427a.19.19 0 0 0 0 .137.224.224 0 0 0 .086.074 1.242 1.242 0 0 0 1.043.068c.225-.089.418-.244.646-.323.098-.026.194-.061.285-.106a.598.598 0 0 0 .253-.378c.029-.153.035-.31.018-.466a5.315 5.315 0 0 0-.389-1.758.203.203 0 0 0-.063-.093.217.217 0 0 0-.106-.031c-.282-.03-.747-.174-1.019-.07a.704.704 0 0 0-.241.215c-.063.057-.376.31-.376.384Z"/><path fill="#464353" d="M163.1 93.184c0-.27-.336-.92.195-.968 0-.287-.408-.467-.334-.77.026-.104.108-.186.121-.29.034-.295-.498-.454-.411-.738.032-.108.15-.174.175-.284.06-.255-.396-.37-.404-.63 0-.09.048-.173.045-.26 0-.112-.097-.195-.15-.29-.137-.247-.071-.63-.323-.755.161.012.224-.234.153-.386-.071-.152-.209-.282-.209-.45a.72.72 0 0 0 0-.186c-.047-.16-.312-.172-.355-.333a1.847 1.847 0 0 1 0-.183c-.016-.126-.145-.203-.266-.24a1.06 1.06 0 0 1-.355-.126c-.078-.06-.161-.161-.25-.105-.031.018-.047.053-.071.081-.099.114-.287.064-.413-.021-.369-.25-.552-.7-.632-1.139-.081-.439-.076-.892-.173-1.327a2.896 2.896 0 0 0-.118-.397 2.072 2.072 0 0 1-.187-.397c-.019-.253.507-.08.707-.055.194.018.386.055.574.108.199.076.395.161.585.257.807.353 1.762.397 2.404.989.211.195.388.45.661.537.125.025.249.057.371.097.305.143.352.546.518.838.052.077.098.158.137.242.031.1.046.205.043.31l.023.766c.037 1.29.076 2.57-.061 3.845-.045.42-.108.854.014 1.258.033.11.079.215.107.323.026.131.04.265.042.398l.017.496a.16.16 0 0 1-.024.114.158.158 0 0 1-.134.032c-.692-.06-1.388-.451-2.042-.216"/><path fill="#A1616A" d="M150.237 91.163a.214.214 0 0 0-.077.065.552.552 0 0 0 0 .654c.016.02.029.041.039.065a.198.198 0 0 1-.02.11.367.367 0 0 0 .05.406c.05.042.118.063.15.118.057.093-.022.213-.009.322.016.144.185.215.322.233a.344.344 0 0 0 .315-.084.267.267 0 0 0 0-.286.768.768 0 0 0-.213-.213.325.325 0 0 0 .305-.295.468.468 0 0 0-.184-.401c-.029-.025-.065-.049-.073-.088-.008-.038.031-.091.066-.129.162-.16.286-.556-.017-.645a.747.747 0 0 0-.323.015c-.077.024-.077.07-.137.103-.06.032-.126.016-.194.05Z"/><path fill="#000" d="M153.407 80.022a.533.533 0 0 0-.41.207c-.102.166-.16.354-.171.548a4.823 4.823 0 0 1-.645 1.752M153.972 80.464a.625.625 0 0 0-.536.323 1.811 1.811 0 0 0-.135.547 2.982 2.982 0 0 1-.537 1.147" opacity=".1"/><path fill="#FBBEBE" d="M49.911 90.74c.094 1.02-.676 2.007-.452 3.004.049.213.14.414.175.629.092.592-.262 1.153-.599 1.648l-2.893 4.249a2.756 2.756 0 0 1-.415.511c-.555.484-1.384.44-2.111.587-.51.105-.993.318-1.413.626a.093.093 0 0 0-.036.06.09.09 0 0 0 .016.067 1.213 1.213 0 0 0 1.052.494c.076.1 0 .247-.105.323-.161.108-.37.135-.4.4a.432.432 0 0 0 .053.264.819.819 0 0 0 .507.352c1.002.306 2.086-.231 2.834-.968.748-.737 1.29-1.656 2.026-2.403.408-.412.87-.766 1.29-1.166.839-.797 1.489-1.775 2.118-2.743.205-.282.36-.597.458-.932.078-.332.042-.682.132-1.011.116-.43.433-.773.694-1.13.514-.706.856-1.572.789-2.443-.068-.87-.607-1.732-1.43-2.027a1.278 1.278 0 0 0-.806-.05c-.337.105-.585.383-.816.645l-.548.635a1.466 1.466 0 0 0-.323.484.51.51 0 0 0 .113.54"/><path fill="#000" d="M49.911 90.74c.094 1.02-.676 2.007-.452 3.004.049.213.14.414.175.629.092.592-.262 1.153-.599 1.648l-2.893 4.249a2.756 2.756 0 0 1-.415.511c-.555.484-1.384.44-2.111.587-.51.105-.993.318-1.413.626a.093.093 0 0 0-.036.06.09.09 0 0 0 .016.067 1.213 1.213 0 0 0 1.052.494c.076.1 0 .247-.105.323-.161.108-.37.135-.4.4a.432.432 0 0 0 .053.264.819.819 0 0 0 .507.352c1.002.306 2.086-.231 2.834-.968.748-.737 1.29-1.656 2.026-2.403.408-.412.87-.766 1.29-1.166.839-.797 1.489-1.775 2.118-2.743.205-.282.36-.597.458-.932.078-.332.042-.682.132-1.011.116-.43.433-.773.694-1.13.514-.706.856-1.572.789-2.443-.068-.87-.607-1.732-1.43-2.027a1.278 1.278 0 0 0-.806-.05c-.337.105-.585.383-.816.645l-.548.635a1.466 1.466 0 0 0-.323.484.51.51 0 0 0 .113.54" opacity=".05"/><path fill="#A1616A" d="M27.869 95.071c.16.51.322 1.02.517 1.517a12.83 12.83 0 0 0 1.34 2.445c.345.502.715.987 1.109 1.451.493.583 1.045 1.168 1.22 1.912.1.429.067.879.109 1.318.042.438.185.904.54 1.167.27.167.575.268.89.294.223.035.502.047.618-.147a.551.551 0 0 0 .062-.255l.054-.645c.012-.139.06-.322.199-.322s.21.179.322.261a.358.358 0 0 0 .277.024.356.356 0 0 0 .207-.185.808.808 0 0 0 .013-.565 2.674 2.674 0 0 0-1.376-1.705 4.137 4.137 0 0 1-.67-.35 2.292 2.292 0 0 1-.528-.664c-1.22-2.009-2.445-4.033-3.307-6.212a4.596 4.596 0 0 1-.34-1.224c-.017-.431 0-.863.053-1.29a7.384 7.384 0 0 0-.213-2.304 1.809 1.809 0 0 0-.22-.56c-.354-.538-1.188-.617-1.714-.246a1.765 1.765 0 0 0-.68 1.245c-.039.434.213.887.34 1.29.395 1.25.787 2.5 1.178 3.75Z"/><path fill="#000" d="M27.869 95.071c.16.51.322 1.02.517 1.517a12.83 12.83 0 0 0 1.34 2.445c.345.502.715.987 1.109 1.451.493.583 1.045 1.168 1.22 1.912.1.429.067.879.109 1.318.042.438.185.904.54 1.167.27.167.575.268.89.294.223.035.502.047.618-.147a.551.551 0 0 0 .062-.255l.054-.645c.012-.139.06-.322.199-.322s.21.179.322.261a.358.358 0 0 0 .277.024.356.356 0 0 0 .207-.185.808.808 0 0 0 .013-.565 2.674 2.674 0 0 0-1.376-1.705 4.137 4.137 0 0 1-.67-.35 2.292 2.292 0 0 1-.528-.664c-1.22-2.009-2.445-4.033-3.307-6.212a4.596 4.596 0 0 1-.34-1.224c-.017-.431 0-.863.053-1.29a7.384 7.384 0 0 0-.213-2.304 1.809 1.809 0 0 0-.22-.56c-.354-.538-1.188-.617-1.714-.246a1.765 1.765 0 0 0-.68 1.245c-.039.434.213.887.34 1.29.395 1.25.787 2.5 1.178 3.75Z" opacity=".05"/><path fill="#3F3D56" d="M52.346 114.224c-.633.385-1.42.408-2.155.322-.118-.014-.259-.024-.334.068-.11.132.019.323.153.436a3.22 3.22 0 0 0 1.48.608c.482.067.967.099 1.452.096 1.321.023 2.649.044 3.957-.146a.529.529 0 0 0 .216-.063.411.411 0 0 0 .161-.249.99.99 0 0 0-.345-.942 2.919 2.919 0 0 0-.922-.495l-1.149-.447c-.27-.104-.703-.383-.995-.361-.542.036-1.063.905-1.52 1.173Z"/><path fill="#3F3D56" d="M55.23 116.922a2.823 2.823 0 0 1-1.927.72c-.18 0-.432.033-.432.214.003.054.02.106.052.15.225.374.58.652.996.781.394.094.801.119 1.204.076l1.177-.062c.223-.011.447-.022.668-.05.221-.027.461-.072.692-.108a9.188 9.188 0 0 1 1.715-.08.5.5 0 0 0 .422-.113c.105-.133.044-.323.01-.484-.071-.341 0-.699-.066-1.042-.113-.6-.63-1.062-1.202-1.279-.529-.202-1.468-.433-1.97-.097-.538.356-.862.944-1.338 1.374Z"/><path fill="#464353" d="M52.905 101.686c-.484.637-.968 1.373-.855 2.16.064.424.301.798.476 1.192.218.54.38 1.101.483 1.674.18.834.359 1.669.47 2.515.123.957.159 1.923.105 2.887-.015.232-.04.484-.202.645-.064.065-.148.118-.176.205a.347.347 0 0 0 .037.242 2.678 2.678 0 0 0 1.436 1.321 5.495 5.495 0 0 0 1.952.364.542.542 0 0 0 .26-.034.501.501 0 0 0 .203-.23c.483-.92.214-2.029.222-3.065 0-.866.21-1.724.173-2.59-.031-.694-.216-1.371-.284-2.063-.111-1.129.097-2.274.305-3.395.16-.859.322-1.718.524-2.568a4.9 4.9 0 0 1 .555-1.49c.226-.357.532-.656.79-.991a4.495 4.495 0 0 0 .884-3.286c-.016-.116-1.661.416-1.803.484-.593.25-1.14.6-1.613 1.034-.381.361-.68.845-1.013 1.252a104.008 104.008 0 0 0-2.93 3.737Z"/><path fill="#000" d="M52.905 101.686c-.484.637-.968 1.373-.855 2.16.064.424.301.798.476 1.192.218.54.38 1.101.483 1.674.18.834.359 1.669.47 2.515.123.957.159 1.923.105 2.887-.015.232-.04.484-.202.645-.064.065-.148.118-.176.205a.347.347 0 0 0 .037.242 2.678 2.678 0 0 0 1.436 1.321 5.495 5.495 0 0 0 1.952.364.542.542 0 0 0 .26-.034.501.501 0 0 0 .203-.23c.483-.92.214-2.029.222-3.065 0-.866.21-1.724.173-2.59-.031-.694-.216-1.371-.284-2.063-.111-1.129.097-2.274.305-3.395.16-.859.322-1.718.524-2.568a4.9 4.9 0 0 1 .555-1.49c.226-.357.532-.656.79-.991a4.495 4.495 0 0 0 .884-3.286c-.016-.116-1.661.416-1.803.484-.593.25-1.14.6-1.613 1.034-.381.361-.68.845-1.013 1.252a104.008 104.008 0 0 0-2.93 3.737Z" opacity=".05"/><path fill="#464353" d="M56.399 96.786c.103.493.582.87.595 1.376.011.403-.276.742-.484 1.088-.195.36-.36.734-.494 1.12a17.089 17.089 0 0 1-1.451 2.882c-.276.439-.586.915-.521 1.429.043.24.128.471.25.683l.829 1.646c.182.329.323.678.422 1.041.073.313.08.645.121.955.131 1.009.604 2.025.323 3.005-.024.083-.113.185-.179.127.274.511.495 1.027.473 1.613-.01.305-.104.621.01.905a.986.986 0 0 1 .125.345c0 .082-.039.161-.047.244-.022.232.19.427.413.501.223.074.465.07.689.136.432.129.739.5 1.11.758.374.259.817.403 1.272.414a.32.32 0 0 0 .187-.037.303.303 0 0 0 .105-.227 1.261 1.261 0 0 0-.456-1.099.504.504 0 0 1-.162-.177.434.434 0 0 1-.016-.199c.068-.905.052-1.815-.048-2.717a4.193 4.193 0 0 1-.042-.865c.048-.237.071-.479.07-.721a3.697 3.697 0 0 0-.222-.689c-.127-.411-.092-.853-.104-1.29a11.31 11.31 0 0 0-.365-2.208 1.678 1.678 0 0 0-.343-.797c-.173-.181-.452-.352-.386-.592a.678.678 0 0 1 .161-.235.95.95 0 0 0 .199-.721.324.324 0 0 0 .37-.175 5.804 5.804 0 0 0 2.917-3.316 1.08 1.08 0 0 1 .13-.295c.125-.174.343-.25.534-.347.604-.303 1.02-.872 1.402-1.429.24-.31.424-.662.542-1.037.052-.246.077-.497.074-.748l.034-1.29a.74.74 0 0 0-.024-.254.645.645 0 0 0-.14-.207 2.505 2.505 0 0 0-1.378-.741c-.353-.063-.714-.052-1.072-.081-.694-.058-1.38-.273-2.075-.223-1.09.081-2.061.837-2.58 1.802-.19.345-.381.636-.768.647Z"/><path fill="#514E7F" d="M20.205 116.54c.238.082.491.112.742.089.018-.205.294-.251.499-.241a.566.566 0 0 1 .293.065c.052.032.09.08.14.114a.601.601 0 0 0 .29.074l1.069.091c.475.04.967.077 1.416-.094a.46.46 0 0 0 .227-.151c.121-.173 0-.421-.161-.547-.161-.126-.382-.184-.55-.313-.371-.282-.421-.807-.618-1.232a3.542 3.542 0 0 0-.51-.741 2.835 2.835 0 0 0-.504-.516c-.428-.31-.921-.303-1.423-.347-.355-.032-.689-.053-.944.262-.314.39-.188 1.177-.169 1.643.02.619.087 1.236.203 1.844Z"/><path fill="#000" d="M20.205 116.54c.238.082.491.112.742.089.018-.205.294-.251.499-.241a.566.566 0 0 1 .293.065c.052.032.09.08.14.114a.601.601 0 0 0 .29.074l1.069.091c.475.04.967.077 1.416-.094a.46.46 0 0 0 .227-.151c.121-.173 0-.421-.161-.547-.161-.126-.382-.184-.55-.313-.371-.282-.421-.807-.618-1.232a3.542 3.542 0 0 0-.51-.741 2.835 2.835 0 0 0-.504-.516c-.428-.31-.921-.303-1.423-.347-.355-.032-.689-.053-.944.262-.314.39-.188 1.177-.169 1.643.02.619.087 1.236.203 1.844Z" opacity=".05"/><path fill="#464353" d="M20.637 95.784c-.322.105-.468.511-.408.85.06.339.263.63.43.928.475.85.681 1.822 1.08 2.709.298.663.701 1.276.997 1.936.295.66.484 1.414.298 2.119-.087.344-.255.66-.368.996-.11.368-.182.746-.216 1.129a21.399 21.399 0 0 0-.077 3.897c.001.158.035.315.098.461.066.129.182.264.126.398-.023.053-.071.092-.095.145-.068.149.07.304.193.408a.337.337 0 0 1-.21.162.493.493 0 0 1 .212.551c-.111.017-.118.186-.047.275.071.088.18.145.23.245a.342.342 0 0 1-.19.432.887.887 0 0 1-.514.039 5.517 5.517 0 0 1-.861-.189.763.763 0 0 1-.265-.121.786.786 0 0 1-.237-.523 9.436 9.436 0 0 1-.06-1.612c.047-2.607 0-5.217-.113-7.822-.046-1.048-.36-2.071-.767-3.039a15.67 15.67 0 0 0-.749-1.451c-.584-1.075-1.103-2.258-.967-3.476.014-.13.062-.289.191-.31a.28.28 0 0 1 .149.024c.27.127.531.272.782.433.413.243.88.382 1.358.406Z"/><path fill="#000" d="M20.637 95.784c-.322.105-.468.511-.408.85.06.339.263.63.43.928.475.85.681 1.822 1.08 2.709.298.663.701 1.276.997 1.936.295.66.484 1.414.298 2.119-.087.344-.255.66-.368.996-.11.368-.182.746-.216 1.129a21.399 21.399 0 0 0-.077 3.897c.001.158.035.315.098.461.066.129.182.264.126.398-.023.053-.071.092-.095.145-.068.149.07.304.193.408a.337.337 0 0 1-.21.162.493.493 0 0 1 .212.551c-.111.017-.118.186-.047.275.071.088.18.145.23.245a.342.342 0 0 1-.19.432.887.887 0 0 1-.514.039 5.517 5.517 0 0 1-.861-.189.763.763 0 0 1-.265-.121.786.786 0 0 1-.237-.523 9.436 9.436 0 0 1-.06-1.612c.047-2.607 0-5.217-.113-7.822-.046-1.048-.36-2.071-.767-3.039a15.67 15.67 0 0 0-.749-1.451c-.584-1.075-1.103-2.258-.967-3.476.014-.13.062-.289.191-.31a.28.28 0 0 1 .149.024c.27.127.531.272.782.433.413.243.88.382 1.358.406Z" opacity=".05"/><path fill="#464353" d="M16.23 92.615a1.147 1.147 0 0 0-.567-.18 1.15 1.15 0 0 0-.618.307c-.215.167-.42.347-.613.539a3.28 3.28 0 0 0-.732 3.244c.195.579.548 1.09.897 1.59l.71 1.02c1.082 1.554 2.166 3.109 3.3 4.627a.175.175 0 0 0 .122.161c.042.012.092.01.118.044a.123.123 0 0 1 .014.069c-.003.11-.025.219-.063.323a.15.15 0 0 0-.012.111c.035.086.192.037.24.118.034.051 0 .121-.052.161-.051.04-.096.095-.088.161.008.067.116.128.11.209 0 .045-.038.079-.065.114a.292.292 0 0 0 .035.373c.075.742-.322 1.443-.408 2.185-.127 1.166.4 2.305.465 3.476a.93.93 0 0 0 .072.384c.11.202.39.323.381.553-.02.095-.046.188-.08.279.003.134.017.267.043.399 0 .134-.113.293-.237.242.093.309.176.622.248.937l2.484.205a2.23 2.23 0 0 0-.022-.671c-.052-.239-.162-.463-.217-.702a.83.83 0 0 1 .099-.702.276.276 0 0 1-.274-.225 1.112 1.112 0 0 1 0-.386c.066-.645-.207-1.29-.199-1.936.008-.512.187-1.004.28-1.508.193-1.077-.009-2.246.47-3.226.29-.593.692-1.251.366-1.825-.16-.284-.443-.484-.627-.746a3.023 3.023 0 0 1-.337-.806c-.384-1.187-1.002-2.282-1.545-3.407a3.585 3.585 0 0 1-.333-.895 4.56 4.56 0 0 1-.04-.826 12.647 12.647 0 0 0-.092-1.484 1.389 1.389 0 0 0-.18-.614 1.377 1.377 0 0 0-.388-.353c-.814-.555-1.785-.876-2.664-1.34Z"/><path fill="#514E7F" d="M19.207 117.45c.238.082.491.112.742.088.02-.205.294-.25.499-.24.099-.003.197.02.285.066.052.032.09.081.142.115a.6.6 0 0 0 .29.074l1.067.09c.475.04.967.077 1.417-.093a.467.467 0 0 0 .226-.152c.121-.173 0-.421-.161-.547-.161-.126-.382-.184-.552-.313-.37-.282-.42-.806-.617-1.232a3.558 3.558 0 0 0-.51-.74 2.829 2.829 0 0 0-.503-.517c-.43-.309-.922-.303-1.423-.346-.357-.033-.69-.054-.944.261-.322.39-.19 1.177-.17 1.644.023.618.094 1.234.212 1.842Z"/><path fill="#fff" d="M45.26 98.74H32.676v12.587H45.26V98.741Z"/><path fill="#A1616A" d="M30.214 88.315a2.46 2.46 0 1 0 0-4.92 2.46 2.46 0 0 0 0 4.92Z"/><path fill="#A1616A" d="M27.894 86.584c-.353.305-.858.322-1.321.374-.99.1-1.952.38-2.842.823-.121.053-.231.13-.323.225a.931.931 0 0 0-.161.352 2.326 2.326 0 0 0-.094.855c.033.28.113.553.238.806a4.33 4.33 0 0 0 1.525 1.74c.112.08.238.141.371.177.323.067.637-.121.955-.205.291-.075.597-.065.883.029.267.088.55.251.806.143a.842.842 0 0 0 .368-.417c.251-.477.475-.968.67-1.47.071-.195.152-.385.244-.57.286-.544.78-.969 1.024-1.527a.336.336 0 0 0 .023-.287.398.398 0 0 0-.18-.139 4.313 4.313 0 0 1-.983-.77c-.161-.162-.46-.575-.692-.612-.255-.034-.334.321-.511.473Z"/><path fill="#514E7F" d="M27.953 91.582c-.286.138-.621.076-.931.012-.797-.162-1.602-.336-2.339-.68-.23-.088-.43-.241-.574-.441a1.405 1.405 0 0 1-.161-.552l-.136-.915c-.047-.322.036-.616.042-.938a.276.276 0 0 0-.053-.205.222.222 0 0 0-.161-.05c-.37 0-.592.392-.852.655a1.57 1.57 0 0 1-.523.351c-.237.097-.529.162-.624.402-.04.098-.035.211-.076.31-.161.393-.87.263-1.05.645-.051.11-.048.248-.134.335-.085.088-.241.084-.37.107-.514.084-.764.677-1.202.956-.37.236-.845.231-1.242.415a4.754 4.754 0 0 1-.645.322 3.046 3.046 0 0 1-.749.038.202.202 0 0 0-.15.048.205.205 0 0 0-.024.161 4.528 4.528 0 0 0 2.798 3.505.99.99 0 0 1 .24.115c.223.161.262.527.515.645a.534.534 0 0 0 .54-.116c.137-.135.267-.278.388-.43.232-.24.536-.4.866-.454.305-.048.645-.013.892-.2.1-.093.195-.193.28-.3a1.76 1.76 0 0 1 .646-.38 6.45 6.45 0 0 1 2.016-.427c.645-.037 1.314.023 1.926-.188.159-.048.305-.131.429-.242a1.29 1.29 0 0 0 .287-.499 3.805 3.805 0 0 0 .13-2.005Z"/><path fill="#514E7F" d="M24.78 87.958c.183-.016.365 0 .548 0 .214 0 .425-.052.645-.053a1.59 1.59 0 0 1 1.5 1.142.29.29 0 0 1 .01.161.114.114 0 0 1-.125.084 2.721 2.721 0 0 0-.276-.553 1.566 1.566 0 0 0-.825-.575 2.144 2.144 0 0 0-1.017-.037 4.671 4.671 0 0 0-.412.102l-.67.18a4.05 4.05 0 0 0-.36.11c-.09.033-.246.162-.335.162-.121 0-.023-.105.03-.176a.861.861 0 0 1 .43-.311 3.61 3.61 0 0 1 .858-.236Z"/><path fill="#A1616A" d="M26.44 95.347c.161.51.322 1.02.518 1.516.357.862.807 1.682 1.342 2.446.344.502.713.987 1.108 1.451.493.583 1.045 1.168 1.22 1.912.1.429.067.879.109 1.317.042.439.185.905.54 1.168.27.167.575.267.89.294.223.035.502.046.618-.147a.55.55 0 0 0 .062-.255l.053-.645c.013-.139.061-.323.2-.323s.21.179.322.262a.358.358 0 0 0 .277.024.364.364 0 0 0 .207-.186.816.816 0 0 0 .013-.564 2.682 2.682 0 0 0-1.372-1.707 4.137 4.137 0 0 1-.671-.35 2.252 2.252 0 0 1-.528-.664c-1.22-2.008-2.447-4.033-3.306-6.212a4.596 4.596 0 0 1-.34-1.224c-.018-.43 0-.862.052-1.29a7.385 7.385 0 0 0-.208-2.307 1.814 1.814 0 0 0-.22-.56c-.354-.538-1.188-.617-1.714-.246a1.763 1.763 0 0 0-.68 1.245c-.039.434.213.887.34 1.29l1.168 3.755Z"/><path fill="#464353" d="M33.793 84.116c.02-.205-.161-.39-.372-.521a5.2 5.2 0 0 1-.633-.387c-.187-.161-.288-.373-.475-.534a2.099 2.099 0 0 0-.71-.353 5.387 5.387 0 0 0-1.697-.305 2.987 2.987 0 0 0-1.624.429.965.965 0 0 0-.276.257c-.07.126-.116.264-.134.407a8.071 8.071 0 0 1-.424 1.29c-.182.466-.378.946-.807 1.304-.46.384-1.164.605-1.467 1.068a.346.346 0 0 0-.066.298c.043.117.183.195.31.27.748.429 1.391.984 1.723 1.648a1.911 1.911 0 0 1-.151 2.057c-.173.225-.412.493-.242.72.256.346 1.142.15 1.345.514a.729.729 0 0 1 .027.377c0 .382.37.724.818.9.474.16.971.243 1.471.242.136-.3.149-.641.037-.952a.38.38 0 0 1-.037-.216.519.519 0 0 1 .162-.208c.54-.51.425-1.26.101-1.864-.324-.605-.827-1.16-1.014-1.797-.094-.323-.096-.673.16-.936.145-.126.3-.24.464-.338.29-.199.515-.48.645-.807.15-.42.128-.924.57-1.202.441-.277 1.014-.187 1.48-.366.376-.15.787-.697.816-.995Z"/><path fill="#FBBEBE" d="M47.586 87.668a2.682 2.682 0 1 0 0-5.365 2.682 2.682 0 0 0 0 5.365Z"/><path fill="#FBBEBE" d="M50 84.873a3.477 3.477 0 0 0 2.226 1.556l-.202.732c-.348 1.262-.742 2.597-1.716 3.471a1.622 1.622 0 0 0-.273-1.254 4.747 4.747 0 0 0-.91-.952l-1.543-1.344a.422.422 0 0 1-.116-.129.393.393 0 0 1 0-.293c.197-.613.758-.995 1.213-1.408.23-.214.434-.453.611-.712.316-.435.515.005.71.333Z"/><path fill="#3F3D56" d="M50.342 88.342c.015.2-.012.402-.08.592a.416.416 0 0 1-.483.248c.056-.127-.092-.272-.23-.256a.435.435 0 0 0-.307.26.968.968 0 0 0-.09.6c.044.254.191.498.153.753-.031.211-.188.422-.104.62.054.09.122.171.2.24a.677.677 0 0 1-.072.929l2.097.04c-.078.35.08.708.26 1.018a6.407 6.407 0 0 0 4.777 3.12.416.416 0 0 0-.1.635c.17.17.458.148.67.038.203-.13.395-.273.577-.43a1.76 1.76 0 0 1 1.18-.323c.263.025.517.108.78.123.774.042 1.44-.516 2.18-.744.544-.161 1.158-.161 1.613-.506.197-.145.358-.384.3-.623a1.016 1.016 0 0 0-.226-.364c-.263-.34-.416-.749-.604-1.13a6.741 6.741 0 0 0-1.512-2.022 13.34 13.34 0 0 0-1.497-1.137 2.535 2.535 0 0 0-.406-.244 4.158 4.158 0 0 1-.555-.226c-.247-.16-.387-.427-.576-.645-.414-.484-1.051-.705-1.563-1.085-.342-.255-.645-.59-1.053-.715-.199-.06-.411-.064-.61-.124-.451-.137-.78-.539-1.224-.7-.35-.13-.737-.095-1.108-.142a2.581 2.581 0 0 1-1.139-.43 1.37 1.37 0 0 0-.368-.217c-.56-.161-.605.874-.658 1.236-.084.527-.222 1.068-.222 1.611Z"/><path fill="#FBBEBE" d="M50.889 91.844c.093 1.018-.676 2.005-.452 3.003.049.213.139.415.173.63.093.591-.26 1.15-.597 1.646l-2.903 4.249a2.587 2.587 0 0 1-.413.511c-.555.492-1.384.44-2.112.589a3.616 3.616 0 0 0-1.414.625.093.093 0 0 0-.034.06.091.091 0 0 0 .016.066 1.209 1.209 0 0 0 1.052.494c.076.1 0 .248-.105.322-.162.109-.37.138-.4.4a.452.452 0 0 0 .051.267c.118.178.3.304.509.351 1.001.307 2.083-.232 2.834-.968.75-.735 1.29-1.656 2.025-2.403.408-.413.871-.766 1.29-1.166.838-.806 1.49-1.774 2.119-2.742a3.05 3.05 0 0 0 .458-.934c.077-.33.042-.682.132-1.01.116-.43.43-.774.694-1.129.514-.708.856-1.572.788-2.445-.068-.873-.608-1.73-1.429-2.028a1.279 1.279 0 0 0-.806-.048c-.337.103-.586.382-.817.645l-.55.636a1.508 1.508 0 0 0-.322.484.508.508 0 0 0 .113.54"/><path fill="#3F3D56" d="M52.353 87.661c-.38.023-.807.06-1.07.323a1.492 1.492 0 0 0-.267.422c-.262.531-.517 1.088-.534 1.68-.016.472.12.935.193 1.403.06.389-.092.785-.12 1.179a8.046 8.046 0 0 0 1.522-.586c.281-.183.58-.338.892-.462.453-.152 1.218.108 1.647.322.024-.303-.203-.83-.18-1.129.004-.128.027-.255.069-.376.063-.128.14-.25.227-.363a1.485 1.485 0 0 0-.134-1.743c-.382-.431-.982-.592-1.555-.66a6.797 6.797 0 0 0-1.087-.037"/><path fill="#464353" d="m44.05 82.288-.06-.504c.424.108.825-.25 1.096-.623.271-.373.521-.806.933-.968.501-.189 1.032.113 1.511.362a4.732 4.732 0 0 0 1.734.574c.097.004.194.02.287.046.311.112.46.502.505.857.045.355.032.732.185 1.048.118.24.323.418.44.646.322.633.01 1.501.357 2.124l-.86-.787c-.078-.073-.19-.149-.275-.087-.086.06-.075.16-.103.237a.45.45 0 0 1-.612.222 1.675 1.675 0 0 1-.547-.5 3.342 3.342 0 0 0-1.364-1.034 1.744 1.744 0 0 0-1.444.086c-.401.227-.695.755-1.187.773-.674.025-.955-1.23-1.266-1.725a.611.611 0 0 0 .177-.761c.047-.016.484-.063.494.014Z"/><path fill="#00BAFC" d="M104.734 50.368a2.95 2.95 0 0 1-.842.23c.305-.182.535-.468.645-.806-.288.171-.603.292-.932.357a1.46 1.46 0 0 0-1.61-.365 1.47 1.47 0 0 0-.89 1.702 4.156 4.156 0 0 1-3.023-1.536 1.472 1.472 0 0 0 .455 1.962 1.43 1.43 0 0 1-.666-.184v.018a1.469 1.469 0 0 0 1.178 1.44 1.436 1.436 0 0 1-.663.024 1.473 1.473 0 0 0 1.37 1.02 2.942 2.942 0 0 1-2.172.608 4.108 4.108 0 0 0 2.245.663c2.702 0 4.178-2.238 4.178-4.18v-.188c.286-.21.532-.469.727-.765ZM99.403 81.948l.484 1.215 3.16 3.35 1.058-.997.666.705.705-.666.04-1.37.881-.832.071-2.398-2.827-2.997-4.238 3.99Zm6.372-.67-.041 1.37-1.058.997-.04 1.371-.665-.705-.882.832-2.834-2.998 3.35-3.16 2.17 2.292Z"/><path fill="#00BAFC" d="m103.202 80.677.529-.498 1.342 1.42-.529.498-1.342-1.42Zm-1.234 1.165.529-.5 1.34 1.422-.529.499-1.34-1.421ZM40.934 101.13h-5.175a.324.324 0 0 0-.322.322v5.176a.321.321 0 0 0 .323.323h2.58v-2.305h-.695v-.849h.708v-.627c0-.75.52-1.16 1.192-1.16.322 0 .667.025.746.036v.784h-.533c-.365 0-.436.172-.436.427v.54h.87l-.113.849h-.758v2.303h1.613a.324.324 0 0 0 .322-.322v-5.175a.324.324 0 0 0-.322-.322ZM86.174 64.193a1.215 1.215 0 0 1 1.211 1.211v2.42a1.214 1.214 0 0 1-1.211 1.21h-2.42a1.216 1.216 0 0 1-1.213-1.21v-2.42a1.215 1.215 0 0 1 1.213-1.211h2.42Zm0-.484h-2.42a1.702 1.702 0 0 0-1.696 1.697v2.419a1.702 1.702 0 0 0 1.696 1.697h2.42a1.702 1.702 0 0 0 1.697-1.69v-2.42a1.703 1.703 0 0 0-1.697-1.703Z"/><path fill="#00BAFC" d="M86.537 65.407a.365.365 0 1 1-.003-.73.365.365 0 0 1 .003.73Zm-1.57.237a.968.968 0 1 1 0 1.935.968.968 0 0 1 0-1.935Zm0-.484a1.452 1.452 0 1 0 0 2.904 1.452 1.452 0 0 0 0-2.903ZM161.049 91.11c0-.68-.501-1.23-1.129-1.23a53.53 53.53 0 0 0-2.569-.054h-.273c-.873 0-1.731.014-2.569.055-.618 0-1.12.55-1.12 1.232a24.824 24.824 0 0 0-.001 3.226c0 .682.501 1.236 1.119 1.236.881.04 1.786.058 2.705.058s1.823-.016 2.707-.058c.619 0 1.129-.554 1.129-1.236.035-.54.053-1.08.051-1.621a24.679 24.679 0 0 0-.05-1.613v.005Zm-4.569 3.108V91.24l2.197 1.488-2.197 1.49ZM80.935 34.03a3.388 3.388 0 0 0-1.361 6.502 3.023 3.023 0 0 1 .058-.779l.437-1.85a1.29 1.29 0 0 1-.11-.535c0-.504.292-.88.655-.88.31 0 .458.233.458.51 0 .31-.198.775-.3 1.204a.524.524 0 0 0 .536.653c.645 0 1.076-.826 1.076-1.805 0-.744-.502-1.299-1.412-1.299a1.615 1.615 0 0 0-1.67 1.625c-.011.242.069.48.223.666a.162.162 0 0 1 .049.189c-.016.063-.053.212-.07.272a.117.117 0 0 1-.17.086c-.475-.194-.696-.713-.696-1.29 0-.968.807-2.12 2.42-2.12 1.29 0 2.148.937 2.148 1.944 0 1.33-.74 2.325-1.832 2.325a.967.967 0 0 1-.828-.422s-.198.78-.24.932a2.798 2.798 0 0 1-.34.727 3.397 3.397 0 1 0 .97-6.655Z"/><path fill="url(#b)" d="M116.457 127.989c-.13-.554-.209-1.038-.209-1.038a2.155 2.155 0 0 0-.241-1.053v-1.264c.077-.202.17-.397.281-.583.2-.348 0-1.629 0-1.629s-.742-1.805-.563-2.95c.179-1.145-1.523-5.085-1.523-5.085a5.01 5.01 0 0 1 .162-1.13.844.844 0 0 0 .021-.235v-.029.01c-.026-.755-.623-2.171-.623-2.171l.081-2.697s.38-1.592-.241-3.728a20.056 20.056 0 0 1-.472-1.952c1.279-.195 2.258-.358 2.258-.358s-.742-3.105-1.244-3.648c-.501-.544-.901-2.25-.901-2.25s-.262-2.194.161-2.834c.423-.64.484-1.747.484-1.747s.968-.698 1.082-1.01c.171-.442.28-.905.323-1.377 0-.37-.121-.699-.081-.894.04-.195-.281-.93-.119-1.28a.948.948 0 0 0 .063-.338v-.01c0-.305-.028-.61-.086-.91a2.58 2.58 0 0 0-.952-.51l-.021-.083-.054-.217a.743.743 0 0 0-.096-.057v-.403l.15-.71c.297-1.23-1.348-1.414-1.348-1.414a.87.87 0 0 0-.466-.41c-.323-.116-.055 1.855.1 1.98.116.094.484.714.645 1.017l.029.05a.692.692 0 0 0-.076.079l.063.427.01.067a1.763 1.763 0 0 0-.263.446s.302.33.24.7c-.023.288.011.579.1.854-.017-.021-.229-.25-.44-.194-.211.056-.807.232-.807.232s-.441.078-.401.174c.04.097-.3.525-.3.525l-1.186-1.13a2.667 2.667 0 0 1-.137-.585 2.64 2.64 0 0 0 .378-.12.817.817 0 0 0 .322-.21c.1-.155.165-.33.191-.512.093-.345.295-.653.44-.98.239-.55.319-1.157.229-1.75a1.152 1.152 0 0 0-.181-.517c-.193-.266-.545-.374-.806-.587-.261-.213-.42-.535-.718-.695-.283-.124-.6-.15-.9-.078a4.81 4.81 0 0 0-1.679.61c-.174.103-.363.221-.563.186a.76.76 0 0 1-.405-.297.053.053 0 0 1 0-.018l-.014-.014a2.118 2.118 0 0 0-.184.887v.19a.293.293 0 0 1 0 .042.27.27 0 0 1-.01.063.448.448 0 0 1-.11.161.718.718 0 0 0-.096.132c0-.016.009-.032.016-.048a.7.7 0 0 0-.124.373.37.37 0 0 0 .09.267c.058.06.123.114.192.162a2.257 2.257 0 0 0 .267 1.518c.196.343.476.63.815.832l.04.102c.172.407.246.849.215 1.29 0 .032 0 .063-.015.095l-.041.048s-1.959.02-2.42-.398c-.461-.418-1.163 1.02-1.163 1.02s-.702.136-.842 0c-.14-.138-.968-.02-.968-.02a1.772 1.772 0 0 0-1.222-.445 3.6 3.6 0 0 0-.899-.5l-.022-.008a1.003 1.003 0 0 0-.442-.055s-.968-.797-1.242-1.223c-.274-.425-1.613-2.011-1.624-2.02v-.075l-.017-.23a.9.9 0 0 1-.119.01c0-.023-.016-.05-.027-.08a4.363 4.363 0 0 0-.284-.645s0-.29.085-.363c.086-.073-.035-1.14-.035-1.14s-.868-2.028-1.644-.515c0 0-1.47.98-.237 2.121 0 0 .484.237.561.426.047.122.213.466.323.694l.05.101-.015.011.02.19v.075c-.233.13-.389.261-.352.361.07.168.116.344.14.524 0 0 1.705 2.134 1.926 3.047 0 0 4.572 2.717 6.075 2.912l-.26 1.358c-.039.367-.059.737-.06 1.106.02.29-.18 1.613-.18 1.613s-.262 1.936-.484 2.212c-.223.276-.181 1.437-.181 1.437a9.612 9.612 0 0 1-.3 1.648c-.221.739-.059 1.65-.059 1.65s-.763 1.747 1.062.563c0 0 .896-.055 1.936-.09v.531c-.013 1-.019 2.379.026 3.422.081 1.844.645 5.484.645 5.484v1.833a2.63 2.63 0 0 0-.052.524 3.398 3.398 0 0 0 .494 1.835l.14 1.223s.323.807.336 1.29a.577.577 0 0 1-.015.117.897.897 0 0 0-.016.187c-.018.555.323 1.884.323 1.884s.021 1.338.221 1.416c.171.066-.229.772-.349.968a.54.54 0 0 1-.008-.039.41.41 0 0 1-.024.04.935.935 0 0 0-.063.339.484.484 0 0 0 .223.471c.38.234.585.427.263.505a3.322 3.322 0 0 0-.354.074c0-.015-.012-.031-.017-.045a.214.214 0 0 0-.126.224.982.982 0 0 0 .121.453c.141.35.323.683.542.991l.161-.018a.77.77 0 0 1-.09.161.63.63 0 0 1-.226.2.722.722 0 0 1-.274.095.76.76 0 0 0-.568.276c-.2.258-.323.611.069.921l1.434.494s2.467.322 2.336-.233c-.131-.554-.21-1.037-.21-1.037a2.188 2.188 0 0 0-.201-.982.934.934 0 0 0-.088-.145l.088-.01s.18-1.222.421-1.451c.056-.054.069-.096.054-.128.026-.066-.037-.105-.117-.127l-.018.048a1.285 1.285 0 0 0-.239-.026s-.08-.645.179-.874a.248.248 0 0 0 .052-.19 1.101 1.101 0 0 0-.028-.262l-.009.017a9.285 9.285 0 0 0-.576-1.505s-.019-.583.14-.817c.16-.233-.019-3.163-.019-3.163s.06-1.416-.121-2.075c-.181-.66.221-1.438.221-1.438V114.448l-.024-.224v.014a26.63 26.63 0 0 0-.173-1.368c-.081-.446.019-2.58.019-2.58l.362-.912.645 1.571.681 2.097c.194.26.314.568.346.89v.067a1.09 1.09 0 0 0 0 .14 1.26 1.26 0 0 0 .208.747s.181.99.462 1.242c.28.251.28.737.28.737s.341 1.437.502 1.689c.136.213.142.796.14.967v.054s.047.513.046.945v.161-.011a1.57 1.57 0 0 1-.042.348v.021-.072a3.591 3.591 0 0 0-.104.895c-.009.516.07 1.129.383 1.485.542.621.882.544.882.544s-.261.776-.582.932a.194.194 0 0 0-.034.021c0-.014 0-.03-.008-.045a.388.388 0 0 0-.078.135.388.388 0 0 0-.016.155c.015.415.153.815.397 1.15a.633.633 0 0 0 .271.162l-.05.03c-.036.02-.073.038-.111.054a.536.536 0 0 1-.162.041.776.776 0 0 0-.567.276c-.2.258-.323.612.069.921l1.434.494s2.435.329 2.311-.232Z"/><path fill="#2D293D" d="m107.038 128.905-1.389-.494c-.382-.309-.26-.663-.066-.921a.733.733 0 0 1 .548-.276.664.664 0 0 0 .266-.095.62.62 0 0 0 .22-.2 1.02 1.02 0 0 0 .161-.537s1.524-.445 1.936 0c.074.081.137.172.185.271.137.309.203.645.194.982 0 0 .077.484.203 1.038.126.553-2.258.232-2.258.232ZM113.829 128.227l-1.387-.493c-.384-.31-.261-.663-.067-.92a.726.726 0 0 1 .55-.277.504.504 0 0 0 .161-.042.806.806 0 0 0 .106-.053c.389-.213.379-.737.379-.737s1.523-.447 1.936 0c.056.06.104.127.145.198.164.327.244.689.234 1.055 0 0 .077.484.203 1.037.126.553-2.26.232-2.26.232Z"/><path fill="#000" d="M108.715 126.382c.074.081.137.172.185.271l-2.284.265c.103-.161.159-.347.162-.538 0 0 1.521-.443 1.937.002ZM115.654 125.897v.427c-.355.586-2.073.458-2.571.161a.806.806 0 0 0 .106-.053c.389-.213.38-.737.38-.737s1.522-.447 1.935 0c.058.061.108.129.15.202Z" opacity=".1"/><path fill="#464353" d="M115.926 124.053a3.802 3.802 0 0 0-.272.582v1.534c-.387.645-2.407.428-2.678.078-.271-.35-.563-1.262-.253-1.417.31-.154.563-.932.563-.932s-.323.078-.853-.543c-.531-.621-.368-1.999-.271-2.33.096-.33 0-1.435 0-1.435s.019-.776-.136-1.029c-.155-.253-.484-1.689-.484-1.689s0-.484-.271-.737-.446-1.242-.446-1.242a1.27 1.27 0 0 1-.194-.834c.058-.484-.331-1.01-.331-1.01l-.659-2.096-.621-1.573-.349.911s-.098 2.136-.019 2.581c.079.445.193 1.629.193 1.629s-.388.777-.212 1.437c.175.66.116 2.076.116 2.076s.174 2.931.019 3.165c-.155.234-.135.806-.135.806s.795 1.708.541 1.936c-.253.227-.174.874-.174.874s.544 0 .312.232c-.233.233-.408 1.452-.408 1.452l-2.351.297a4.975 4.975 0 0 1-.525-.991c-.31-.717.058-.645.371-.717.312-.073.114-.271-.255-.505-.37-.234-.162-.757-.162-.757s.563-.951.37-1.029c-.194-.077-.215-1.416-.215-1.416s-.387-1.592-.29-2.018c.097-.426-.311-1.452-.311-1.452l-.136-1.222a3.366 3.366 0 0 1-.419-2.313v-1.889s-.544-3.648-.623-5.484c-.048-1.181-.035-2.792-.019-3.799.009-.562.019-.937.019-.937l8.388-.872c.013.419.064.835.153 1.245.085.46.219 1.056.429 1.802.602 2.134.234 3.726.234 3.726l-.078 2.696s.737 1.805.583 2.42c-.096.369-.15.748-.162 1.129 0 0 1.65 3.94 1.476 5.086-.174 1.145.545 2.942.545 2.942s.194 1.29 0 1.632Z"/><path fill="#000" d="m111.133 113.943 2.545-.34s-1.439 1.474-2.545.34Z" opacity=".05"/><path fill="#000" d="M113.315 111.109s.089.902-.464 1.242c0 0 .988-.155.464-1.242ZM113.159 108.236s-2.132 1.757-2.903 1.613c-.771-.143 2.903-1.613 2.903-1.613ZM107.968 114.767s-1.613.369-1.668 1.019c-.055.651 1.668-1.019 1.668-1.019Z" opacity=".1"/><path fill="#000" d="M108.324 122.859s-2.288.428-1.638.72c.557.22 1.132.395 1.717.522 0 0 .737.039-.079-1.242Z" opacity=".05"/><g fill="#000" opacity=".05"><path d="M106.223 124.034a.456.456 0 0 1-.21-.333l-.022.042s-.215.523.161.757c.042.026.082.053.119.079.068-.013.142-.023.212-.04.306-.071.109-.267-.26-.505ZM109.172 123.885c.063-.058.06-.208.023-.4a1.085 1.085 0 0 0-.131.563.435.435 0 0 1 .108-.163ZM108.819 114.23c-.086.229-.14.469-.161.713a2.81 2.81 0 0 1 .178-.484s.003-.094-.017-.229ZM114.063 113.211a.851.851 0 0 0 .021-.213 5.62 5.62 0 0 0-.063.398c.013-.061.026-.122.042-.185ZM108.764 121.13c.045-.139.065-.284.058-.43-.072.172-.11.357-.111.543a.553.553 0 0 1 .053-.113ZM109.245 124.789a7.69 7.69 0 0 0-.266 1.192l-2.347.272a4.894 4.894 0 0 1-.526-.99 1.774 1.774 0 0 1-.066-.171c-.14.064-.197.209-.011.645.136.349.313.681.526.989l2.345-.273s.176-1.222.408-1.452c.115-.124.042-.182-.063-.212ZM106.145 121.303s.02 1.34.213 1.418c.098-.221.161-.431.076-.466-.194-.078-.213-1.417-.213-1.417s-.389-1.592-.29-2.019c.098-.427-.312-1.452-.312-1.452l-.135-1.222a3.372 3.372 0 0 1-.428-2.31v-1.886s-.543-3.648-.621-5.492c-.05-1.18-.035-2.792-.019-3.798v-.484h-.066s-.01.372-.019.937c-.017 1.005-.031 2.618.019 3.798.077 1.844.621 5.493.621 5.493v1.882a3.357 3.357 0 0 0 .437 2.329l.136 1.223s.408 1.027.309 1.451c-.098.425.292 2.015.292 2.015ZM113.053 125.729a2.256 2.256 0 0 1-.371-.923c-.24.217.036 1.057.294 1.389.258.332 2.29.563 2.679-.079v-.369c-.526.521-2.344.313-2.602-.018ZM116.003 123.535a3.905 3.905 0 0 0-.271.583v.272c.044-.1.107-.232.194-.389.062-.153.091-.318.085-.483l-.008.017ZM113.173 123.842c.074-.15.139-.304.192-.462 0 0-.322.078-.855-.543-.38-.452-.401-1.305-.348-1.863-.097.331-.253 1.708.271 2.329.343.408.6.513.74.539ZM112.162 119.538c.034.383.046.767.039 1.15.013-.075.027-.137.038-.18.099-.323 0-1.436 0-1.436s.02-.777-.135-1.029c-.155-.251-.484-1.689-.484-1.689s0-.484-.271-.737-.447-1.242-.447-1.242a1.276 1.276 0 0 1-.195-.834c.06-.484-.323-1.009-.323-1.009l-.659-2.097-.629-1.563-.35.911s0 .115-.012.295l.284-.74.621 1.571.66 2.097s.387.524.323 1.008c-.03.29.042.582.201.826 0 0 .174.989.445 1.242s.273.737.273.737.323 1.435.484 1.689c.161.253.137 1.03.137 1.03Z" opacity=".05"/></g><path fill="#FFCDD3" d="m113.791 83.83-.145.71.008.323v.232l-.807.084-.09-.161c-.161-.303-.516-.921-.629-1.017-.15-.125-.416-2.096-.097-1.979.196.076.357.221.452.408 0 0 1.595.168 1.308 1.4Z"/><path fill="#000" d="m113.661 85.087-.807.084-.09-.162a.712.712 0 0 1 .893-.146l.004.224Z" opacity=".1"/><path fill="#DCE6F2" d="m113.864 85.47-1.066.25-.023-.162-.061-.428a.727.727 0 0 1 .487-.286.735.735 0 0 1 .547.145l.053.217.063.265Z"/><path fill="#FFCDD3" d="m96.566 83.908-1.139.613-.103-.216c-.11-.228-.271-.57-.323-.692-.067-.189-.543-.428-.543-.428-1.194-1.14.227-2.119.227-2.119.754-1.515 1.592.513 1.592.513s.116 1.07.034 1.14c-.082.071-.082.365-.082.365.109.207.2.423.276.645.043.113.061.179.061.179Z"/><path fill="#000" d="m96.566 83.908-1.139.613-.103-.216c.162-.134.73-.597.918-.576.09.01.18.01.271 0 .035.113.053.179.053.179Z" opacity=".1"/><path fill="#DCE6F2" d="m96.683 84.253-1.281.63-.026-.275-.018-.189s.742-.637.968-.613c.112.016.224.016.336 0l.014.231.007.216Z"/><path fill="#FFCDD3" d="M110.686 88.537s-5.586.63-4.542.292c.727-.237 1.016-.698 1.077-1.211a2.95 2.95 0 0 0-.208-1.29c-.132-.353-.3-.692-.5-1.01 0 0 4.269-2.349 3.416-.213a3.358 3.358 0 0 0-.242 1.011c-.026.345.011.691.108 1.023.162.539.47 1.023.891 1.398Z"/><path fill="#000" d="M109.93 85.103a3.328 3.328 0 0 0-.242 1.011c-.403.337-.844.323-1.41.323-.435 0-.918.106-1.264-.103-.133-.353-.3-.691-.5-1.01 0 0 4.269-2.356 3.416-.22Z" opacity=".1"/><path fill="#FFCDD3" d="M108.202 86.579a2.31 2.31 0 1 0 0-4.62 2.31 2.31 0 0 0 0 4.62Z"/><path fill="#000" d="M110.686 88.537s-5.586.63-4.542.292c.727-.237 1.016-.698 1.077-1.211.277-.302.836-.52 1.195-.634.328-.11.681-.116 1.012-.016.13.035.253.09.367.161.161.543.469 1.03.891 1.408ZM113.863 85.471l-1.066.248-.023-.16a.943.943 0 0 1 1.026-.352l.063.264ZM96.683 84.253l-1.281.63-.026-.275a9.42 9.42 0 0 1 1.29-.57l.017.215ZM112.896 102.612c-2.163.34-5.242.785-5.731.637-.405-.124-1.699-.111-2.826-.073.01-.562.019-.937.019-.937l8.388-.872c.012.418.062.835.15 1.245Z" opacity=".1"/><path fill="#3F3D56" d="M115.052 102.097s-7.122 1.223-7.887.989c-.764-.234-4.689.021-4.689.021-1.766 1.182-1.027-.563-1.027-.563s-.162-.913.058-1.65a10.14 10.14 0 0 0 .29-1.65s-.039-1.165.174-1.436c.213-.27.466-2.213.466-2.213s.196-1.319.176-1.612c-.019-.294.058-1.105.058-1.105l.252-1.36c-1.452-.194-5.88-2.912-5.88-2.912-.214-.91-1.864-3.046-1.864-3.046a2.24 2.24 0 0 0-.135-.525c-.117-.31 1.63-.93 1.63-.93s1.3 1.592 1.571 2.018c.271.425 1.204 1.222 1.204 1.222a.94.94 0 0 1 .427.057h.023c.312.123.604.29.867.498.438-.01.863.15 1.184.447 0 0 .797-.116.933.02.135.135.806 0 .806 0s.681-1.436 1.129-1.02c.449.416 2.341.398 2.341.398.253-.335.866-.576 1.251-.7.328-.11.681-.115 1.012-.016.143.04.279.106.4.194l1.148 1.129s.323-.428.292-.525c-.031-.096.389-.174.389-.174s.563-.174.776-.234c.212-.06.409.175.425.194a2.26 2.26 0 0 1-.096-.853.968.968 0 0 0-.233-.699c.686-1.658 2.22-.255 2.22-.255s.174.912.019 1.262.161 1.087.116 1.28c-.045.194.078.525.078.892a5.347 5.347 0 0 1-.31 1.38c-.118.31-1.048 1.008-1.048 1.008s-.059 1.106-.467 1.746c-.408.64-.161 2.834-.161 2.834s.387 1.709.873 2.259c.485.55 1.209 3.63 1.209 3.63Z"/><path fill="#000" d="M104.669 89.334s-.213-.645-.408-.7a4.615 4.615 0 0 1-.563-.252l.126-.238s.729.2.845.412c.116.213 0 .778 0 .778ZM100.774 87.916c-.038.195-1.764.37-1.764.37l.872-.876.023.008c.313.123.605.29.869.498Z" opacity=".1"/><path fill="#575988" d="M95.771 85.408a.155.155 0 1 0 0-.31.155.155 0 0 0 0 .31ZM95.97 85.72a.155.155 0 1 0 0-.31.155.155 0 0 0 0 .31ZM96.165 86.005a.155.155 0 1 0 0-.31.155.155 0 0 0 0 .31ZM96.368 86.316a.155.155 0 1 0 0-.31.155.155 0 0 0 0 .31ZM114.662 86.27a.126.126 0 0 0 .126-.126.126.126 0 1 0-.126.126ZM114.681 86.556a.126.126 0 1 0 0-.25.126.126 0 0 0 0 .25ZM114.697 86.842a.126.126 0 1 0 0-.252.126.126 0 0 0-.126.126c0 .07.057.126.126.126Z"/><path fill="#000" d="M104.68 94.592c-.018-.022 4.355 5.502 7.753 2.31 0 0-5.368.727-7.753-2.31ZM102.166 97.465s2.618.07 2.892.824v.784a.5.5 0 0 1-.484 0c-.264-.142-1.847-.947-2.405-.56l-.003-1.048Z" opacity=".1"/><path fill="#3F3D56" d="M102.215 97.465s2.503.068 2.766.785V99a.484.484 0 0 1-.466 0c-.253-.137-1.774-.903-2.3-.534v-1Z"/><path fill="#000" d="M103.596 91.774a8.434 8.434 0 0 0 1.014 1.74c.443.596.98 1.115 1.591 1.536 0 0-2.562-2.91-2.605-3.276ZM102.739 88.739s.437 1.885 1.562 2.526l-1.562-2.526ZM102.065 88.93c-.012-.036-.389 1.49 1.451 2.335 0 0-.777-.265-1.451-2.336ZM113.501 87.665c-.029 0 .906.596 1.161.872 0 0-.608-.911-1.161-.873Z" opacity=".1"/><path fill="#2D293D" d="M107.578 86.361a.492.492 0 0 0 .179.313.506.506 0 0 0 .218.048c.705.044 1.437.075 2.097-.196a.781.781 0 0 0 .322-.212c.093-.155.152-.328.171-.508.092-.345.288-.645.428-.98a3.299 3.299 0 0 0 .227-1.762 1.162 1.162 0 0 0-.176-.516c-.187-.266-.527-.374-.774-.587-.247-.213-.406-.537-.693-.697a1.348 1.348 0 0 0-.871-.077 4.598 4.598 0 0 0-1.626.611c-.161.103-.352.221-.544.186a.747.747 0 0 1-.4-.307c-.137.316-.196.661-.172 1.005a.482.482 0 0 1 0 .152.496.496 0 0 1-.108.161c-.175.202-.283.521-.112.724.076.089.191.137.263.228.131.16.086.395.082.603a.323.323 0 0 0 .052.205.302.302 0 0 0 .286.068.78.78 0 0 1 .303-.03.512.512 0 0 1 .264.204c.32.413.447.866.584 1.364Z"/><path fill="#000" d="M110.452 86.137a.762.762 0 0 1-.323.21c-.645.272-1.384.24-2.087.197a.47.47 0 0 1-.217-.049.48.48 0 0 1-.181-.311c-.137-.499-.263-.953-.589-1.366a.503.503 0 0 0-.264-.204.787.787 0 0 0-.304.03.298.298 0 0 1-.285-.068.31.31 0 0 1-.05-.205c0-.208.047-.442-.084-.603-.073-.09-.187-.14-.263-.228a.456.456 0 0 1-.043-.465c-.125.198-.178.45-.034.62.075.089.19.137.263.228.13.16.085.395.082.603a.329.329 0 0 0 .051.205.301.301 0 0 0 .286.067.78.78 0 0 1 .303-.029.51.51 0 0 1 .265.203c.322.415.451.868.588 1.367a.493.493 0 0 0 .179.313.51.51 0 0 0 .218.048c.705.043 1.437.074 2.097-.197a.8.8 0 0 0 .323-.211.63.63 0 0 0 .1-.187c-.01.011-.016.024-.031.032ZM107.165 87.761s2.886.383 3.145-.051ZM112.774 86.568s1.602 0 1.955.603Z" opacity=".1"/></g><defs><linearGradient id="b" x1="105.042" x2="105.042" y1="128.998" y2="80.503" gradientUnits="userSpaceOnUse"><stop stop-color="gray" stop-opacity=".25"/><stop offset=".54" stop-color="gray" stop-opacity=".12"/><stop offset="1" stop-color="gray" stop-opacity=".1"/></linearGradient><clipPath id="a"><path fill="#fff" d="M.572 0h176.855v130H.572z"/></clipPath></defs></svg>