<svg xmlns="http://www.w3.org/2000/svg" width="300" height="278" fill="none"><g clip-path="url(#a)"><path fill="#3F3D56" d="M18.183 22.14A18.204 18.204 0 0 0 0 40.323V249.8a18.202 18.202 0 0 0 18.183 18.183H171.85a18.205 18.205 0 0 0 18.183-18.183V40.323A18.205 18.205 0 0 0 171.85 22.14H18.183Z"/><path fill="#fff" d="M180.577 35.055H9.455v220.013h171.122V35.055Z"/><path fill="#00BAFC" d="M158.207 74.491H31.827v8.302h126.38v-8.302ZM158.207 96.63H31.827v8.303h126.38v-8.302ZM158.207 118.77H31.827v8.303h126.38v-8.303ZM158.207 140.91H31.827v8.303h126.38v-8.303ZM158.207 163.05H31.827v8.302h126.38v-8.302ZM158.207 185.19H31.827v8.302h126.38v-8.302ZM158.207 207.329H31.827v8.303h126.38v-8.303Z"/><path fill="#E6E6E6" d="M159.985 21.104 34.667 44.038l29.486 161.124 125.319-22.934-29.487-161.124Z"/><path fill="#00BAFC" d="M148.888 52.983 56.335 69.92 57.448 76 150 59.063l-1.113-6.08ZM151.856 69.197 59.303 86.133l1.112 6.08 92.554-16.937-1.113-6.08ZM154.823 85.41l-92.554 16.938 1.113 6.08 92.553-16.938-1.112-6.08ZM157.79 101.624l-92.554 16.938 1.113 6.08 92.553-16.938-1.112-6.08ZM160.756 117.838l-92.553 16.937 1.113 6.08 92.553-16.937-1.113-6.08ZM163.724 134.051l-92.553 16.938 1.113 6.08 92.553-16.937-1.113-6.081ZM166.691 150.265l-92.553 16.938 1.112 6.08 92.554-16.938-1.113-6.08Z"/><path fill="#E6E6E6" d="m248.688 197.361-35.459 6.489 8.343 45.591 35.459-6.489-8.343-45.591Z"/><path fill="#fff" d="m245.548 206.381-26.189 4.793.315 1.72 26.189-4.792-.315-1.721ZM246.388 210.969l-26.189 4.793.315 1.72 26.188-4.792-.314-1.721ZM247.227 215.557l-26.188 4.792.315 1.721 26.188-4.793-.315-1.72ZM248.067 220.145l-26.188 4.792.315 1.721 26.188-4.793-.315-1.72ZM248.906 224.732l-26.188 4.793.315 1.72 26.188-4.792-.315-1.721ZM249.746 229.32l-26.188 4.793.314 1.72 26.189-4.792-.315-1.721ZM250.586 233.908l-26.189 4.792.315 1.721 26.189-4.793-.315-1.72Z"/><path fill="#3F3D56" d="M126.7 11.531h-15.079V8.444A8.446 8.446 0 0 0 103.177 0H86.855a8.444 8.444 0 0 0-8.444 8.444v3.087h-15.08a8.443 8.443 0 0 0-8.443 8.444v23.382h80.256V19.975a8.432 8.432 0 0 0-2.473-5.97 8.445 8.445 0 0 0-5.971-2.474ZM89.604 239.069c2.493-1.706 5.055-3.481 8.016-4.256 2.701-.708 5.803-.521 7.94 1.457 1.724 1.596 2.452 4.05 1.175 6.15a3.914 3.914 0 0 1-2.589 1.884 3.123 3.123 0 0 1-2.804-1.096c-.67-.74-1.071-1.834-.715-2.81.374-1.026 1.375-1.653 2.359-2.003a17.44 17.44 0 0 1 3.518-.727l4.892-.67 20.026-2.741 22.301-3.053a.695.695 0 0 0 .483-.851.71.71 0 0 0-.851-.484l-44.375 6.075c-1.605.22-3.232.377-4.821.7a8.1 8.1 0 0 0-3.461 1.438c-2.126 1.683-1.974 4.66-.018 6.42 1.98 1.783 4.851 1.476 6.589-.493a5.971 5.971 0 0 0 .453-7.321c-1.897-2.86-5.353-3.959-8.656-3.553-3.82.469-7.058 2.616-10.16 4.739-.731.5-.04 1.7.698 1.195Z"/><path fill="#A0616A" d="m245.308 187.788.461 4.613s-2.767 10.147 3.229 10.147 1.384-10.147 1.384-10.147l.461-3.69-5.535-.923ZM287.203 172.421l-2.116 4.125s-7.833 7.02-2.797 10.274c5.036 3.255 6.671-7.771 6.671-7.771l2.39-2.848-4.148-3.78Z"/><path fill="#2F2E41" d="m252.688 191.939 6.458 43.819 3.229 31.364s2.767 6.919 11.992.923l-1.384-17.989-.922-16.143s-.923-15.683-1.845-18.45c-.923-2.768.461-11.992.461-11.992l3.69-15.221-21.679 3.689Z"/><path fill="#2F2E41" d="m263.297 266.2-3.69 4.151s-5.535-1.845-6.919 1.845c-1.383 3.69 10.609 4.612 10.609 4.612s12.454.923 12.454 0c0-.922-.334-7.977-2.012-8.37-1.678-.393-10.442-2.238-10.442-2.238ZM270.216 189.633l6.457 46.125 3.229 31.364s2.767 6.919 11.992.923l-1.383-17.989-.923-16.143s-.922-15.683-1.845-18.45c-.922-2.768.461-11.992.461-11.992l-.922-17.066-17.066 3.228Z"/><path fill="#2F2E41" d="m280.824 266.2-3.69 4.151s-5.535-1.845-6.918 1.845c-1.384 3.69 10.608 4.612 10.608 4.612s12.454.923 12.454 0c0-.922-.334-7.977-2.012-8.37-1.678-.393-10.442-2.238-10.442-2.238Z"/><path fill="#A0616A" d="M256.379 116.757c5.349 0 9.686-4.337 9.686-9.686 0-5.35-4.337-9.687-9.686-9.687-5.35 0-9.687 4.337-9.687 9.687 0 5.349 4.337 9.686 9.687 9.686Z"/><path fill="#A0616A" d="m263.528 111.452 4.151 6.919-10.609 4.612-1.383-8.302 7.841-3.229Z"/><path fill="#575A89" d="M268.832 117.679s-9.686-.922-13.376 5.074l-9.104 6.919a5.245 5.245 0 0 0-2.027 4.867l7.902 59.707 11.531-.462 18.911-3.69 5.535-1.383-2.767-24.446s-3.229-9.686.461-16.144l-1.845-22.601-12.915-5.073-2.306-2.768Z"/><path fill="#575A89" d="m247.153 131.517-.692-1.154s-.923 0-.923 1.845-1.614 41.743-1.614 41.743l-.461 15.221 8.764.923 3.228-28.598-1.383-18.911-6.919-11.069ZM277.596 124.598l6.457.922a42.898 42.898 0 0 1 6.458 8.764c2.767 5.074 11.069 14.76 9.224 22.14-1.845 7.38-7.379 20.756-7.379 20.756l-8.764-3.69s6.919-16.144 6.457-17.527c-.461-1.384-5.996-9.687-5.996-9.687l-6.457-21.678Z"/><path fill="#2F2E41" d="M249.69 101.766s-7.841-.461-2.767-5.535c0 0 4.151-1.845 5.996-.922 0 0 2.767-1.845 2.767-.923 0 0 9.686-2.767 11.07 6.919 1.384 9.686-.922 14.299-.922 14.299l-6.458-.462s1.384-7.841-3.69-6.918c0 0-4.151 1.383-4.612 0-.461-1.384-1.384-6.458-1.384-6.458Z"/><path fill="#000" d="m253.38 189.403 4.151-27.675-2.767-17.066.922 18.563-2.767 26.178h.461Z" opacity=".2"/></g><defs><clipPath id="a"><path fill="#fff" d="M0 0h300v278H0z"/></clipPath></defs></svg>