<svg xmlns="http://www.w3.org/2000/svg" width="224" height="130" fill="none"><g clip-path="url(#a)"><path fill="#00BAFC" d="M13.454 121.797a1.251 1.251 0 0 0-.74.26c-.632-1.668-1.61-2.741-2.708-2.741s-2.075 1.073-2.707 2.741a1.251 1.251 0 0 0-.74-.26c-1.248 0-2.26 2.109-2.26 4.712h11.414c0-2.603-1.011-4.712-2.259-4.712Z"/><path fill="#3F3D56" d="M58.802 126.246H.937v.526h57.865v-.526Z"/><path fill="#00BAFC" d="M219.142 110.743a1.249 1.249 0 0 0-.741.26c-.632-1.668-1.609-2.741-2.707-2.741-1.098 0-2.076 1.073-2.707 2.741a1.251 1.251 0 0 0-.741-.26c-1.247 0-2.259 2.109-2.259 4.712H221.4c0-2.603-1.011-4.712-2.258-4.712Z"/><path fill="#3F3D56" d="M194.585 24.16h-55.102v-1.136h-24.985v1.136H59.17a3.728 3.728 0 0 0-3.728 3.727v75.451a3.727 3.727 0 0 0 3.728 3.727h135.415a3.727 3.727 0 0 0 3.727-3.727v-75.45a3.715 3.715 0 0 0-1.092-2.637 3.727 3.727 0 0 0-2.635-1.091Z"/><path fill="#000" d="M193.314 30.746H60.44v74.957h132.874V30.746Z" opacity=".2"/><path fill="#00BAFC" d="M126.763 28.703a1.363 1.363 0 1 0 0-2.726 1.363 1.363 0 0 0 0 2.726Z"/><path fill="#3F3D56" d="M223.062 114.929H30.264v.526h192.798v-.526Z"/><path fill="#00BAFC" d="M145.032 58.751v-5.546a6.803 6.803 0 0 0-6.805-6.804h-5.545c0-.748-2.406-1.362-5.463-1.42v-6.688a3.803 3.803 0 0 0 3.318-4.008 3.802 3.802 0 0 0-7.585 0 3.8 3.8 0 0 0 3.317 4.008v6.688c-3.057.058-5.462.672-5.462 1.42h-6.496a6.81 6.81 0 0 0-4.811 1.993 6.802 6.802 0 0 0-1.993 4.811v5.546c-.787 0-1.425 2.658-1.425 5.938 0 3.279.638 5.937 1.425 5.937v6.495a6.803 6.803 0 0 0 6.804 6.805h23.916a6.8 6.8 0 0 0 6.287-4.2c.342-.826.518-1.71.518-2.605v-6.495c.787 0 1.425-2.658 1.425-5.938 0-3.279-.638-5.937-1.425-5.937Z"/><path fill="#3F3D56" d="M115.674 48.539h21.191a6.027 6.027 0 0 1 6.029 6.029v21.191a6.027 6.027 0 0 1-6.029 6.03h-21.191a6.031 6.031 0 0 1-6.029-6.03V54.568a6.031 6.031 0 0 1 6.029-6.03Z"/><path fill="#00BAFC" d="M118.669 64.332a4.279 4.279 0 0 1-4.274-4.275.238.238 0 0 1 .475 0 3.802 3.802 0 0 0 3.799 3.8 3.799 3.799 0 0 0 3.8-3.8.238.238 0 0 1 .406-.168.24.24 0 0 1 .069.168 4.28 4.28 0 0 1-4.275 4.275ZM126.269 72.407a3.33 3.33 0 0 1-3.325-3.325.236.236 0 1 1 .475 0 2.852 2.852 0 0 0 2.85 2.85 2.849 2.849 0 0 0 2.85-2.85.236.236 0 1 1 .475 0 3.326 3.326 0 0 1-3.325 3.325ZM133.869 64.332a4.281 4.281 0 0 1-4.275-4.275.238.238 0 0 1 .475 0 3.798 3.798 0 0 0 6.487 2.687 3.803 3.803 0 0 0 1.113-2.687.238.238 0 0 1 .475 0 4.28 4.28 0 0 1-4.275 4.275Z"/><path fill="#00BAFC" d="M118.669 62.432a2.137 2.137 0 1 0 0-4.274 2.137 2.137 0 0 0 0 4.274ZM133.869 62.432a2.137 2.137 0 1 0 0-4.274 2.137 2.137 0 0 0 0 4.274ZM126.269 71.22c1.049 0 1.9-.425 1.9-.95 0-.525-.851-.95-1.9-.95s-1.9.425-1.9.95c0 .525.851.95 1.9.95Z"/><path fill="#3F3D56" d="M202.043 104.34h-12.968v-.935a.195.195 0 0 0-.014-.071.189.189 0 0 0-.172-.114h-4.446a.195.195 0 0 0-.071.014.197.197 0 0 0-.06.04.203.203 0 0 0-.04.06.195.195 0 0 0-.014.071v.935h-2.779v-.935a.186.186 0 0 0-.185-.185h-4.446a.186.186 0 0 0-.185.185v.935h-2.779v-.935a.195.195 0 0 0-.014-.071.203.203 0 0 0-.04-.06.197.197 0 0 0-.06-.04.195.195 0 0 0-.071-.014h-4.446a.187.187 0 0 0-.172.114.195.195 0 0 0-.014.071v.935h-2.779v-.935a.186.186 0 0 0-.185-.185h-4.446a.186.186 0 0 0-.185.185v.935h-2.779v-.935a.186.186 0 0 0-.185-.185h-4.446a.187.187 0 0 0-.131.054.186.186 0 0 0-.055.131v.935h-2.778v-.935a.195.195 0 0 0-.014-.071.189.189 0 0 0-.172-.114h-4.446a.195.195 0 0 0-.071.014.186.186 0 0 0-.114.171v.935h-2.779v-.935a.186.186 0 0 0-.185-.185h-34.828a.186.186 0 0 0-.185.185v.935h-2.779v-.935a.186.186 0 0 0-.185-.185h-4.446a.187.187 0 0 0-.131.054.186.186 0 0 0-.054.131v.935h-2.78v-.935a.19.19 0 0 0-.053-.131.184.184 0 0 0-.132-.054h-4.446a.191.191 0 0 0-.13.054.188.188 0 0 0-.055.131v.935h-2.779v-.935a.19.19 0 0 0-.054-.131.184.184 0 0 0-.13-.054h-4.447a.19.19 0 0 0-.131.054.188.188 0 0 0-.054.131v.935h-2.78v-.935a.19.19 0 0 0-.053-.131.183.183 0 0 0-.131-.054h-4.447a.183.183 0 0 0-.185.185v.935h-2.778v-.935a.19.19 0 0 0-.055-.131.183.183 0 0 0-.13-.054h-4.447a.191.191 0 0 0-.13.054.187.187 0 0 0-.055.131v.935h-2.779v-.935a.19.19 0 0 0-.054-.131.183.183 0 0 0-.131-.054h-4.446a.191.191 0 0 0-.131.054.187.187 0 0 0-.055.131v.935H54.21a4.454 4.454 0 0 0-3.144 1.302 4.45 4.45 0 0 0-1.302 3.144v2.01a4.447 4.447 0 0 0 4.446 4.446h147.833a4.447 4.447 0 0 0 4.446-4.446v-2.01a4.44 4.44 0 0 0-1.303-3.144 4.431 4.431 0 0 0-3.143-1.302Z"/><path fill="#00BAFC" d="M169.406 83.629h-88.64v.526h88.64v-.526Z"/><path fill="#D0CDE1" d="M87.078 83.366h-21.83c.698-8.227.698-16.498 0-24.725h21.83c-1.202 8.468-1.272 16.723 0 24.725Z"/><path fill="#3F3D56" d="M84.185 63.639H68.403v1.052h15.782v-1.052ZM84.185 67.058H68.403v1.052h15.782v-1.052ZM84.185 70.478H68.403v1.052h15.782v-1.052ZM84.185 73.897H68.403v1.052h15.782v-1.052ZM84.185 77.316H68.403v1.052h15.782v-1.052Z"/><path fill="#2F2E41" d="M29.066.844s-3.43-1.225-5.636 3.675c-2.205 4.9-5.635 10.29-5.635 10.29l1.96.49s.49-3.43 1.715-3.92l-.49 4.41s14.7 5.146 21.316-.49l-.245-1.715s.98.245.98 1.715l.735-.735s-.735-1.47-2.94-3.43C39.38 9.848 38.881 7.4 38.711 5.87a6.37 6.37 0 0 0-1.467-3.47C35.778.703 33.108-1.102 29.066.845Z"/><path fill="#FFB9B9" d="m19.174 108.929 1.052 6.05 4.208-.79.79-5.26h-6.05Z"/><path fill="#2F2E41" d="m25.223 112.348-5.787.526.263 4.735-.263 6.05s-3.419 6.838 1.579 6.312c4.997-.526 4.471-3.156 4.471-3.156l1.315-1.578-.789-3.946-.789-8.943Z"/><path fill="#FFB9B9" d="m42.846 108.929-1.053 6.05-4.208-.79-.79-5.26h6.05Z"/><path fill="#2F2E41" d="m36.796 112.348 5.787.526-.264 4.735.264 6.05s3.419 6.838-1.579 6.312c-4.997-.526-4.471-3.156-4.471-3.156l-1.315-1.578.789-3.946.789-8.943Z"/><path fill="#FFB9B9" d="M30.747 17.133a6.05 6.05 0 1 0 0-12.1 6.05 6.05 0 0 0 0 12.1Z"/><path fill="#FFB9B9" d="m26.8 14.24.79 9.468 7.365-.263s-2.105-6.05-.79-8.417l-7.364-.789Z"/><path fill="#2F2E41" d="m31.01 21.867 3.03-1.89 3.283 1.627 5.26 2.367-1.84 22.358s4.208 13.94 3.418 20.779c-.789 6.838 8.68 41.032 1.053 42.61-7.628 1.578-13.152 3.156-13.415.526-.263-2.63-.789-42.873-.789-42.873s-.789 42.61-3.945 43.136c-3.157.526-16.834 2.63-15.782-.526 1.052-3.156 8.154-58.392 11.573-61.548l.526-2.63-4.471-21.306 8.397-4.185 3.702 1.555Z"/><path fill="#FFB9B9" d="m15.228 54.482-.263 10.784s-2.532 10.647 1.758 10.585c4.291-.063 1.135-10.585 1.135-10.585l1.841-10.52-4.471-.264ZM55.002 43.164l7.392 7.857s8.99 6.24 5.752 9.056c-3.238 2.817-7.907-7.126-7.907-7.126l-8.392-6.607L55 43.164Z"/><path fill="#D0CDE1" d="m22.987 47.775 18.015-.552L40.768 46v-.006l-17.413-.315-.368 2.096Z"/><path fill="#2F2E41" d="M26.67 48.301a1.578 1.578 0 1 0 0-3.156 1.578 1.578 0 0 0 0 3.156ZM21.015 24.76l-1.71-.394s-2.236.92-2.762 3.814c-.526 2.893-7.365 25.513-3.945 26.828 3.42 1.316 8.417 1.841 8.417 1.316 0-.527 2.104-20.254 2.104-20.254l-2.104-11.31ZM37.102 25.763l5.48-1.792s2.63 0 2.63 2.893c0 1.194 5.042 10.998 5.042 10.998s12.112 8.634 10.258 8.943c-3.156.526-4.998 6.05-4.998 6.05L43.678 42.334l-6.575-16.571ZM23.368 11.533s1.96-2.695 3.675-3.185c1.715-.49 1.96-2.94 1.96-2.94s4.41 4.9 7.106 5.145c2.695.245.245-5.88.245-5.88l-4.9-1.225-4.656.49-3.675 2.45.245 5.145Z"/><path fill="#FFB9B9" d="M24.828 11.346c.436 0 .79-.53.79-1.184 0-.653-.354-1.183-.79-1.183-.436 0-.789.53-.789 1.183 0 .654.353 1.184.79 1.184Z"/></g><defs><clipPath id="a"><path fill="#fff" d="M.937 0h222.126v130H.937z"/></clipPath></defs></svg>